<mxfile host="app.diagrams.net" modified="2024-05-27T10:27:46.657Z" agent="Mozilla/5.0 (Windows NT 10.0; Win64; x64) AppleWebKit/537.36 (KHTML, like Gecko) Chrome/125.0.0.0 Safari/537.36" etag="P_TeQAKUkgzWlC4BGb1A" version="24.4.8" type="device">
  <diagram name="PÃ¡gina-1" id="ewjWY0V6ZPtQhwYV_NbF">
    <mxGraphModel dx="1050" dy="1726" grid="1" gridSize="10" guides="1" tooltips="1" connect="1" arrows="1" fold="1" page="1" pageScale="1" pageWidth="827" pageHeight="1169" math="0" shadow="0">
      <root>
        <mxCell id="0" />
        <mxCell id="1" parent="0" />
        <mxCell id="nxj2VHkqfAsjfzQ4GA-9-1" value="&lt;div style=&quot;font-size: 14px;&quot;&gt;&lt;font style=&quot;font-size: 14px;&quot;&gt;{&lt;/font&gt;&lt;/div&gt;&lt;div style=&quot;font-size: 14px;&quot;&gt;&lt;font style=&quot;font-size: 14px;&quot;&gt;&quot;statistics&quot;:&lt;/font&gt;&lt;/div&gt;&lt;div style=&quot;font-size: 14px;&quot;&gt;&lt;font style=&quot;font-size: 14px;&quot;&gt;&amp;nbsp;{&quot;deflorestation_area&quot;:,&lt;/font&gt;&lt;/div&gt;&lt;div style=&quot;font-size: 14px;&quot;&gt;&lt;font style=&quot;font-size: 14px;&quot;&gt;&amp;nbsp; &quot;animal_production&quot;:,&lt;/font&gt;&lt;/div&gt;&lt;div style=&quot;font-size: 14px;&quot;&gt;&lt;font style=&quot;font-size: 14px;&quot;&gt;&amp;nbsp; &quot;average_consuption_meat&quot;:,&lt;/font&gt;&lt;/div&gt;&lt;div style=&quot;&quot;&gt;&lt;font style=&quot;&quot;&gt;&lt;span style=&quot;font-size: 14px;&quot;&gt;&amp;nbsp; &quot;ch4_emission&quot;:,&lt;/span&gt;&lt;br&gt;&lt;/font&gt;&lt;/div&gt;&lt;div style=&quot;&quot;&gt;&lt;font style=&quot;&quot;&gt;&lt;span style=&quot;font-size: 14px;&quot;&gt;&amp;nbsp;&amp;nbsp;&lt;/span&gt;&lt;/font&gt;&lt;span style=&quot;background-color: initial;&quot;&gt;&lt;span style=&quot;font-size: 14px;&quot;&gt;&quot;co2_emission&quot;:,&lt;/span&gt;&lt;/span&gt;&lt;/div&gt;&lt;div style=&quot;&quot;&gt;&lt;span style=&quot;font-size: 14px; background-color: initial;&quot;&gt;&amp;nbsp;&amp;nbsp;&lt;/span&gt;&lt;span style=&quot;background-color: initial;&quot;&gt;&lt;span style=&quot;font-size: 14px;&quot;&gt;&quot;water_excrements&quot;:,&lt;/span&gt;&lt;/span&gt;&lt;/div&gt;&lt;div style=&quot;&quot;&gt;&lt;span style=&quot;font-size: 14px; background-color: initial;&quot;&gt;&amp;nbsp;&amp;nbsp;&lt;/span&gt;&lt;span style=&quot;background-color: initial;&quot;&gt;&lt;span style=&quot;font-size: 14px;&quot;&gt;&quot;water_quimics&quot;:,&lt;/span&gt;&lt;/span&gt;&lt;/div&gt;&lt;div style=&quot;&quot;&gt;&lt;span style=&quot;font-size: 14px;&quot;&gt;&amp;nbsp; &quot;industrial_portion&quot;:,&lt;/span&gt;&lt;span style=&quot;background-color: initial;&quot;&gt;&lt;span style=&quot;font-size: 14px;&quot;&gt;&lt;br&gt;&lt;/span&gt;&lt;/span&gt;&lt;/div&gt;&lt;div style=&quot;&quot;&gt;&lt;span style=&quot;font-size: 14px;&quot;&gt;&amp;nbsp;&amp;nbsp;&lt;/span&gt;&lt;span style=&quot;background-color: initial; font-size: 14px;&quot;&gt;&quot;&lt;/span&gt;&lt;span style=&quot;background-color: initial;&quot;&gt;&lt;span style=&quot;font-size: 14px;&quot;&gt;outdoor_cattle&quot;:,&lt;/span&gt;&lt;/span&gt;&lt;/div&gt;&lt;div style=&quot;font-size: 14px;&quot;&gt;&lt;font style=&quot;font-size: 14px;&quot;&gt;&amp;nbsp; }&lt;/font&gt;&lt;/div&gt;&lt;div style=&quot;font-size: 14px;&quot;&gt;&lt;font style=&quot;font-size: 14px;&quot;&gt;}&lt;/font&gt;&lt;/div&gt;" style="rounded=0;whiteSpace=wrap;html=1;align=left;" parent="1" vertex="1">
          <mxGeometry x="55" y="-60" width="205" height="250" as="geometry" />
        </mxCell>
        <mxCell id="nxj2VHkqfAsjfzQ4GA-9-41" value="BE Services" style="shape=table;startSize=30;container=1;collapsible=0;childLayout=tableLayout;strokeColor=default;fontSize=13;fontStyle=1" parent="1" vertex="1">
          <mxGeometry x="210" y="340" width="170" height="80" as="geometry" />
        </mxCell>
        <mxCell id="nxj2VHkqfAsjfzQ4GA-9-42" value="" style="shape=tableRow;horizontal=0;startSize=0;swimlaneHead=0;swimlaneBody=0;strokeColor=inherit;top=0;left=0;bottom=0;right=0;collapsible=0;dropTarget=0;fillColor=none;points=[[0,0.5],[1,0.5]];portConstraint=eastwest;fontSize=16;" parent="nxj2VHkqfAsjfzQ4GA-9-41" vertex="1">
          <mxGeometry y="30" width="170" height="25" as="geometry" />
        </mxCell>
        <mxCell id="nxj2VHkqfAsjfzQ4GA-9-43" value="&lt;b style=&quot;font-size: 13px;&quot;&gt;BE Services&lt;/b&gt;" style="shape=partialRectangle;html=1;whiteSpace=wrap;connectable=0;strokeColor=inherit;overflow=hidden;fillColor=none;top=0;left=0;bottom=0;right=0;pointerEvents=1;fontSize=16;" parent="nxj2VHkqfAsjfzQ4GA-9-42" vertex="1">
          <mxGeometry width="85" height="25" as="geometry">
            <mxRectangle width="85" height="25" as="alternateBounds" />
          </mxGeometry>
        </mxCell>
        <mxCell id="nxj2VHkqfAsjfzQ4GA-9-44" value="&lt;b&gt;&lt;font style=&quot;font-size: 13px;&quot;&gt;Resources&lt;/font&gt;&lt;/b&gt;" style="shape=partialRectangle;html=1;whiteSpace=wrap;connectable=0;strokeColor=inherit;overflow=hidden;fillColor=none;top=0;left=0;bottom=0;right=0;pointerEvents=1;fontSize=16;" parent="nxj2VHkqfAsjfzQ4GA-9-42" vertex="1">
          <mxGeometry x="85" width="85" height="25" as="geometry">
            <mxRectangle width="85" height="25" as="alternateBounds" />
          </mxGeometry>
        </mxCell>
        <mxCell id="nxj2VHkqfAsjfzQ4GA-9-46" value="" style="shape=tableRow;horizontal=0;startSize=0;swimlaneHead=0;swimlaneBody=0;strokeColor=inherit;top=0;left=0;bottom=0;right=0;collapsible=0;dropTarget=0;fillColor=none;points=[[0,0.5],[1,0.5]];portConstraint=eastwest;fontSize=16;" parent="nxj2VHkqfAsjfzQ4GA-9-41" vertex="1">
          <mxGeometry y="55" width="170" height="25" as="geometry" />
        </mxCell>
        <mxCell id="nxj2VHkqfAsjfzQ4GA-9-47" value="&lt;span style=&quot;color: rgb(31, 35, 40); font-family: -apple-system, BlinkMacSystemFont, &amp;quot;Segoe UI&amp;quot;, &amp;quot;Noto Sans&amp;quot;, Helvetica, Arial, sans-serif, &amp;quot;Apple Color Emoji&amp;quot;, &amp;quot;Segoe UI Emoji&amp;quot;; text-align: start; background-color: rgb(255, 255, 255);&quot;&gt;Statistics&lt;/span&gt;" style="shape=partialRectangle;html=1;whiteSpace=wrap;connectable=0;strokeColor=inherit;overflow=hidden;fillColor=none;top=0;left=0;bottom=0;right=0;pointerEvents=1;fontSize=16;" parent="nxj2VHkqfAsjfzQ4GA-9-46" vertex="1">
          <mxGeometry width="85" height="25" as="geometry">
            <mxRectangle width="85" height="25" as="alternateBounds" />
          </mxGeometry>
        </mxCell>
        <mxCell id="nxj2VHkqfAsjfzQ4GA-9-48" value="/&lt;span style=&quot;font-size: 13px;&quot;&gt;statistics&lt;/span&gt;" style="shape=partialRectangle;html=1;whiteSpace=wrap;connectable=0;strokeColor=inherit;overflow=hidden;fillColor=none;top=0;left=0;bottom=0;right=0;pointerEvents=1;fontSize=16;" parent="nxj2VHkqfAsjfzQ4GA-9-46" vertex="1">
          <mxGeometry x="85" width="85" height="25" as="geometry">
            <mxRectangle width="85" height="25" as="alternateBounds" />
          </mxGeometry>
        </mxCell>
        <mxCell id="nxj2VHkqfAsjfzQ4GA-9-54" value="" style="endArrow=none;html=1;rounded=0;exitX=0.592;exitY=1.006;exitDx=0;exitDy=0;exitPerimeter=0;entryX=0.455;entryY=-0.025;entryDx=0;entryDy=0;entryPerimeter=0;" parent="1" edge="1" source="nxj2VHkqfAsjfzQ4GA-9-1">
          <mxGeometry width="50" height="50" relative="1" as="geometry">
            <mxPoint x="194.46000000000004" y="157.44000000000005" as="sourcePoint" />
            <mxPoint x="263.95000000000005" y="220" as="targetPoint" />
          </mxGeometry>
        </mxCell>
        <mxCell id="nxj2VHkqfAsjfzQ4GA-9-55" value="" style="endArrow=none;html=1;rounded=0;exitX=0.553;exitY=0.025;exitDx=0;exitDy=0;exitPerimeter=0;entryX=0.52;entryY=0.979;entryDx=0;entryDy=0;entryPerimeter=0;" parent="1" target="nxj2VHkqfAsjfzQ4GA-9-12" edge="1">
          <mxGeometry width="50" height="50" relative="1" as="geometry">
            <mxPoint x="294.8" y="340" as="sourcePoint" />
            <mxPoint x="294.4099999999999" y="301.00199999999995" as="targetPoint" />
          </mxGeometry>
        </mxCell>
        <mxCell id="nxj2VHkqfAsjfzQ4GA-9-65" value="FE Services" style="shape=table;startSize=30;container=1;collapsible=0;childLayout=tableLayout;strokeColor=default;fontSize=13;fontStyle=1" parent="1" vertex="1">
          <mxGeometry x="30" y="560" width="350" height="202" as="geometry" />
        </mxCell>
        <mxCell id="nxj2VHkqfAsjfzQ4GA-9-66" value="" style="shape=tableRow;horizontal=0;startSize=0;swimlaneHead=0;swimlaneBody=0;strokeColor=inherit;top=0;left=0;bottom=0;right=0;collapsible=0;dropTarget=0;fillColor=none;points=[[0,0.5],[1,0.5]];portConstraint=eastwest;fontSize=16;" parent="nxj2VHkqfAsjfzQ4GA-9-65" vertex="1">
          <mxGeometry y="30" width="350" height="42" as="geometry" />
        </mxCell>
        <mxCell id="nxj2VHkqfAsjfzQ4GA-9-67" value="&lt;div style=&quot;&quot;&gt;&lt;span style=&quot;background-color: rgb(246, 248, 250); color: rgb(31, 35, 40);&quot;&gt;&lt;font style=&quot;font-size: 13px;&quot;&gt;Present Negative Statistics On Meat Consumption&lt;/font&gt;&lt;/span&gt;&lt;/div&gt;" style="shape=partialRectangle;html=1;whiteSpace=wrap;connectable=0;strokeColor=inherit;overflow=hidden;fillColor=none;top=0;left=0;bottom=0;right=0;pointerEvents=1;fontSize=16;align=center;" parent="nxj2VHkqfAsjfzQ4GA-9-66" vertex="1">
          <mxGeometry width="350" height="42" as="geometry">
            <mxRectangle width="350" height="42" as="alternateBounds" />
          </mxGeometry>
        </mxCell>
        <mxCell id="nxj2VHkqfAsjfzQ4GA-9-69" value="" style="shape=tableRow;horizontal=0;startSize=0;swimlaneHead=0;swimlaneBody=0;strokeColor=inherit;top=0;left=0;bottom=0;right=0;collapsible=0;dropTarget=0;fillColor=none;points=[[0,0.5],[1,0.5]];portConstraint=eastwest;fontSize=16;" parent="nxj2VHkqfAsjfzQ4GA-9-65" vertex="1">
          <mxGeometry y="72" width="350" height="46" as="geometry" />
        </mxCell>
        <mxCell id="nxj2VHkqfAsjfzQ4GA-9-70" value="&lt;span style=&quot;color: rgb(31, 35, 40); font-family: -apple-system, BlinkMacSystemFont, &amp;quot;Segoe UI&amp;quot;, &amp;quot;Noto Sans&amp;quot;, Helvetica, Arial, sans-serif, &amp;quot;Apple Color Emoji&amp;quot;, &amp;quot;Segoe UI Emoji&amp;quot;; text-align: start; background-color: rgb(255, 255, 255); font-size: 13px;&quot;&gt;Display Positive Statistics Via Side Navigation&lt;/span&gt;" style="shape=partialRectangle;html=1;whiteSpace=wrap;connectable=0;strokeColor=inherit;overflow=hidden;fillColor=none;top=0;left=0;bottom=0;right=0;pointerEvents=1;fontSize=16;" parent="nxj2VHkqfAsjfzQ4GA-9-69" vertex="1">
          <mxGeometry width="350" height="46" as="geometry">
            <mxRectangle width="350" height="46" as="alternateBounds" />
          </mxGeometry>
        </mxCell>
        <mxCell id="nxj2VHkqfAsjfzQ4GA-9-72" value="" style="shape=tableRow;horizontal=0;startSize=0;swimlaneHead=0;swimlaneBody=0;strokeColor=inherit;top=0;left=0;bottom=0;right=0;collapsible=0;dropTarget=0;fillColor=none;points=[[0,0.5],[1,0.5]];portConstraint=eastwest;fontSize=16;" parent="nxj2VHkqfAsjfzQ4GA-9-65" vertex="1">
          <mxGeometry y="118" width="350" height="42" as="geometry" />
        </mxCell>
        <mxCell id="nxj2VHkqfAsjfzQ4GA-9-73" value="&lt;span style=&quot;color: rgb(31, 35, 40); font-family: -apple-system, BlinkMacSystemFont, &amp;quot;Segoe UI&amp;quot;, &amp;quot;Noto Sans&amp;quot;, Helvetica, Arial, sans-serif, &amp;quot;Apple Color Emoji&amp;quot;, &amp;quot;Segoe UI Emoji&amp;quot;; text-align: start; background-color: rgb(246, 248, 250); font-size: 13px;&quot;&gt;Present Positive Statistics On Meat Consumption&lt;/span&gt;" style="shape=partialRectangle;html=1;whiteSpace=wrap;connectable=0;strokeColor=inherit;overflow=hidden;fillColor=none;top=0;left=0;bottom=0;right=0;pointerEvents=1;fontSize=16;" parent="nxj2VHkqfAsjfzQ4GA-9-72" vertex="1">
          <mxGeometry width="350" height="42" as="geometry">
            <mxRectangle width="350" height="42" as="alternateBounds" />
          </mxGeometry>
        </mxCell>
        <mxCell id="gAUjlXwvppd74u_5Mjit-1" style="shape=tableRow;horizontal=0;startSize=0;swimlaneHead=0;swimlaneBody=0;strokeColor=inherit;top=0;left=0;bottom=0;right=0;collapsible=0;dropTarget=0;fillColor=none;points=[[0,0.5],[1,0.5]];portConstraint=eastwest;fontSize=16;" vertex="1" parent="nxj2VHkqfAsjfzQ4GA-9-65">
          <mxGeometry y="160" width="350" height="42" as="geometry" />
        </mxCell>
        <mxCell id="gAUjlXwvppd74u_5Mjit-2" value="&lt;span style=&quot;color: rgb(31, 35, 40); font-family: -apple-system, BlinkMacSystemFont, &amp;quot;Segoe UI&amp;quot;, &amp;quot;Noto Sans&amp;quot;, Helvetica, Arial, sans-serif, &amp;quot;Apple Color Emoji&amp;quot;, &amp;quot;Segoe UI Emoji&amp;quot;; text-align: start; background-color: rgb(255, 255, 255); font-size: 13px;&quot;&gt;Display Negative Statistics Via Side Navigation&lt;/span&gt;" style="shape=partialRectangle;html=1;whiteSpace=wrap;connectable=0;strokeColor=inherit;overflow=hidden;fillColor=none;top=0;left=0;bottom=0;right=0;pointerEvents=1;fontSize=16;" vertex="1" parent="gAUjlXwvppd74u_5Mjit-1">
          <mxGeometry width="350" height="42" as="geometry">
            <mxRectangle width="350" height="42" as="alternateBounds" />
          </mxGeometry>
        </mxCell>
        <mxCell id="nxj2VHkqfAsjfzQ4GA-9-74" value="&lt;b&gt;&lt;font style=&quot;font-size: 14px;&quot;&gt;Statistics&lt;/font&gt;&lt;/b&gt;" style="rounded=0;whiteSpace=wrap;html=1;" parent="1" vertex="1">
          <mxGeometry x="235" y="460" width="120" height="60" as="geometry" />
        </mxCell>
        <mxCell id="nxj2VHkqfAsjfzQ4GA-9-75" value="" style="endArrow=none;html=1;rounded=0;exitX=0.553;exitY=0.025;exitDx=0;exitDy=0;exitPerimeter=0;entryX=0.538;entryY=1.158;entryDx=0;entryDy=0;entryPerimeter=0;" parent="1" edge="1">
          <mxGeometry width="50" height="50" relative="1" as="geometry">
            <mxPoint x="294.8" y="459" as="sourcePoint" />
            <mxPoint x="294.4099999999999" y="420.00199999999995" as="targetPoint" />
          </mxGeometry>
        </mxCell>
        <mxCell id="nxj2VHkqfAsjfzQ4GA-9-76" value="" style="endArrow=none;html=1;rounded=0;exitX=0.553;exitY=0.025;exitDx=0;exitDy=0;exitPerimeter=0;entryX=0.538;entryY=1.158;entryDx=0;entryDy=0;entryPerimeter=0;" parent="1" edge="1">
          <mxGeometry width="50" height="50" relative="1" as="geometry">
            <mxPoint x="294.8" y="559" as="sourcePoint" />
            <mxPoint x="294.4099999999999" y="520.002" as="targetPoint" />
          </mxGeometry>
        </mxCell>
        <mxCell id="nxj2VHkqfAsjfzQ4GA-9-3" value="APIs" style="shape=table;startSize=20;container=1;collapsible=0;childLayout=tableLayout;strokeColor=default;fontSize=13;" parent="1" vertex="1">
          <mxGeometry x="40" y="220" width="490" height="68" as="geometry" />
        </mxCell>
        <mxCell id="nxj2VHkqfAsjfzQ4GA-9-4" value="" style="shape=tableRow;horizontal=0;startSize=0;swimlaneHead=0;swimlaneBody=0;strokeColor=inherit;top=0;left=0;bottom=0;right=0;collapsible=0;dropTarget=0;fillColor=none;points=[[0,0.5],[1,0.5]];portConstraint=eastwest;fontSize=16;" parent="nxj2VHkqfAsjfzQ4GA-9-3" vertex="1">
          <mxGeometry y="20" width="490" height="25" as="geometry" />
        </mxCell>
        <mxCell id="nxj2VHkqfAsjfzQ4GA-9-5" value="&lt;font style=&quot;font-size: 13px;&quot;&gt;&lt;b&gt;BE Services&lt;/b&gt;&lt;/font&gt;" style="shape=partialRectangle;html=1;whiteSpace=wrap;connectable=0;strokeColor=inherit;overflow=hidden;fillColor=none;top=0;left=0;bottom=0;right=0;pointerEvents=1;fontSize=16;" parent="nxj2VHkqfAsjfzQ4GA-9-4" vertex="1">
          <mxGeometry width="98" height="25" as="geometry">
            <mxRectangle width="98" height="25" as="alternateBounds" />
          </mxGeometry>
        </mxCell>
        <mxCell id="nxj2VHkqfAsjfzQ4GA-9-6" value="&lt;font style=&quot;font-size: 13px;&quot;&gt;&lt;b&gt;Method&lt;/b&gt;&lt;/font&gt;" style="shape=partialRectangle;html=1;whiteSpace=wrap;connectable=0;strokeColor=inherit;overflow=hidden;fillColor=none;top=0;left=0;bottom=0;right=0;pointerEvents=1;fontSize=16;" parent="nxj2VHkqfAsjfzQ4GA-9-4" vertex="1">
          <mxGeometry x="98" width="99" height="25" as="geometry">
            <mxRectangle width="99" height="25" as="alternateBounds" />
          </mxGeometry>
        </mxCell>
        <mxCell id="nxj2VHkqfAsjfzQ4GA-9-7" value="&lt;font style=&quot;font-size: 13px;&quot;&gt;&lt;b&gt;Endpoints&lt;/b&gt;&lt;/font&gt;" style="shape=partialRectangle;html=1;whiteSpace=wrap;connectable=0;strokeColor=inherit;overflow=hidden;fillColor=none;top=0;left=0;bottom=0;right=0;pointerEvents=1;fontSize=16;" parent="nxj2VHkqfAsjfzQ4GA-9-4" vertex="1">
          <mxGeometry x="197" width="98" height="25" as="geometry">
            <mxRectangle width="98" height="25" as="alternateBounds" />
          </mxGeometry>
        </mxCell>
        <mxCell id="nxj2VHkqfAsjfzQ4GA-9-22" value="&lt;font style=&quot;font-size: 13px;&quot;&gt;&lt;b&gt;Input Data&lt;/b&gt;&lt;/font&gt;" style="shape=partialRectangle;html=1;whiteSpace=wrap;connectable=0;strokeColor=inherit;overflow=hidden;fillColor=none;top=0;left=0;bottom=0;right=0;pointerEvents=1;fontSize=16;" parent="nxj2VHkqfAsjfzQ4GA-9-4" vertex="1">
          <mxGeometry x="295" width="97" height="25" as="geometry">
            <mxRectangle width="97" height="25" as="alternateBounds" />
          </mxGeometry>
        </mxCell>
        <mxCell id="nxj2VHkqfAsjfzQ4GA-9-25" value="&lt;font style=&quot;font-size: 13px;&quot;&gt;&lt;b&gt;Output Data&lt;/b&gt;&lt;/font&gt;" style="shape=partialRectangle;html=1;whiteSpace=wrap;connectable=0;strokeColor=inherit;overflow=hidden;fillColor=none;top=0;left=0;bottom=0;right=0;pointerEvents=1;fontSize=16;" parent="nxj2VHkqfAsjfzQ4GA-9-4" vertex="1">
          <mxGeometry x="392" width="98" height="25" as="geometry">
            <mxRectangle width="98" height="25" as="alternateBounds" />
          </mxGeometry>
        </mxCell>
        <mxCell id="nxj2VHkqfAsjfzQ4GA-9-8" value="" style="shape=tableRow;horizontal=0;startSize=0;swimlaneHead=0;swimlaneBody=0;strokeColor=inherit;top=0;left=0;bottom=0;right=0;collapsible=0;dropTarget=0;fillColor=none;points=[[0,0.5],[1,0.5]];portConstraint=eastwest;fontSize=16;" parent="nxj2VHkqfAsjfzQ4GA-9-3" vertex="1">
          <mxGeometry y="45" width="490" height="23" as="geometry" />
        </mxCell>
        <mxCell id="nxj2VHkqfAsjfzQ4GA-9-9" value="&lt;span style=&quot;color: rgb(31, 35, 40); font-family: -apple-system, BlinkMacSystemFont, &amp;quot;Segoe UI&amp;quot;, &amp;quot;Noto Sans&amp;quot;, Helvetica, Arial, sans-serif, &amp;quot;Apple Color Emoji&amp;quot;, &amp;quot;Segoe UI Emoji&amp;quot;; text-align: start; background-color: rgb(255, 255, 255);&quot;&gt;Statistics&lt;/span&gt;" style="shape=partialRectangle;html=1;whiteSpace=wrap;connectable=0;strokeColor=inherit;overflow=hidden;fillColor=none;top=0;left=0;bottom=0;right=0;pointerEvents=1;fontSize=16;" parent="nxj2VHkqfAsjfzQ4GA-9-8" vertex="1">
          <mxGeometry width="98" height="23" as="geometry">
            <mxRectangle width="98" height="23" as="alternateBounds" />
          </mxGeometry>
        </mxCell>
        <mxCell id="nxj2VHkqfAsjfzQ4GA-9-10" value="&lt;font style=&quot;font-size: 13px;&quot;&gt;GET&lt;/font&gt;" style="shape=partialRectangle;html=1;whiteSpace=wrap;connectable=0;strokeColor=inherit;overflow=hidden;fillColor=none;top=0;left=0;bottom=0;right=0;pointerEvents=1;fontSize=16;" parent="nxj2VHkqfAsjfzQ4GA-9-8" vertex="1">
          <mxGeometry x="98" width="99" height="23" as="geometry">
            <mxRectangle width="99" height="23" as="alternateBounds" />
          </mxGeometry>
        </mxCell>
        <mxCell id="nxj2VHkqfAsjfzQ4GA-9-11" value="/&lt;span style=&quot;font-size: 13px;&quot;&gt;statistics&lt;/span&gt;" style="shape=partialRectangle;html=1;whiteSpace=wrap;connectable=0;strokeColor=inherit;overflow=hidden;fillColor=none;top=0;left=0;bottom=0;right=0;pointerEvents=1;fontSize=16;" parent="nxj2VHkqfAsjfzQ4GA-9-8" vertex="1">
          <mxGeometry x="197" width="98" height="23" as="geometry">
            <mxRectangle width="98" height="23" as="alternateBounds" />
          </mxGeometry>
        </mxCell>
        <mxCell id="nxj2VHkqfAsjfzQ4GA-9-23" value="&lt;span style=&quot;font-size: 13px;&quot;&gt;none&lt;/span&gt;" style="shape=partialRectangle;html=1;whiteSpace=wrap;connectable=0;strokeColor=inherit;overflow=hidden;fillColor=none;top=0;left=0;bottom=0;right=0;pointerEvents=1;fontSize=16;" parent="nxj2VHkqfAsjfzQ4GA-9-8" vertex="1">
          <mxGeometry x="295" width="97" height="23" as="geometry">
            <mxRectangle width="97" height="23" as="alternateBounds" />
          </mxGeometry>
        </mxCell>
        <mxCell id="nxj2VHkqfAsjfzQ4GA-9-26" value="&lt;span style=&quot;font-size: 13px;&quot;&gt;All statistics&lt;/span&gt;" style="shape=partialRectangle;html=1;whiteSpace=wrap;connectable=0;strokeColor=inherit;overflow=hidden;fillColor=none;top=0;left=0;bottom=0;right=0;pointerEvents=1;fontSize=16;" parent="nxj2VHkqfAsjfzQ4GA-9-8" vertex="1">
          <mxGeometry x="392" width="98" height="23" as="geometry">
            <mxRectangle width="98" height="23" as="alternateBounds" />
          </mxGeometry>
        </mxCell>
        <mxCell id="nxj2VHkqfAsjfzQ4GA-9-77" value="&lt;div style=&quot;font-size: 14px;&quot;&gt;&lt;font style=&quot;font-size: 14px;&quot;&gt;{&lt;/font&gt;&lt;/div&gt;&lt;div style=&quot;&quot;&gt;&lt;font style=&quot;&quot;&gt;&lt;span style=&quot;font-size: 14px;&quot;&gt;&amp;nbsp; &quot;negative_&lt;/span&gt;&lt;span style=&quot;text-align: center;&quot;&gt;&lt;font style=&quot;font-size: 14px;&quot;&gt;statistics&lt;/font&gt;&lt;/span&gt;&lt;span style=&quot;font-size: 14px;&quot;&gt;_title&quot;:,&lt;/span&gt;&lt;/font&gt;&lt;/div&gt;&lt;div style=&quot;font-size: 14px;&quot;&gt;&lt;font style=&quot;font-size: 14px;&quot;&gt;&amp;nbsp;&amp;nbsp;&lt;/font&gt;&lt;span style=&quot;background-color: initial;&quot;&gt;&quot;deflorestation_area&quot;:,&lt;/span&gt;&lt;/div&gt;&lt;div style=&quot;font-size: 14px;&quot;&gt;&lt;font style=&quot;font-size: 14px;&quot;&gt;&amp;nbsp;&amp;nbsp;&lt;/font&gt;&lt;span style=&quot;background-color: initial;&quot;&gt;&quot;animal_production&quot;:,&lt;/span&gt;&lt;/div&gt;&lt;div style=&quot;font-size: 14px;&quot;&gt;&lt;font style=&quot;font-size: 14px;&quot;&gt;&amp;nbsp;&amp;nbsp;&lt;/font&gt;&lt;span style=&quot;background-color: initial;&quot;&gt;&quot;average_consuption_meat&quot;:,&lt;/span&gt;&lt;/div&gt;&lt;div style=&quot;font-size: 14px;&quot;&gt;&lt;span style=&quot;background-color: initial;&quot;&gt;&amp;nbsp;&amp;nbsp;&lt;/span&gt;&lt;span style=&quot;background-color: initial;&quot;&gt;&quot;ch4_emission&quot;:,&lt;/span&gt;&lt;/div&gt;&lt;div style=&quot;font-size: 14px;&quot;&gt;&lt;span style=&quot;background-color: initial;&quot;&gt;&amp;nbsp;&amp;nbsp;&lt;/span&gt;&lt;span style=&quot;background-color: initial;&quot;&gt;&quot;co2_emission&quot;:,&lt;/span&gt;&lt;/div&gt;&lt;div style=&quot;font-size: 14px;&quot;&gt;&lt;span style=&quot;background-color: initial;&quot;&gt;&amp;nbsp;&amp;nbsp;&lt;/span&gt;&lt;span style=&quot;background-color: initial;&quot;&gt;&quot;positive_statistics&quot;:,&lt;/span&gt;&lt;/div&gt;&lt;div style=&quot;font-size: 14px;&quot;&gt;&lt;font style=&quot;font-size: 14px;&quot;&gt;}&lt;/font&gt;&lt;/div&gt;" style="rounded=0;whiteSpace=wrap;html=1;align=left;" parent="1" vertex="1">
          <mxGeometry x="610" y="210" width="200" height="160" as="geometry" />
        </mxCell>
        <mxCell id="nxj2VHkqfAsjfzQ4GA-9-84" value="" style="endArrow=none;html=1;rounded=0;exitX=1;exitY=0.5;exitDx=0;exitDy=0;entryX=-0.018;entryY=0.345;entryDx=0;entryDy=0;entryPerimeter=0;" parent="1" source="nxj2VHkqfAsjfzQ4GA-9-74" edge="1">
          <mxGeometry width="50" height="50" relative="1" as="geometry">
            <mxPoint x="500" y="510" as="sourcePoint" />
            <mxPoint x="488.31034" y="380.375" as="targetPoint" />
          </mxGeometry>
        </mxCell>
        <mxCell id="nxj2VHkqfAsjfzQ4GA-9-85" value="" style="endArrow=none;html=1;rounded=0;exitX=-0.014;exitY=0.411;exitDx=0;exitDy=0;exitPerimeter=0;" parent="1" source="nxj2VHkqfAsjfzQ4GA-9-77" edge="1">
          <mxGeometry width="50" height="50" relative="1" as="geometry">
            <mxPoint x="620" y="235" as="sourcePoint" />
            <mxPoint x="560" y="325" as="targetPoint" />
          </mxGeometry>
        </mxCell>
        <mxCell id="nxj2VHkqfAsjfzQ4GA-9-86" value="&lt;div style=&quot;font-size: 14px;&quot;&gt;&lt;div&gt;{&lt;/div&gt;&lt;div style=&quot;font-size: 12px;&quot;&gt;&lt;span style=&quot;font-size: 14px;&quot;&gt;&amp;nbsp; &quot;positive_&lt;/span&gt;&lt;span style=&quot;text-align: center;&quot;&gt;&lt;font style=&quot;font-size: 14px;&quot;&gt;statistics&lt;/font&gt;&lt;/span&gt;&lt;span style=&quot;font-size: 14px;&quot;&gt;_title&quot;:,&lt;/span&gt;&lt;/div&gt;&lt;div&gt;&amp;nbsp;&amp;nbsp;&lt;span style=&quot;background-color: initial;&quot;&gt;&quot;water_excrements&quot;:,&lt;/span&gt;&lt;/div&gt;&lt;div&gt;&amp;nbsp;&amp;nbsp;&lt;span style=&quot;background-color: initial;&quot;&gt;&quot;water_quimics&quot;:,&lt;/span&gt;&lt;/div&gt;&lt;div&gt;&amp;nbsp;&amp;nbsp;&lt;span style=&quot;background-color: initial;&quot;&gt;&quot;industrial_portion&quot;:,&lt;/span&gt;&lt;/div&gt;&lt;div&gt;&lt;span style=&quot;background-color: initial;&quot;&gt;&amp;nbsp;&amp;nbsp;&lt;/span&gt;&lt;span style=&quot;background-color: initial;&quot;&gt;&quot;&lt;/span&gt;&lt;span style=&quot;background-color: initial; font-size: 12px;&quot;&gt;&lt;span style=&quot;font-size: 14px;&quot;&gt;outdoor_cattle&quot;:,&lt;/span&gt;&lt;/span&gt;&lt;/div&gt;&lt;div&gt;}&lt;/div&gt;&lt;/div&gt;" style="rounded=0;whiteSpace=wrap;html=1;align=left;" parent="1" vertex="1">
          <mxGeometry x="640" y="580" width="170" height="150" as="geometry" />
        </mxCell>
        <mxCell id="nxj2VHkqfAsjfzQ4GA-9-88" value="" style="endArrow=none;html=1;rounded=0;exitX=1;exitY=0.5;exitDx=0;exitDy=0;entryX=-0.002;entryY=0.444;entryDx=0;entryDy=0;entryPerimeter=0;" parent="1" source="nxj2VHkqfAsjfzQ4GA-9-74" edge="1">
          <mxGeometry width="50" height="50" relative="1" as="geometry">
            <mxPoint x="360" y="490" as="sourcePoint" />
            <mxPoint x="493.37645999999995" y="599.9200000000001" as="targetPoint" />
          </mxGeometry>
        </mxCell>
        <mxCell id="nxj2VHkqfAsjfzQ4GA-9-89" value="" style="endArrow=none;html=1;rounded=0;entryX=-0.006;entryY=0.634;entryDx=0;entryDy=0;entryPerimeter=0;" parent="1" target="nxj2VHkqfAsjfzQ4GA-9-86" edge="1">
          <mxGeometry width="50" height="50" relative="1" as="geometry">
            <mxPoint x="580.3199999999999" y="634.9381521154316" as="sourcePoint" />
            <mxPoint x="650" y="670" as="targetPoint" />
          </mxGeometry>
        </mxCell>
        <mxCell id="gAUjlXwvppd74u_5Mjit-3" value="" style="shape=image;verticalLabelPosition=bottom;labelBackgroundColor=default;verticalAlign=top;aspect=fixed;imageAspect=0;image=data:image/png,iVBORw0KGgoAAAANSUhEUgAAANQAAAGSCAYAAACbqO/dAAAAAXNSR0IArs4c6QAAAARnQU1BAACxjwv8YQUAAAAJcEhZcwAAEnQAABJ0Ad5mH3gAAHSsSURBVHhe7Z0FgFTVF8a/2e5ddmFh6e5uEBAQBBEDxI6/2IGiYmBjByIGKooJSkkYhEindHd37bLdNf/z3XkDyzK7OzPMLhv3t1zmdZ7vnnPjvWcyC9BoNC7BFB8frwWl0bgIU0xMjBKUyWSCdlYazeXhZvxqNBoXoAWl0bgQLSiNxoVoQWk0LkQLSqNxIcWmlo/7zshIR2pqGtLSUlVKSUlBZlYWUlNS1TwuoxL/si2/mpKLn68fqlatCjc3N5w9exbRMdEw8U9skUn+U78e7u7w9fNTv97ePvD19YWXl7cMe8PHx8eybDHhigoqS8Ry5sxpHDiwHydOHEdUVBTc3N3gJxcvMCAAXuqCecPdzUOGveQiespF9ZAb4K6OtxhdR40TeHh4wN/fX93LZMk809PSVBZJO8zOzlb2kZGejjRJmZmZSOewZLjJKUlISEhU04KCglG9WnXUqFFTxFlNbMTLsvErRJEKittPSkrEiZMncPjQIZw8dULlTgEBgQgPr4BguThukgvxQmVkZKgLSM+UlSkXVqZlZTFlycUW32TOVl5KU3Khp6lWLYeHio4xMkqTmsbMlRmoh6cn3MUuKEBvyVg9PZk8lD0lJiaqjDg2NlbZS4UKFVCrVh1UrVINwcFiT7KdoqTIBMUTX7tujXijvahYsSIqV66iBMGLkC6iSUlOQaKILfJsFM5FRyM+Pg4J8QnymyAiTDqfS2UrQWWrxMMt7EzAWeRyFvnNJJbMpmRkNO4iGIZwvFa0g0zJODlsophkgCJyF0ExMlFRS1AgggKDEBQchNByIUo8gUFBMs8SAtI7UXRRUWdx7NhxmR+Oqzp3QVhYeWXfRUGhCsqSgyRg957d2Lp1M8rJRahbtz6Sk5Nx9swZREZF4vhxeqvDOHjwECIjo5QHYzmKnojrW1NJgzfWg7loEXpR3kNmNDTO0oZVEG5u9F7uSjwMF0NDQ1GzZnXUrl1bvF01VJBIJzw8XNnasWPHVFGidu26aNG8lUwrV+iZXKEJitvas2cXVq5aoQqeYWFhIhYRkrj2rVu2Yv36jTh85DBiYyyumoZQmmBI4uHhWWQ5I7FmPqmpqcaUsgFF4ilhYWBgoAohW7ZsgdZtWkkUVFlNS5EMfN/+/WjUqAk6tO+oPF9hUSiCYni3ctVyHD16BO3atVNC4vD2bTuxePFiCfsOlspcNCe8nrxxRSkowrDYlRljSYTXvUqVKujWrSvatG2N6uK56LU2b9msPNs1PXurMLAwcLmgos5FYe7c2YioVBEhIeVwNjISG9avx4IFi7B37z6ksSanjN9wTdFA8VQVj3X11d3QtWsXVI6IQEZmhrLDrl27oW6dei7P8FwqqGPHj2L27L/QuHFjccHe2C9u9p+587Bs2XLltTSaKwGF1bp1a9w84EY0aFBfVWysXvMfru7WQ2y1qUtF5TJBHTlySMK5hWgkYkpLS8fmTZsxY8ZM7Nq126HwjsdhTVcCVoZo7INllytxn2in1mQvDAOrV6+Om266AZ06d0J5KdNv274NTZs0Q6tWbVxWWeESQZ09ewZTp05C+/YdVNX3xo2b8MsvE3D82HFjCdvwVrAZrpykOjLCFCSJp1b0t8lCnFyCv7OBc8a45lJ8JF0vN6nqFbpJtFJWYTHrOywjB2XkhAwnG9Pzg7V/d9x5uwoBWVm2bNlS9O7VF/XrNzCWuDwuW1CsUfrjj2moWbOW8kQrVqzEpElTcOLEiXy3FyKpmSGiCnJzPC2TiwX75K7MlJRpjNuCDdBsI1E5m5wnG6BLW02lLaihq+WUO0m6UplebnjV+dz5MUnbZOSIjOdnyRTVTTffiD59+qBixXBs27YNffv0Q3h4RWMJ55HL4jwMj/6e9ScCAgORmZWJTZs347ffJuH48eN5islDUnNJ97kDXSVVLmZiIuXEUpgL5wXDBzZI+vj4wdvHFz5+/vAPCLxiYWpRwjOk2RWnM6URh8gBNZOB28XAbpThIJmW1zHGxMRixvQ/sPq/1Th37hxq1aqFKRJhsX30crksQe3YsU1y5jRUqhSBgwcOYvq0GTh9+rQx91LCJQ2QPfaTkw4oTnckF7woeR0eReMlYvILqYigqk3gGRgBn3JV4ePrD19fP2Op0o1bMb53bGFqIv/dJamlHGdeBp6QkIDp02eId9qhGuHr16uH1atXGXOdx2lBsa/dho3r0aZNW+WRZs78UwS202bYw+tfS/6jV6one3R6p0UEj483xhb0Tgz1/CvWQcP6/eDpHQ7PkFoweYjI/P2NpUovvDaMMoo7oWJvfeUmXiu/tiIgRlDspTN1yhTs338AERGVcfTYEfFYUcYSzuGUbVM0Cxf+q/pSnTp5ChvWb8B6SXmVIRrJSfWXPXlRWSUAiikvQTGSZbkpKy0Je46uhneIeCZ/H7hfRqVOSYLGeWX7c9sPza2F3Mg+Ynt5hfAHDhxSzTonT51ErZq18Ndff6hHh5zFKUGxD96OHdtVt3n29P333wV5tjOx0oFiCiwhYiI0Gu88jjc729LHMO3cEWTFHkTKmf1IOrZZZqQjqQy0tXkbqaTAjLG52F9fSbY8KyOtJYuX4siRo6ouwCx/+w/sN+Y6jlOC2rZtCzp06IgoKdAtXrwEhw8fNuZcDMtM1/JE8jBOLwmRujzzHDo9NRTecjJWQmvVRuv/3Y+ACuHo9ORTqH11D2NO0UBPWsEYzg3FlJyUiIy0ZGQlnYMpIwHZaQmSocQjNTXFWKr04i/XxseFmWNE85YY9MMv8A1h44l4FfH+Da+/AQO+GYeHFizBnZN/R6chT8OvvKWrULqHJ9wiqsCtSjWbKTM4xGYNX32xw7Z5HHd0dDRmz56jOtK2a9ceu3fvcjracFhQ7Ct2StxjudBQUfURcZcrbDbccsO95T/WmOVFyzvvQdX2HdDpiSHoPOQZ3PHbFLh7euGOSVPR4ZHHYZKySjlxww369jPWKBp47PXyOW4+lxUfF4voc5GIiY7CmdMnkRAfZ8wt3dSU5AoPVb5Offzv7zmo0qq12EB7ePr5qumdhwzFzWO/wxmJgKY/eD82/vQTWt51D2749AsllIAaNdHuxpvQ9c67bab6Xa+Gm+elpSZ6p65yY2tYRi+CRZXNm7Zg3959klkmqYcanS1LOSyoXbt2qKdp+fgFKyHOyG9uaIsd5L/qBWw9WTwcc6YsJUgztk6dghZ33Y2ks2ctDxqmpeDUlk2WhYuY2nLsNJ68YA7GzCU9vez0TWRVdCu5LvnkNQXiWy4UPV99A2F16yK0Tl24+1xcutkyeRJmPvwQanXvjrumTsfVL7+C9d+Pw4K331SC8gsOxvWjPkWvt9+2mVrdfTcCKlaCh9elsveUA+8hMaCtqiM+c7dx02b1GH75CmFYtnypU/fVIUFRyYuXLEKF8HDEJyRgy+Ytyqhyw0bblnZc+F2z/sKyjz6At1ykxMizOLt9Gyq3aIngqlVRvmFDhNWuayxZ9DBH6yHnUDYqwguGZRFeD/ZkcQYvP3+JPH4Xz1QPre8frMJ9WySePY0TG9dj9ZgvMWvo05j/2quIOXQI5/bvU/NNHh4qLMwLN4lq/MqFwcPbth+tJMdf18Y50La3bd2O2Ng4lBPR75GwLyExwZhrPw4Jio1gmZkZ6sUYZ06fVg8F2lJxfTngYDsuvJuHO9o88CD2zJ6F01u2SA7zDmYNewZftG6OFZ+Owpmd2xEjYeXpbVuNNYqWinJ1ukgqKbVahQWNpLXcT5ZDnMXNy0vEVAdZGRlIkswzNT4eKVFRSImJQYqUYbJzZMyJZ88g7uQJDPzhRwRXq4r9ixeo6TSp5NhYlTJSU22m+KhIRO7bg9SEeLVObngKLEvZqkrns3q7du6SqCMDlatUwYnj+Xeds4VDXY+2bNmMvft2obIUCqdNn45fJ0y8xEMxJ3tY/mM7gD24S7zLx9q5b+Yu2SJYwpCP0625kTmPKvnChns9IP/NkZRkmVSmoOF1k3vZWu6pLSO0F9qXf3hFFeb7hYWKkGIl/AtBalw8fIKDRGSRl9xjLp8aG2MUCSxkurnDvXIVMRDb6jaLUE2xfHtS3nAvs7KA7bnMncfYvkM7PPvMUISVD0OcHBufnXIEh/Kcs5FnUK9uPcTGxUm4t9VmuFdbEruB2AtzLHUhRVBWMRGKiXDelRIT4QViY/SdktjyHmpMc+AUSxQ8L54fy0sNZORWGWl/mWIizDATz5xW9zhRyt1ZUvbkb2Zqivq1dY+TxFPlFBPxyJZM9vhRmI4etpncChAT4fk1lYVyV6PzGI8fO6GahfgAIiOygpxMbhzyUDNm/I6WLVti5apV+PijkaqlOSc8kRvkaJvyiEshlHiyXCJesbP85bikdBmmOeR/9YonvGdMLLCzno3l33AZZoTB7mEloVeEM7Az7W9yQ3kPc8KXwTz/wnO49tprsXPHDgwceKvqHWMvdguK86b+PgnNmzXH/PkLMHLkqEsac1lfc6/suwLvUBlBXbGSqKTcyD0rQ7cN9HvTRVCHct079ut75NGHcP3110sZ6hj69btRvQzGXuz2Jda2psSkJIgIbbY9sUasJLWiuwIaoeRFJT9ZTqfMwBCW3jg3rO1jb/Tk5CT1PsDYuFhjjn04JChPUS9fC8Yqc3bByY2fu9tlx9oaTVHADCTE49JQjpEYe06wSxK9laMN9nYLKjY2BiY3k+woU3V95wsVc+Pn4ZlnNyONprgR5GW7QSQuNk7ZOd9FERkZaUy1D7sFlZqWqgpnfKiQb3S1Vd7y5EsIjWGNprjjbaOygXbNj1Qw9PMWQSWnOPbQod32f44v8ndzV6Eeu2nYhMG4RlNCYEWcLVLT0pSg2BZ68sTFNdkFYbegUlJTlAvMyspW79bTFB3uct3ZAK4pGtg5lm2sfO4tKdmx5ny7BZUtQuKXEPjVCxbY8qtiLxDJGQLDK8Ijjxi2JBFSrTrqdO95PlVq2jzfvmaOUqtLN9w1ZRpa3nGPMSVvOj81FF2HvWCMaZyFFXAs2tCD2eq8kB9233nuhJ8XoZAc3UlOeJA12nfEkOWrcN+U6cbUkkvTW27FA/MX4r5Zc3DPH3+hxyuvwc3DQ2Ua1l9SoWEj9XiKTyD7IFjgtci5DGk7+CF0euJpNRxUuQpu+3UikiTc3vjbL5dss3Kr1iK26fDwsTz6UFPEV6dHTzWs4PK5ygkczz1Nfe3CRnmirEL7tgqKdu+I83AfPnz4CA7kFU9aWbVqJULLlVMfxlq5YqX6UkZuwiUsqZ8lrtIYzw1vXNObBuCWr8fCOyAAG36dgCNrVhtzSybVO3ZGvWuvxaJ33sbyT0Zi77/zYJLr3+O1N9D6vvtR++qrkZ6QgC7PDkOz229HcLVqyExJhV9YeVz90stocdc9qNGpM87u3Imqbdvjpq++Fi/XFOGNmyAzOQWVmjXDlkkTkRobi2veeBOt7rkPNa/qgtSYGHR/+VU0uflm1Ts/NTpG9eBOPheNA4sXonqHTrh6+CtoftsdqNS8OeKPHROhPoU2DzyExjfcpO535J7dqNe7D7pLJtB0wC2o3LIVTm/digy5x2WBGC9v7Ei7tD3VRzKoq6/uitDQMBw8eAAd5VryPSL24EAZKlkUwYavLFWOcoaKjRqj/0cj4RMcrPrqtb7rbjyzer1K90+dAU9fS05bEuGDkBHNW8A/LAz9PhmFq4Y+g3LVa6BBv/6o2KSZiK6PMuIIMdrAShHqCdR6fa8TMVRDxyeG4LZfJqBh/xvgX6EC/CRVadNWCaVax47i3RrilnE/quWCxWs1uuFGEVpz1Op2tfJClVu3hX/5CqjbqzfqXHONhKHVMOjn8WjzPxF0jx6y3RuRnpSMdg8/grA6ddDg+v645cef4eHphes+/gQtbr8DFRo0RJsHH0KmLh8jS2zc+q0qNe6AvdstKLpAKorujzUgzlChXgN4iWciLGiXq1nzfKrSurWUqyqpeSWROj17otW996knkGPFG5DUuDgs/eB9bPz1F6wb952a9sM13bHhlx+Vx9gy8TfxEruQFh+PIBHWkvffU8vsnDkT33Rqd9HDlbHGawaSxTMtfGuE2ubWKZPVtG+7dML2Py6EzxR3uVq1sPjdd/BxrWr4+fq+SJfC9eoxY3Dkv1WI3L1bvXIgKKKy8ny0nBMbN2Da/+4T4el30IuRK8ehPIiD2C0oComK5a8jMWVOds2ZhW0z5MbL+ulJSfi+33X4uHFDS2rWGNFHDhlLljxmPTsUX7ZtiaUff4B5rw7Hyk9HoUbXLrjpm7ES9l1crmFmwjJXpyFPISs1HRlyLei9rGG38XMRM4c8hnXffYu6vXtj4Pc/oEqrNnIdjZm5VvD09VNlohgRISOBlOhz6C7hX+/33kPFxk0Rd/SoWo6r//HEozi1aRPaDH4A/5s9R1WylHUsNm6MOIjdgnJFB9DM9DTMEWNb/8sv6onKfu+9j6ToKJUyHGxAK260lPC199vvqvcfdBv2EhLOnsGm8eNVubFcjRpINzoSs9zU8Lr+CIyIwNldu8ToD8LDz/JccGZaqnrQjl6OtXXlavJhGAvXvPYmog7sx7bJk1XFRLkaNZFhVOmyIqSarGMl/uQJ9dBel+eeU+Wo60d9pkI6PgpxYv06tW9C0TWWMu3a77/D8TVr1Hb5+HhZh2JSDkSGC6pbyI39grKihOW8uvik5uxXX8KMJx7DjCFPGFNLLmxGIE0H3aoqCfhbpU1rKUd9ig6PP4Ez27djxx8zsH/RAvV0amcpW7GSYMP336N6hw7oJgKL53vgZRsZqSlYMXIkKjZtil5vvYMQKYNZoWD6f/oZWg8ejOPr1mHPvDnY++8/ytN3ff4Fmd/RsqAYwtldO7H6qzGIaNUa177zHqp26IjNv/2qBMN3NLDWMC3B0tul+W23Y+C4H1CtUydslIyOj59riHM2bvfjG0uWLlRfheNbYZ58cih27NhhzLlAEz9f9E9PyfMlkaURGmnOF4JkZ2Wqgr0/P5Ts7oFk8b7Wx7u9A4PUW51SYs7Jim7wCw2TcpaUYZgbyrJ82I73wS+0PNISE5CVmQFP2TZfO5CdkQH/8uFqfrKEcNwP8QkOUV4wJTbG8h4F2Za1YoHvcfCUlCz7M0vo5833r4tX4j49fXyVgLkO98cIgdsoSxzwD8SUuEvfG8Fv8f700zj1dY5Tp06hbduO6rUP9mC3h+In6n1lo4GBAeDXuzUWKBYW+K3JasxJ56LUC0dyvishLSFeCUzF6GLgfLcCwzA+tUwxEc5LOhepwj8uky6GTjGRpKizSIw8c15MhOJIiYm2CCk19fz+CY+H63A7hCJVAhYoJsLl409JiFjGxJQfzLRo596S2ZQvzy/IGzPswG5lsLc5Ow3GS8hmqfHTaEonzNRo5/xU0xkpC8uo3dgtqF07d8vGz6oPTuu+fJrSDJuF9oud850Sq1evVgKzF7sFxZ1ww1lOtkFpNCUJPu+XLfbuaJurLgxpNC7E7lq+MWM+R4uWLVStx8iPR6lv6uSmToA/OpiztUo1JYIzPr6Yfy7aGLsAK+BeeXU4mjVriiVLFuOZoc/D185ucS4VFF+9NHrUKPXuCY2muPPPvHl4+plnjLELFBtBDRgwAJMnT1YPImo0xZ0pU6bgjjvuMMYucDmC0tGZRuNCHBBU3t5Loyl9OGfvTnkoLS2NxjYOC8qRRi6NpqTirJnrMpRG40K0oDQaF6IFpdG4EC0ojcaFaEFpNC6k2AuKLx0sjs9gsRdyLD+gnFzwuzC4jK3vaRVXWJPL99frGl3HcUhQ56+vg9eZgvjwww/x3HPPYcSIEZg6dap6WNEeVqxYgWuuuQYHDlza1clV0HiOGm8Cygu+fnrPnj3ql8yePRvdunXD8uXL1XhOaIiHDh1SouOnf/73v//h008/NeYWT/jZFj7/Q3jsN910E06fPq3GyyJFVm3uTK7FT4f+/PPPmDZtGiZMmIB77rkHL7xgeQc3PQ9zcC5DkVm3zxyd06KiorB169bzAuRTlJzOXy7LZJ3G7eQ+Pj4MmXvbHLZOo9FT4Pfff79an+PWfTPRQ3K9uXPn4uqrr8aRI0fU/vbu3Ytvv/1WdQi2bo/rc/n58+fjzjvvVJ/p52PU/fv3R+/elq+Jcz4FzGTdds5zIpyWc5s5n8mhoLmcdb5V4MQ6zfoAKLdjvbbcH4dzXm/rtjmN92PcuHFq25UrV8bdd9+NwMBAtZ41OrDul9u1dV2t55H7mEsqxmk5RJGGfA888IAyxM8++ww//vij6mi7atUqtGrVCm3btkXr1q2xZMkSdZNuuOEGNGjQAG+//fb5m/Pvv/+ia9euaNSokfIOa9euVV6jS5cu6Ny5s0rWXJZs2rQJPXv2PL9tepX169ejY8eOuOqqq9R3VOkB33nnHaxbt07lyvRU7733nprfrFkzPPzww0rU77//vvqy3c0334zNmzdjw4YNygD52759e5X4QW+K86mnnsL27dvRp08fLFy4EN999x0mTpyoDI7XoGnTpmrbixYtUh6O+2rSpAm6d++OjRs3qmvSrl07dOjQQV2bXbt2GWcEfP/99+p8ef5169ZVhk9R/fXXX2o616PId+/eraZx2zfeeKO6lkOGDFHHzuvB4+Ux/Pnnn/jtt98wY8YMjBkzRi3DY//ggw9w/PhxdQw8Jwpl4MCB6vh5j3r06IHGjRur7TAD4b3s1asXOnXqpNY54eBnYEoN7G3OJOUB9Zs7iYGaFy1aaH7l1ZfMf/410/zN2DHmOnXqULuXpAEDBpgl55IM62Lk4prlhprffPNNNS4X3+zn52eWG24WIzPHxcWZDx48aPb09DQ///zz5vHjx5sldzSL+MzffPON2c3NzbxmzRqzGIBZDMQsYZRZvIX5uuuuM//9999q32KwZvEIavtEclXz448/bhYPoaaLAZrFIMwiUHO5cuXMIk6zhKJm8RJmMRKzCM9Y06y2LwZknjx5sto2j4/HValSJXUuInizeByzGKpZxKKW+frrr9V+xLjV9kTcaj0Ro7l27drmwYMHm8U7q/MSEZklF1dJxK22w32KkZobNmxoHjlypLoW4tXNZ86cUdu0IqGz2d/f3yyCMX/xxRdq3yISs4jULKGxOm4RmlkEoe7HHXfcYRavqo59zpw5Zsmc1PXnsYWEhJgfeughNU0EbR41apTah2QSah+8J/fdd5+65txHeHi4uh8iHHWcPDfJhMwiIrNkXuevg4SPajvFHev9zZ2Cg4PNH3z4vnn2nL/NL770nPnkyZM2tWErFeih6B2OHDkk7s91Lnzfvn0qtxZhKm/F3FMMVoUWDIOYu0VERCAsLAy1atVSr3BiDskwg692CggIQJs2bVSuyBzxiSeewNNPP61yYjFAtQ8eNysNCENMbqNevXrK49D7MbcdNGiQKt/lhOv369cPffv2hQhbTbOGULZgOPfoo48qT8qwjh4zL5jjh4aGQoxbPQ7AxBCSHouf82eoJTdFeUoxZBWG0YuKYRtbsMBrUKFCBVSrVg0iPOU5eYz0ZDwvEbB6FRaH6YHpdUQMyiPRW/LaMcS1Xu/84Dbo6fmoA7+XxGvMMJD3hufCqIChLa8tj/ett95SnqqgMmlpxa6Q75QUTl1RS0UhSQ6mDJo3gjf+n3/+QY0aNTB06FD1TBahwHhDxCspg2AIyGdUeAMZjjDUY/jG0I+CoMEwtOK8//77T22Dny+lgVJYrBChOGgcrNx444038Mcff2DBggXKgGmUNGweH8MZhoXiTZXhWeEyNNpt27Zd9N1VhpjDhg3DL7/8gp07d6rjZbmJYeL+/fvVrxWeLwv6y5Ytw9KlS1X426JFC3UNWE7ktrkMKzJefvnl8yElw9Gc0LCt14q/vDZMFStWVMfBChBmCpIJK8PnteW5UlTcF0XEyqGcGQU/0LxlyxZVIZFTZAwPuV1mfBQ5MwOO8/7wXBkOUkwUGcuNPF5mHAzPyyIFCor3rb3E5fQKFo/oOHzgsHnz5sqYaciM+1kW4HQaOQXz8ccfq4e9KC7mghx+5ZVXlFGybECDkZBJeTV6GYrptddeUzfv3nvvVTeb3oKxPaGhsSxz2223QcIaZWAUHA2G0ygCTud71yhwipXCrF+/vqpVfOmll9SyzG0pJi4jYY4SI6dzmMI/fPgwbr/9drz44ovKm9BL8Vi4XXpOnjPLVhQKH8B85JFHVFmFy9ODcrh69epqHZaJKAieM70njZ7Xh+UlK8wkKEJmGDxmlpnojcaOHau2w3Ib90GvwUyCAqaguG2Wf1gG5AtLn332WXUdeVyE14Se6KOPPlLny+0yY+D+eC84zvtGMX/55ZeqHGr1fDxOZiyPPfaYus48XnrZko1ztl7gE7sMC3bv3oEFC+dLAbk1Tp48gU9GfmazGjuvJ3a5XeaG9Ba8IbxhNAjC7TP8Yw7JY2DifBa06RW5LeaYvLlcl9M4j8twHrdJQRKOc3pOuK41J7a+/ZP7I9bluQ1O4765DPdh3af1l1j3w2V4DITHbd2e9ZgIl+V5c11uj+fLedbzte6L58Tj4/Y4P+cyxHqMVrgc53O7PG6ua92O9dpwWMpI5wXKTIGZC70vxcpleDw8dm6D+7BeJ07j/qzb5XFy+Zz3wHoc3B+Xtx4Lj9m6PabiTn5P7A5/+QXlBJYuXeL6J3ZzysyZqkSr8bCcwF+rmAiHpQCsbkpO4+Evp/OXJ2O9kVyG0603jNM5bl02N7zh1vncl3V/OZfnNnhs3A+PlcfC+VzXalRMXIaJy3MZppzby2lE3BaX5XwOW+dZl7duh3A7jAByL8OU+5w4bj0mLpdzO9Zrw/3Rc7Ds+Mknnyhvx9DTGhVwGW6D52fdp/U68Vi4Peu1ILnvAeE06/KE83gsOc+jROOcg7K32tzJrWuuGDRwhpNsP2M5Z/r06ao6XVO42CcoracSCb1OSEiIKmPRw2gKHzs9lEajsQctKI3GhWhBaTQuxC5BqZo9XY7SlCmcM/gCBcW2FDYOst1Bo9Hkj10eii3oScnGg3TONERpNCUMFZQ5YeoFCoqNe23atIWvr33fGNVoyjIFCoqt8ddc00sEZfn0v0ajyRu7Qj6NRmMfWlAajQvRgtJoCsDsQBW6E4LStXwaIXcVWEHjJQ4ev+UcTPJnL6XaQ5kTopCx6FtkzPoY2Uc2w5wUg4z5Y1QyJ8epaekyL2PJOJhTE4CMVGSunozMzXOMLWguIS0N2RPGw/zc40j76ks+GIXM8T8je9gTSFu4gO8jQ9Y7b6jxrNX/IXv7dmQOfxYZLw4FCvFVcMUFuz8J+uWYz9CieQscP34Mn376hUMPGF4psg9tQMbi72AKCkfWriXw7PkYMjb+AfewmjCFVgF8g2AyZyNzxwJ4Xv0gso/vFEFNglvT3vAe9I6xFSE7C6nLxiF9018yLAFAVjbcsuRa8Xrx15hm4ms3ZBgyfH4ehzmN49kyzDdy8Vcty3FjOsety6pknZc7GdOZ1DZzTMu9nHEMJmOcx8d3g5iMdc3W6Rw2js8kP9Z1TQHl4btgJUx168pEC2mnTiP23ttR8eqewE9jkPb1BHiKeNweeAxpUybi7BsfIHTC9/APDEZ2YjTWe1ZAG3/Afd0amHv3hOmD0TQ2Y2tXlvweMHzppWFo3qIFli1bimeGDrO7lrtUeyi3Wm3gff/XMAVWgFu1ZjDHnYJn0z5wb9wdWUc2iYgGw73tQJg8fGSZcLg3vxZuDS88bm7FLJ4r6+yFDITmQLuzRr/8uWAjMnZ+gVyYZUaetpRjBRq3rfVzkvsgcmxXHQt3ZcyybspWWcC6mmUVyVQto4rsePE2/60yxix4hIfDc8qfQPceyAwNh0eAH0wVI4D7BsMjPRlhPa6GaeyPMLvL1qrVQM1RHyL7tTdh9pAtV68tO8lxoCUE3g57Kd2VEnIlsrYtQNb+VfC65zM5Ww8j95Xk5g4kxyP9lyflxjcVwTWBW+VGMHnz3Rm5cPeAyctP9CCXSyVZl+vzCVYZNp2fRiuWX45zHsfPL8dx6zz+Gsuq5XL9uvPXVpJ51n3z153ryLFZl+e4DKvjlHGzJJNaj/NknOdhDHNbaj013TLOYet8tawkt4jKxkWw4C77CI0Wod13O7JfeRtuFSpYFCvXlF7Oz9cHvl99JqH2P8BzwxFevhzc33kFGeHVYXrkCctGShjWJ5ftoVSHfFm7lyJ90gtwq9EKprDqcKtUD5mrfhNvVB7uTXrBHHkImVvmyvA1cK/bWXmo9JlvS/iWcXHIJ2QnnkN27EnDeCzXSXkANWhcN+v1s06/6HrKsHX6RcP8NQZyzjMGbc7LOWwMXljO8mv1Thcte9G2+JtjXA3Kfzl//fzh1qqVRYBWTp0Cbr0eGWfPwL13X5h79kP2p++J52+KlGOn4DXkGbg9dAeyrr4GHk1bISM2Hu4Tv4PbTYOA1u2A+x/hk4/Gxq4s9od89r9TolQLyiwhiznmwhtMTZUbAjEnVQjnFtEQ2ZEHgdREy0yGhVKuMp87JrZkhpsIUHMp2UnJiFq6HOmJSWo8rH0bJbjYJcsQel0fuebxiFq/Sc3zCS2n5qVGWl6lFli9GoK5PL1hMaAwBFU8zqyQMAWJSGq0PJ9MnlJWCq8NtyqN1U11q1j3wnxWUnCdsGpaTPng5u+H8H59UPW2gSr51qwB32pVEXHvXfAuHwaf2rXOzyvfqwfK9+h2fjy4o3ioYiKmwsLJs8vbk2k0ZRkHBaWFpCkb2KoRtYcCBcUXF65cudzy4kYZz6eYpdGUeQoUFCsq+AL97Ozi9QVBjaY4YlfIdy7qnHrtrkajyR+7BFWnbh31ml2NRpM/dgkqJCT4kndsazSaS7FLUI50vdBoyjJ2CepidDWfRpMXDgtKy0lTFnD2C7iOeyitKE0ZwNk2VydCPo2mbJFfp/HcaEFpNPmQnZWNXbt2qs+w2oMWlEaTD+zTFx19TnXBswctKI0mH+iZdu/ebXfYV6SCosr5NXGdbCfePHtvHK8ll7e1HZ0s19Jer5IffBV5kyaN7W6LdUJQjld90EjYF5Cf6udncXSynazXqKB43bosU+5t6GRJOe3NOWjnZvDj34GBgZZJdmCXoM5LSAYclxPO5xiagrFmPnl5KquXt9eTlXWsHuuycKCjkEMeSt1CB+8jb/xln1AZJK8MiGLTOIYzmbmz+ZWulCimuCL+1xQ99glKRxeaMowjXcO1h9JoCsJsv6RKv6AkGE49c/Z8Sos6B7PE1ElHjyErJcVYSOMoGQmJyE5LO399M+LjjTmlDwf05KigSl7slyU3fcWtt6u0pP+NWDZgEI7N+ANbXn4Nm156GdlSyE88dNhYWmMPzJCW3nATzixbhsQjR7D+yaew9OZBSIuMQtz2HUpkZRUnPJSzL1iyE7Yj7NmDjN27kSmGbmYuaCcxmzZj1d33GWMW3H180GvZYpUqX9cXrT/+ECmnT6PxS8/Dw9cPB374CafnLyi9RiDnlXnwIDJ27VK/ZuvX/Asg5eRJEcktxtgFzJlZ2PnRJ8hMSVLC4lthI/pdh3LNmuLY9JnY//2PyHaiVq344Zw92C0oq72p38KwvewsmDIzkbF1KxI++wwJn36K+I8+ROzLLyN5ylSYC6gujt2yDVGrViNOhHhm8dJLQpB4MaisjHSEdmiHiGt6Yu+XX8MzOBjn1q5H7cH387FkY8lSAmsJ5XpmHTks1/EjJIwerX5jXnwRSRN+RXZMjLHgpSTs24+zy1fK7x51LZNPnjLmcN4+JIowa911txoPqlcPCXv3wTMwEPG796DVh+/BrZi8u/xyoJ07Y+Z2CarwMm/ZsLrxGTAZ1cSmkBC4V6kCU1AQzOKtsqOjkTJ3jhJW6pKleXqs6E2bEL1lMzKSEnBm6VJkSoyfk61vvoOIntfA5OaGoMaN0H7cN3D39YFf9arY+cFHOLdmrbFkScZyPU3qekoGJeNuAQHwqFkTJsk8ONucmIjUhQsQN2IEUmbPhjnXdSLxkilFrVkjXihFXctUfiBAoEfaNWo0wtq3E5GdVEJy9/VFSxFRSMsWYk0m7PpktAqpSwVO2L2dHqoQFEWVSg5qufEyyk+oSM7mUbs2gp57DsGvv46QDz+E3223wyRhW/a5c5KzjkfiuO9hTk21bCMHte+/D3UHD4ZvpQg0H/EGfKtc+AxLZoKIbMUSBDdtYkyBCGid8mKn5s+XULAPTs6dZ8wpofB6qo++WcItfsqG19NUvgICn31WXc/g996D//33wy0oGNlxcUj+/XckjPvOsm4OqtzQH42GPg3v0DB1LUPbtFbTsyWDC6xTB1mJyUg6clSEt1dNSzxwEEckisjKSEOtwf9D3LbtavmyiF2CipHwINPpPlE2kBt4XkjiMfgtIvXdJCKhl8nPD26So7pXqABfic9DPv4Y3l27Ku+SvnEDUufOvcQISEC9umj26qvG2AXSY2MR2qo1fCqGG1PEOCQXr//k46jcp6/KUcPatjHmlEB4LXg9+Y0m6/WUX2sLCjMkN/H47hXKw6d7d4R8MlKuaz+YvLxUiJ049luYc9V4epUvj5bvvG2MWWB5tPHLL6LBc0+j+qCBqHXv3fAM8Feiav3JR6jY7WockAzPO7yCsUbZwy5B7ZEQIDHp0tDAOSw3n0Zg+dCXpALKLzQG//vug0///iqkSZZQJX3tpSEav/5Qqfc1xtgFfCtXRpeJvylBWqlwVWdZvjyavPISGr0wDBHipUosIiT1WU+enx3Xk0Lyu+UWBDz+hBJe2prVSJXQLice/n5yTfoaY5dCLxZqZEJBDRvAv0YNVBt4M+o/9STqPCBl0jKKXYIKE8Nz2TefssU78ebTI1m9kh2YPD3hd+ON8GojN1FCxeQ//0S2nW0f/FIfKyBs4Sbb9QotZ/maX0lEeSeWP0VEDlxPfrfJS8o9Pr17q9HUBQuQLeUre3H39lbXLie8ht5hYXCTeaWKS4OhPCnwDrD7eseOneDj7WNMcWDrNmBYosjhLexGcl7fm2+GW0gIss6cQcbevcaMMkyOMqjDNZW8ntddp+5FdlQUUhcuNGZoLDhu6wVaNR+sqlmzFjwv8lBOioq5qfJOzE0dvPkGHlWrqooLZGUhfflyY+oF+JWQstO73ertnb+ezJwY/pHUOVI2dWVZuQzisJu4PP9krO2Md7IihuPdtp0aZONvTk6ePIlHHnkEUZLblgmsN8NJMVnx6Wkpd5rTUpF55KgaLvM4aeiXYdlOcP4gL88APOrVVb9sk7K2S/G5q/nz56N69eoIkzjeivUxiJyPQ9h6OC+v+QUNc5+zZ89Wwzmfu+H8X375BWPHjlXjth7HyL3PnNu3D2P5yxSUydcH7lJOJuYky7dzHSU1NdXmOeaE18eZJ2h5Xex9ponRyZWMUIpWUK4iR0s8GxtJkhjCrFmzsG7dOuzatQt//vknhg0bhp9++kkZ9W233YYlS5ZggRS+b7/9dnz66adqPTJ16lQ1bcKECVi6dCnuu+8+jBs3DjNnzsQ999yDadOm4ffff1fb4DD39cwzz+DBBx/Evn37cOrUKfz111+49dZb8eOPPyI2NhYPP/wwfvvtN5w+fRrjx49XH0fmuJXvvvsOd911l9oHj/fee+/Fm2++WaBR2ubyBCUWC1grGAxR79+/H6+99ho+/PBDREZGqmn58cQTT+Do0by924kTJ/DYY4+pe+JoxhEdHY0vv/zSGMsf2sDixYuNsaKnaAV1mffdijn5QpuJyRAXDZc3qm3btli9erUy0nPnzuHaa6/FxIkTcf3112PSpEkIkTJDp06d8MEHHyhhkBo1aqBXr1744YcflDD4LoJWrVop8XFe5cqV8fXXX+P5559XQvvnn3/EKZiUwTHn5AfpIiIilEAoPIqYuWT9+vXVMXEb7du3x1dffaX2x2l169ZFvXr1lMFS3A0aNMCOHTuUoO3HuKAOGuglyLmcb4dys2zz+PHjKnOiEHjuc+bMUZnAmjVrVMYzZswYdd6bNm1Sxr5hwwb1diAOHzlyRM3nPfnoo4/wxx9/qLbMihUronPnzkhOTj6/jbNnz6r98Xp9++236lpwu5MnT1YZETMhD7nHvAd79+5VGdY777yjMsFPPvlEhfc8tlGjRql7zrCf618pithDyY2THNiccXmPcWcatXts/GWbCvn333/Vp+958VesWKFqJ7t06aJuIm8WL3zPnj2VV6HgKARrGDFixAhs2bJFGTpveJUqVfD5558rkdFI6OF8fHywc+dOtYy3t7fKtbdu3XpelLy5e/bsUaEPv6UVFxen9hkfH6+8GW825xEK9qmnnlLbpkcKCgpSXo7rcD8Ok25/B2JbZMfEqp4TxC3MEvoRGiePu0mTJsqweS4Uybx5ll4lP//8M1544QX1qSNe42PHjuGbb75Rnoq/vG48V2YefHSfQqMnY6ZDT09hcTnCUHD79u0qU2PGR/Gygomio8dnJsbrxQyH+6EXWrRokQq5mREx83vxxRfVtq4kRSoo9s1L+GYsYuQmZJ0tOIywhVluXNrq/9SwZ7Nm6pfQCzBkevnll5U3aNOmDZo2bapu9ltvvYWDBw8iWAT48ccfo2XLlhgyZMj5tjWKjDf9oYceUjeWieEJb2S1atXw6quv4v3338e2bdvw+uuvo3fv3mjRooXKwVu3bo127dqpMJGCefzxx9Uw90/vyETPxuP73//+p/ZH0TD04XbuvPNO5ekofIaF9J52I+KO/+FHxAx/GVlGfzuHkW0k/zFT/bIB3a1yhDEDymvSuwwaNAj+/v647rrrUKlSJTVcXspczEyYKdF7MGPgteY063vsKKLQ0FCUK1cOQ4cOVcO85ry+zJQqVKiARKPtiyLj9a1Vq5YSGtfv27cvAgICLio/UdzN5L4z0cNzX++99566HxSg63DO65vEFas1GcLwJHLDaSdOHMfU3yeJ8bSRXOYwvvj8KzHQQ8YSFxgwYIBy1Tkbgbm+NWdmgTd+5EhkSk7lJ8v63nijmu4IbHtib3S5ygh8+ml4ygUujfB9cLYa03ktrffJnJGJuBFvIkvCMu/u3RFwv+M9FDIPH0achFDqekom4tWxo5rODGjt2rVK5GTGjBm46qqrlJh4j+mhmRnQ63A5emUKjsKgWCiw/v37o1+/fqrmlZkYPQnFxG3SyzEk53DNmjVVaEkvSG9NIbNsai2zDhw4UHmjxo0bq/1SuIxAOMwKKO6f14qJgmOGxZDdCpflMeVmypQp588vJ8x4n3tuKFq1bonly5ejd68+cvyt1X4LokBBMXdYv34d/vtvBVrKQV6OoEjy1N+RMmc2TBKeBYvncA+/0L+uIOjhePOzJKTwEI8SJDk/+6mVRuwRFElbugyJP//EC42AJ4fAm92B7Kz1Y4VO4tffIH3DetUjPUg8MXukuAp6mvtF5DRaiuJKUZSCsivk27hxvYrvXYFPnz5wr15dFYLjpUCeuy0pL/iYQdK475WYTJJL+t91l00xbd68WeWuZQXvrl3gZbTLJY3/BekbN6rhgmBzA3ubp2/epMZ9r+/vUjERlmlZEXPzzTcbU0o/dgmqUqUIePtYFG7DiTmEW3AQgqT84Caums86JUjhP23dehW+2ERy0Sxx7XEjP0ba2jWqD5q/lEVUb4kcMMRg/M7QhCEAQwuOW8tEjNUZ0zPOZs7JxGHm+FyX41yewywUcxvWbXI56zCX4zr85fZyLkOs2+E8hiQsKLPAznFO57BLkdzX/+674C7lGHNCAhK+/FIigDmWBzJt3Sw5XvbZ43VPlYI+x31vvBle7doaC7gORj0sJ9FDlDScNXO7Qr6NG9dh5SoJ+Vq2wmGJub/8wvmQz0rm/gNI+nWCiuEJBeLRsCE8pNDrJoVYGkTW6TMy/5DkoptVlxiTrx98b7gBPr17XZKbzp07V1VpsyaKhX+2Q3HfdPWsvmZtFSsfWIBlLR5r6FhxcODAAVUFy3VZycDKAi7TUI7lpZdeUlW569evx7vvvqsK56wFZHxf2xA0QxnG/jxnVumyIM0CMgmXcJbHxW2wepzHwmms4LAVzuXE3pDPSnZkFBLFQ2VstzyL5FGlKjyaNoF7xYpwCw2VGylCij6HTDnfdDl31YAr99z3+ustXY/sDBNLIs6EfM9KyNe6sEI+VkVTcK7Eo24d9dCbd+er1M3k+w5SJWdNFKOMHzVK5bTJv09Fuhg5xeQeESFlrhHq+ShboQmrwtk420dCShZ2WehltS/bOVgjxOpViogehI2o9BZstGU1MMNEZgRclo2ILBRTlKxBYkMhp9PbENb+sYqb4ly5cqXyZMxkOJ+JtXWjR49WhXUWkFnTSAGzbYSi5A2i6F2NW4XyqpKGITXJPH5MeaCkX35Rj78nfPG5ZGC/Iu2//5SYKLLgN0fATzKJ0iymoubK+mLJhQMefkiE9QZ8bx6gqsE9atWCmxile7Vq8KhXDz7XXIPAIUMKrMDo0aOHquJl1SurqCmaDh06qPidIR8bXZkpWKt9aeSskuUvad68uUqcx9okdhuiuNhQTGGwPMBl+Vu1alW1HKvU2bZFb8bqcXZ7oqC4H/5yOxTjoUOHlKhZ/U4PxhywMGBG4y85boh4QL9bb5WyVVvx/HVUZuTOTsVyPb27dZNr/ghC3n4bHjVrGGtq8sf+ANCukG/r1k1YtmwpWrRs6bKQzyYSz8sKah2VZzLnZPxtRw7KdSgcngfDJY6zvEJ3z2k8D3palnk4n/M4nvPXui7JOZ3bYLK1DsMA7pfwvDlsncZl+Jtzm5xnT5nC0ZDPJsb1VIk4cD1LE86FfE9LyNfKCPmulZCvjetCPnLhFtp5M52BN1sMSXUnYqIh2nnzKQYaoNVgaZC8iBynYXOY06zzuWzuX+u83NO5fu5p1l/rfpmI9aLz1zqP+7UeD9crMrgvXkMnrqfmAo5YfBHeXY2m9KMFpdHY4KKo2gEX5ZCgcobjGk1pxxlb1x5Ko3EhWlDFlCKtvNC4jEK/azmrojX2kd81s9Yiauzncu3P7mYKwS5BXdgchxwPLK3V0Rr7YDU9RWULGgfna+yD18s5QVnsnGLiQ7H2UiRWbm2PoSHw5CgunS5NvDZsqypIMMygrO1btrajk+VaWtsH88qc7IEdAY4dP2aMFUyRuQ2elNUQaDQ6XZp4bWgM9mA1GFvb0clyLXmNLhf2sNm5w/LqA3uw7+7l2Ba363jQp9GUMAwjd3dzV30y7fVyumCj0eSDm7sb2nfoAA87vZ0WlEaTDwzBw8MrXvTllvzQgtJoXIgWlEZjE+dqCpwQlK6S0JQVHLd17aE0Ghdil6Cc6XWr0ZRknDV5uwSVlZV5XlXqRwtMUwZwxpHYJSh+2iQp2bnvBmk0ZQm7BMXXZqWlXt4XMzSaskCBgmKXC34WJjAo0Jii0WjyokBBsaW4ffuOzn23SKMpY9gV8l3cMbB01kiwmz7foccPhJXWxPer25pub+L6fLegIw/clVycO0e7BFXaoYFYjYXCKq2JjyLYmm5v4vrMdHityoaoHEcLSig7ua5rsIqrNOOsOTgsqNJod6XdOAoDfc1soz2URuNCtKA0GheiBaXRuBAHBMXCky64FwYZiYmI27EDKSdPGlOA5KPHcHzGH0g9fUaNp0VH48SsOcjOsHw6R1PYOGfvTngoLarLIWbTZmSnXyyKY9NmYNPwV3B8zhw1zmWWDBiA6M2bMa9LVyQeOIgl1/XHudVrsG/MNzi3dh2Sj59Qy2qKFzrkcxBzVhaS//4bSRMmIHXePGTs2WPMsY8tr76OjLhYY8xC7fvvQ71HHzHGAL+qVdF1yhQ0f3sEvIJCkHLqtHimdLj5eCsPdfyPv+AR4G8srSlOOCQoVpmXyeYannRWJkyZGcg+fgwp06cjdeFCJE2ahPgPPkDM0GeQtmQpshMSjBUuJXL5Sux4+z0kHjmM3aM+w5nFS405l+JdoTy8w0KxevDDcPP0RHCTxrj6778QUKuWEpR/9WpIizqnxK0pHIqsHapMYRUSkwybTSa4V4qA/333wbtTJ3g2bChX0A3Z4nESJ4xH/McjkbFzp7HyxQTWq4vKN/aHV2goKvXpjeBGDYw5l5KZlKTestP87TeVeKLXb4BflcoIbFAf6bGxiNu5C3u/+ApnRcRlkWz1l6X+l7ui/ooLWlB5YRUTf0VIZnd+UlOStzd8evZEwKOPImj4cISIiLy7d4fJzw9Zx44i8euvkXno0u8P+1SqiHItWyCwVm2Ua95cxisZcy7l9PyFWPPIY0iPixMBxcHkaXk1c9Sq1Wjy6svKgEKaNUHSseNqelmCQspChvylSUpVv2ZDWMUBLShbiIhMEk6xS7DZzd0ipjzeHOpePgwB99+PoGeeVV9bz05MRMJnnyHr5CljiYtp9clH8Ay59CvwQeLtyrdtp4Yjru2N6rfeKsJagPpDh6BC505qeq1774JXcBAq9+0rh2hGlf791PSyAkWThUykm1OQbI5HkjkWU83fYze2aEEVa7L5tQW5RXxbqJ0vOPSoUxtBb74J9/BwCQHjkDztd5gzM425F/CR+SYbbyENrFtHeTDi7ueL6oMGouGzQ1G1//Vw87J8ENurXDkl7Mr9+qLuIw/Bu3x5Nb0sYTZniU9KETHFIN4ciR3YgCcwCKdxVO6Y/V/JKCy0oHJjzpYwT0IIk1waJgdw8/GB7y2D1BfXM3bsQNbhI8YcjSuhcBjuJYuHusE8AF5mH3yGN0VoqWrulUQLKhcm5Z0kvLPTM+XGu11beFSpCnNaGpL//suYqnEVbnCHB7zU/6yWCDD7YYT5AyzHAszEeAkIr2zDtxZUTlgBoSohZDiPMlOBiBD97rhdDWZs2YLs2IvbnDTOY+KfyR3e8JW/IPiY/NT0ALM/7s4ejFF4XYT1r6q4uGycdHQOC4r2Vtph9fjl4NmoEUxGuSdz3371a4XPEiUnJyM1NVVVLFwpkpKS1IOCVnhMPDZOL87PhikPZfKGnykIAQgTX+WjKiquNvdEB3MXjBZRRUqJ6nIrKbi2M5dBeyibXJ6geCfcKoQbgxfflTFjxuCFF17ABx98oEQVHR2NlJSU88YcFRWlxklMTIx6+JHT+Qi6VQT85XoJCQk4d+6ceoqWJCYmqnlWOJ1COX36tNoXlyXcxhdffIEjR46o/Z48eRLDhw/HsWPH8Ntvv6lluS1uv7hBL+Uuf17infxNwZLKwdMQ1YPZj8FfvNX7eB4JiL1sUTmDFtRFuOgG0MO5XSrKuLg4ZbAjRozAW2+9hT///BO1a9fGVVddpYz7uuuuQ7NmzfD4449j3rx5aNeuHTp06ICPP/4YCxcuxOjRo7F48WLcf//9ajl+CKxVq1YYOHAgtkh42bBhQ9SsWRMbN25U+1u1atX5ZVq0aIEmTZpg/vz5eOyxx/D111+r7X7//fdq3uTJk5X4uX2Kuk2bNqhWrRr++ecfta3ihMnipyTk81eCChBhcYq7zLnP/DCWYa6UpsYokRW1qLSgLsIqgsu8CWKY2eJBSM4qcnoVfj+Xn0al8c6cORNfffUV6tevj2XLliEkJARbt25VHqJChQrK0G+66Sa1Lj2V1RNx/TVr1qBp06ZYsWKF8koTJ07EgAED8PTTT6thK3fccQfeffddPPjgg0qou3fvxowZM9Syx48fx9q1a9VxUJRWKKKuXbti5MiRmD59ujG1eGERkJeUpQIl/AuVZHnNXWVzFTyZ/Tx+x09YjUVyJ4u2Kt0JQdHYit6VFhXsH5d14oQMOH8jMiV0Mhuhl0ftWuqX1KpVS72ObfDgwXj00UfRSMpaNFp6FIojICBACY7pwIEDiIiIwNixY+Hn54ePPvoIkyZNUtvh92OZgoKC1PdkuXynTp2UEH799Vc0b95cLUcCAwPh6ytFeFmW2+EvvSJDOu6zevXqeO2117BgwQJjDaBjx45YvXo1Pv/8c+X1iisUlafJB/5g6BcKKVkpAXU0X4Wu5h54BY/iLE46KSrnbNwkcbpak68Ky68w+uWY0RIyNFWvZR77zXc4dOiwMecCzPUYOvBmlySsFQRsiGUvhwzJxQMfeRRe7S09FxxCBBkvoVnG9u3wqFMXwa+/ZsywEBsbi02bNimx0LA3bNiA0NBQJbZ9+/ahQYMG2Lt3r5q2bds2ZdAUAT0JvRYFcObMGdSpU0ctR++2c+dOFdrt2bNHlb8YKvJ+cl9MFBQ9HBMFSGGtX78elSpVQpUqVbBu3Tq1be6bQuYv7zPLXAw5bX2Vnu9r5LauNBQLq8pTzPGIM59FvDlKtVElIQWj3N5DuKkKPsQPIrlQVf7KyZQpU5QHz01wcDCGPPU42rZti//+W4Vnhg6Ta2ipUSwILSjBKij5DwlSWE8Xg2cn2OD337P7U5BW0iVk4zbEehEkOb9n3brGnNJFcREUYSfZTKQh0RwrgjqjRMWq8yRTKp4zPYpHTS9gMJ5VZa+cFIagdBkqJ5Kp+N5yi6Wj6+lTSPrxR5iNGjd7yI6PR8rMP5SYvFq2hIcU6jWFj5sl+JPyVICkYFWyoqACzf540jwM32GUlKeWGEvbRz6+JV8cE5QlEy/VeFStCr+77wHc3ZG2ahWSJ0q5xY6TzoqKQrx4tMxDB9W4H4WZRw7OMG/YsGHGmMYVqHo/k5QtTb5SrrJc90ykow4aiNQ8sAdb1TSHcMLWtYeyAbsP+fbpIx7LDanLlyHu3feQLmUOeqCLEKFlSXkmdfFixH/4oXi1M3CT8k7Qc8PgbsM7sc1n6tSpqlaN5aOjR49i3LhxmD17trEEVHmIFREU3fLly1W7FavEt0uZjOuy+nzOnDlqvVmzZqn2qWnTpuFH8aas7i7LsIqcnslaCcEHPWaYJqI8KqE3blbTChstKBuwl4PfwIEIeOAB8TI+yDywH4nffou4N99E7KuvIfH7H5D4zTeIGT4c8e+9h6Tx45Etxsz1+JyUZ7OmxpYuhqJgWxLLHiyzvf3226qtiNXakZGRahm2Mfn7+6tKCZZFudynn36KJUuW4KeffkLlypVVVTsrJyg2tmV99tlnmDt3rhJZWYRCYptThjkVaeZEpMsvWWxaiDWmlXjD/KlIqmjCby2ovPDwgHfnTgh87ll4tmgJk6/E5TExyDpxHGkrliNtzRpki3fi8098ZMOnd2+EiFg8mzRRZTFb0JuwMF+uXDnlrVgjRyGxmtraNmWtleO8N954AydOnFDDnMfPCrGqne1VLDBzO9ZeEzVq1CjWVdyFCb0SxZSMOCRJSkcq9ph2Y5rbRNxrfgINTa3E0G3fE1ejBZUfIgzPBg0Q+NQQVWMX+Nxz8O3fH97droaPJN8bb0TQSy+pJ3f977wTbuJZ8qNly5boI6EkuwP17NkTr7/+uqr+pkCYWNNK77No0SLVDYg9J1jj1K9fP9SrV0/1dCBsc6KX4y/nsdGWjb6shi9rUEx8gjcF8Ug0RyPVnCBj6Rhv+hG9zTfiTjyi+vvlruHLHxaenKsscKzavHFT7Nu/D9+OHVc6q801dlMcqs0tbVDpSBERsQ0qzhyp+vB95/YlEkxJ+Nw8ERVN1VhdcUkbFMm72jwITw55HO1Ybb76P11trin9WMpNWVJm4tO7seoJXrZFLTctwWbTRjxnfgfhpsp5iqmwcEhQyhHqjFxTDGCol8lykzkOiTinHos/hIP40zQNr5pHoq3pKpGSl9NictbOtYfSlDiUmCTUS5ZQLwnREvIl4hROYLT7h+iGPrjWNEA8E8V0eebtjKa0oDQlCmsVeaqIKBEx6u1HrISY6fY7ghGGIXhVdZZlQ++VQAtKU6JQXWGN14glS7kpXYK9Oaa/cNB0AB+Yv1GdYdkVqSjLTTnRghJYw6lxjCtxzZR3Uq8RS2VXWOWZdpq2YaLbePzP/CTqopn4Jc/LDvUsOFeIcnDPqlrCMliKsPV4giZ/rtQ1s3Qu4ktYTPAyeWO1aRXuMj+EG3CnGqd3upJoDyW4u0u+5ik5m/ZUBcJrxPYntkNdCbh/D/nzQYD8lcdQvIFn8ZZ6DN41nuny0IIyYI7LBmmd8k4U0pUUE3GjmNQLWkIQZCqPKqY66t0SnH6lyk050YLKAQ2F3kon24nX50p6cQpGjkQ9+eRjCpQUoN7RZyk3FY/oQgtKU6JgWKeefVJPOXmp4UIRU5E17Ja+OglNCYMCsv5xrNBwwta1h9JoXIgTgtIuSlMWcM7OtYfSaFyIFpRG40K0oDQaF+KwoHQJSqPJG6c8lBaVprRDG3fGznXIp9G4EC0ojcaFaEFpNC7ECUHpEpSmrOC4rWsPpdG4EC0ojcaF2C8oHelpyhJO2rtDHoov/1MvACyG4uLL93UqGam4v/b6cky8xId8vDnp6enqyxY6lZxk/aJ9aaPEC4ofYs7K4ltwNCUFZoLWj2gXX5zzUQ4K6nKcYeGgxVRyYfhX2igVIZ9GU1wo8YLSaIoTWlAajQuxW1DnAysdYWlKO2LjzpYkHPZQWk8au2GlQ1oakJ5uTChZOCMqHfJpCg33eXPgfUs/eN87CG6bNxlTSzdOCKpk+qj8agNzzyvsmsOCqotLS3Wy27YNcNv0H9xWLID7n38YU0sKtAHH7aDUeyga5/fff49nn30W//77L7744gsMHz5cpd9++w1jx45Vwy+//DKSk5PxzTff4Pnnn8fChQuNLQAxMTE4cuSIGl62bBlmzZqlxg8fvvRL+AVx7tw5PPDAAzh16pQx5WKSkpLw5JNPGmO2OXnyJEaPHq3b4IohpU5Q//zzDyZNmmSMQXVxmTBhAh555BF8+eWX6Nq1KwYMGIBt27Zhx44dGD9+PEJCQnDzzTdj3759+O6773D99ddj1KhRan0K8s0331SCnD9/Pj777DM0bdoU7777rpq2du1aHDp0CCNGjMDKlSuRmJiIjz/+GJMnT8aHH36outlQRG+99RZ+//13dTxbt25Vwpk5cyaee+45JVLuZ9q0afjoo4+wadMmNT5jxgw89dRTaj75+uuv8eqrryIhIUEty+MpLphT44CVbwFLngfObDamlj1KlaBoZBQPf6dOnaqm8asRfn5+uO2229CuXTu0aNECoaGhSkx33303ypUrh+XLlytj5XK+vr4YMmQIevToodZnP8ETJ04gPDxcfcqFn3WJiIhAVFSUmpaSkoK2bdsq4VCUVtFRXPSMv/zyCwYOHKiE98ILL2Du3Llqu+To0aOIj4/HE088ofbxwQcfICwsTHlEhp1nzpxRX7ugiHbu3IlPPvkEqamp6isYN9xwA9asWWNs6cpjOr4U5q1fw7xrArBnijG17FGqBNWvXz/lffr27Yv+/furaTR8GuDEiROVUdND0Kh79+6Nxo0bK6/BMG/dunXKq1BUn3/+uQrriI+PDxo2bKhEU69ePfVhNqbKlSujTZs2yrtRVI8//jgCAgJw4MABtd7DDz+M2rVrK6GcPXtWCeX2229HYGCgmn/8+HElNgqax0ShcBmGg1WqVFHbpCCrV6+u+rzVqVNHbfPXX39VmQFFHR0drbZVLMhKMwaE7NLZ8dUeHBZUIZfXLwuKgYbfrVs3NUxo/BTUjz/+qAycw/Qe9BYMz5j7v/LKK6hRo4Zajx6IImvUqJFan1B4f/31FxYvXqxCNRo4xUUvyLIQvQVDs6pVq+Kqq65ChQoV1HYoEE6jh+K+6O04zun8wFtQUJAK7egxmehNhw0bprwdPRTFR9HQE+7du1cJs1atWmrbq1evRv369Y0jLELM2XA/sxieuz+Fx4FxElPHGzNKF87auUnCC7UqQ4v8are++HK0Mqzdu3fjh+9/tlkgp3dgLs8bXlQwJy+I2NhYZaQ0UAqNRkrPwnOOi4tThs7pTAzBOM5lGf4RehBug+Pvvfee8hb33nuvWpfLcTss1zAkpJeybp8i4jSKh+sTTueyFBP3xWtOkXM6x7kvCovj1tCPmQL3zXEuy/UpYgqc4i1SslLhveUFuMVtlxET0pqMQHZ4Nwnzfod50RC1iKnRvUD3T+D58Vvw+PwjNS3zkReQ8aaUsXLA8yxKW8nNlClTcMcddxhjF+C9efSxh9GhQ3uJatbgmaHD5PpbMuiCKPW1fITGWbFixfNei96AhkkhcB49AIVgNWyOW8VEaNA0XC7D2sBevXopoViXY1jI+bwR3Eb58uWViLgtzreuz8Rh7p/z+UtvxbCPxxIcHKzWtY5b53O7XI/743xuh2Erfwsbt+iN8Nr+Frx2vgdTEms6JdMVL2XBDJO5tIZ3zrkoJwXlpD8sBdC4a9asaYxdGSjsatWqGWOFi3vUCrhHLpEwbwHc4ncZUzV5USY8lMZ5TMjRyHzeM11AfJQxVDy+cXul0YLSXBZS8jaGNEQLSqNxIVpQmgLQoZwjOCwoZ+vnSzP5NTdoSihO3tJS66HYcfTPP/9U3YDYtcgW7DPHXge2YHsQ++eNHDkyX8GwXx57NDgDt8t+fo7CdjI2KvMY2aODHX7Z82LOnDmqvY29Naydedk96b///sPSpUvVuKZwcUJQJSM3pqAWLFiA5s2bq25CHGYPchoXf3ft2qXapfz9/bF9+3Y1PzIyUvWi4DJsRGWvhkqVKqmeERs2bFC9Jdi/jtCouc6iRYtULwb2mPj7779VnzsKhYa9ZMkS1Vl38+bNytiPHTumGn3ZhkQxc132LOc22fOBx8XG4I0bN6qe8dwne1JQDFyHDbpkxYoVapjHw2Nl/0S2hbH3PI+b6+/fv1/1rHjnnXfUMhQWz63wKMAuTCUtdHTOzkt1GYqPY9DomXuztzdzbfan4+9DDz2kRMX0/vvvK1GxFwiH+XgEG17ZzYj9/CgIdrplY+sPP/ygtk0D5Twr9IQUAHuLs/cGez2wJzn7ErI7EcXKbXB9iozej9ulENhbgEJkb/h58+ap7bIhl339tmzZgtmzZ6ue8OzHRygW9kWkkNm/7+qrr1YNvuw3yB7u1o7BP//8M9q3b6+Ou3v37uenO0K2V6j8L2IwucPsGSTDYjKmHGbjHqB+zH7hMstDhkww+3Admebpo365vLlOXctwKadUC4o9DmjU7N9HrD3I2XmWYrHCZaZPn65y9wcffBDffvutCvXYYZbGTq/BXgzscsROrISCoeezNvJye+ywyn57FAPh/tm3j+vRsOnV2F2JPRzuuece1emWjbQU87hx49Q+OJ+9I7p06aK6NXHfFAu7ffH4CL0vBU8Py/COomX4x8ZeZhzsFkVxsdc9vR69I4/Xnm5aucmsOhBpTd9BerP3kR3WXgTkjYwa9yGj8s3IqPUAskJbqeVMVToD/SbBdO2PMLV8XE3LfPBxZHwxHuk/z0TmnXepaaUd9+HDh4/gAHOx/FizdrUyBN68TZs2IzY2zphzAXYoHTRokOqjVVTk9fZRhl0MsRha8dzYVahjx46qT90111yjjLNDhw7K6GnQ7NbD55xooDR0CoFhG8VAIVpDMYqRQuLyLD9xmQYNGqjnrLguxcBx7p/7opAowiZNmqjwjdviYxvsktS5c2fs2bNHiZLC5W+zZs1UbwwKiCLo2bOnKufRG1kfNzl9+rQSDL0UPTC9GzvKUjCtWrVS14ThKp/XYsjbsmVL9cwWf3N2+rULNy+Y/auLB6oiRmK5rxzOLt8R2SEtzk/jrym4BhBaD/Awum3JNc+W8zDXrkMDs0zLAbtpFaWt5IbXlZlObmgrbdu2VteQ17ljx87nM8mCcLhzLEOkH39g51hLoTcnxbVzbGnDGoryyWJ7oPei4dx5553GlOJBce4c+8ijD6oMuFA7x+ajN00RwooUe8VEmLsWNzGVCJywd4fLUFpUmrKCM6ZeqislNJqixkFBUbPaRWnKAs7ZuvZQGo0L0YLSaFyIFpRG40JKvKAKapDWaIoShwVV3KrN7W3B1hQ/rmQviYJw1s5LvIfiTdGiKllYu4IVZ0E5S6koQ7GjKHtt8ybpVPwT7xX78ZVGnDir4tkOxVyPN0mn4p9KM6X77DSaIkYLSqNxIVpQGo0LcUpQxbMUpdG4jqKrNtdq0mjyRId8Go0LcUJQ2kVpygLO2bn2UBpNnjguKi0ojcaFaEFpNC5EC0qjcSFaUBqNC3FYULqOT6PJG+c8lFaVppTDnhLO9JZwQlBaTZqygHN2XirKUHwJP79swRf361T8E9+1nt979EsyJV5QVjHxEy8c1qn4J34dhMIqjaIq8YIqzbldaYb3LK9PEZVkSoWH0pRMtIfSaDT54pCgVIaioytNWcBJO3fYQ2k9aRwiNRWm2Fh+Nt+YUDIwF021uZaTxgHOnYN3n6vh3bMtvG/sq8RV2inTZajcFRosJOcsKNsaL6pKENZeHj582BizDT+kffDgQWOs+OF+5DDcDmyH6cxJuG1bDVN0tDGn9FJmBEUDfeihhzBp0iQ1/uOPP6ovvfNbtWzDmjt3Lrp06YIHH3xQfRT6119/VV9p79+/v/q6+/fff6/G+QX5NWvWqG0Qfqn977//NsaA119/Hfv371fr8GvtzsJ1hwwZYozZ5r///sP9999vjOXNunXr8NFHHxljRQgzozIW1JQ6QTHXHjFihDFmISYmBj169MC8efNw5swZHDp0CK+99hquvfZaTJ06FePHj8dLL72kvvq9ceNG9YV1CuKee+5Rgvnwww9Rvnx5DB06FAEBAXjrrbfUdumtfvnlFyXCmTNnYufOnWp9LvPCCy/ggw8+UOKjF/nuu+/w22+/KaFwfMKECWrdH374QR0f98P5X375Jfbt26dEHm3k6AsWLFDHMGPGDNV2Q8F+/vnnWLJkCSIjI1Uj6V9//YWRI0fizz//VA3dy5Ytw6hRo9T51apVS537sWPH1PYKhexMYPdkmOc/DvPakcbEskepEtT27dvxzjvvKOOi0XOc8KvpX3zxBbp3767Gjx8/rozu8ccfR+XKlZXBUojM7Vu0aIGtW7cqwVk/uc9pvXv3VsZ59OhRJT4rFChfAx0SEqK8XqNGjdS71k+dOoXg4GAlOgpuxYoV6jP+FNqGDRvw4osv4uTJk+p4Fy9erI5v1qxZapuvvPKK+iUMM3msrVu3xhtvvHF+HW4jKipKCY/7p/gqVqyoPC6Fxv3wWLluuXLlUKVKFbX/QiMzGeYdvwD7ZwAbRxsTyx6lSlBeXl4ICwtTL6SnR+GvdToNkr+EBk8jpDEy8esdOcf5/m16DIZvDRs2xBNPPKHWGTBgACpVqoS33377/HLVqlVT+6EHpLFXqFBB7ZvGzZCShkwB33fffcrj0ftw25w/ePBgtGzZErGxsVi5ciW2bduG2bNnX/T+75SUFOXNRo8erbwRvRk91HPPPYeBAweqc+J+p02bhp9//lnNpxej950/f77ykNwej4vLuYzsNJhSTsOUFimql3IlQztzlmWe9bcM4rCgcpTRix3169fHk08+iUGDBqnfevXqGXMupnbt2vD19cWrr76qwqAbbrhBiYAh2tq1a5WRP/PMM6psRC9DY/7666+RnJyshERvYK2soJji4uJUuEax0WtwHr8wMX36dCUSTmdoxxCPwwwJaeT8nIv1ky6dOnVCYGCgOpY+ffqoaYQhIr0bp1mFVr16dXz66adKaPRAu3fvVuUkCpjCZxmQyzADYCiampqKc+fOqX27Co/jf8F7yzB4bXtThHXKmFqKUBnEhUF7ccJDFe+uPgzvhg0bZoxdDCsdmjRporwDwzfm7gwNmdOzHBUaGqrCM3oTiu76669XoSCNkQJhuYRio9BouISGTgEfOXIEd999t/JANOBHHnlE/dJbsCKEoSUF/9VXX6nfG2+8UW2Tno3j9DjcHz0VxU5xcZzln//973+q3Dd8+HB1jAw5uX+GonfeeSfatGmj9k0hP/zww8prnjhxQq3zySefqIyA4zxPp2DmkZkIkyTljQRT8lER0kmYUkVM4q1KH2yJckRKFkwSIqi1GPJYc11bfPHlaBX+bN++DeN/magMKDfMESdPnnw+tCoKGBIVJ8aMGaOuA0O94gI9GIXKzMIZ3CJXwPPIRDES0VW1O5AV3g2eu0fB49QsmD1DkNZylPyWh/nvQUDkFrWO6fEzcJdynteN3WTMYlep6/bDLBmLFXrnorSV3LBMaS0n5yQoKAgPPHAfOnXuLGXV9Rg6dBj8fP2MuflTqspQxQFWdRcnMRFmhM6KibifWwu3hF1wi98lw/8ZUzW20ILS2IHjoU9ZRQtKo3EhWlAaO5DCk7NcxqolEYcFlU+9hUZTanDWzB0TlBaTxlFKg804cA52C+riKvWSc5XY9YcNr+ydwEZZW7AJgJ1nbcE2KPbRYxej/GCDsK13JPC6sWqfDb5shOV+zp49q46Jx8ZxbpttRZrihMXGHY3I7BYU26lKIuxp8MADD2DixImqy86WLVvw77//qgZYds1hx1K20bDLzsKFC7Fp0yZl/Ox9zg6ybMRlDwouz2XZ72/9+vXnMxh2B2KHVPZaoDjYf/Cff/5Rjbpk165dqqGZXYPYR/Ddd99Vff7Y4Mpp3BbbQ9g4zB4YS5cuVeLk9nksHOe+NVcGZfYOmH6ZqJSgl6GY9uzZo3odUCRsl/njjz9U73CK4KefflJdhbgsG2fptSgW9pjgIxwUH7sXUSzsqUBjp9GzFzg90N69e5WHYj8/dk6laAgFw063jz32mOrRwL51Tz/9tHqUhN2F2OWIjYv0WNz22LFjVbciay+HzZs3q+O5OEK4khjW5cZ+kjKcX0bLeQ4YY2mgTAiKhkwvxW5JFEffvn1x7733qmeb2LWIsA8d+7qx3xy9BQXIYRo5O7dyOfbeZpehnj17qrCNIRtFdOutt6Jdu3ZKjPQy7Edn7UfIvn70dISi4Di3RQGx6xG3TQFR0NwmO+ryMRKGgOxC9Oijj6quSFeSrIg+yKx5nyVFXKemZdS8B2lN30F6w+Ew+1UDPH1havYQ0HYY0OE1tUx23XrIeO5VZD77MjJefBvm8uXV9NJMmRAU+9JRJPQi1p7mNNyczJkzR3kshn5Tp05V4R8FQ09Bz8VuMrfddpt6JoohXtu2bdW0xo0bq54IfASDfQTDw8NV9yvrs0zsq8eHE5s1a6ZCPAq5V69eqqc5hcge7QwX77rrLiVCei16QoqJ4WK3bt3yLPsVFdnBTZBRa7BK2SHNLBO9QpBd4Spkh7UXK5JrydTgNpjavQhT66fUIuagQGQ+9woynn8dmUOfZ7d/Nb0041hfvgYNsW37NkwY/5uEREeNORcojn35eE5Wg7T21s5dHuQynMdtWR/5YAUCPQhFxcT5TCwnWUVpxboe53NZlp/8/C7u+8XyV85tcxtcnsdmve4UKIfp9XgN+ctxhpFMJbUcmxfFuS/f/YPvVb33C7UvH2+7ce9LDDRCGq/VgJk4LWfiNMLQyroMxUQ4bF2XWJ+dyol1PcLf3GIiVjERGpF1eRqV9fisx2I1Mk7j/vgwYu59agofZ2zdIUEZkrIMaooMPsqhuRI4busOCkqj0eSHFpRG40K0oDQaF6IFpdG4EC0ojcaFOC6oYlbJp6uTNYWBs81DJd5D5e7xoCk5sJ2ttOGEoIqXi7K2trNBlN5Kp+KfeK+sPUuKL87ZeakoQ1lFxZukU/FPOXuKlDZKzVnZygl1Kr6ptFI6swmN5gqhBaXRuBCHBVXMas01mmKF44LSitKUAS6ycwds3omQTytKUxZwzs4dFJQWk6Ys4bi960oJjcaFaEFpNC5EC0qjcSFaUBqNC3FKULpqQlPaKZLHN9ROtJo0mjxxwkNpRWnKAs7ZuS5DaTQuRAuquMLvVR06AqzbCKz8D1ghad0GmXaY73U2FtIUN7SgihuRUcA7HwKd2wPX9QJuvRm4cxBwl6RbB8i03kD37sCrbwEnThoraYoLWlDFgexsYOt24NnngaZNgNHvA/wEztkzQHwskJhgSRzmtD07gG9GAR1FdM8OAzZvBa7wFzo0FrSgrjQM7T79Ahh0EzB+nIzn/zWRi0iKB36RdW4bCHw11iJMzRXFYUHpqnMXEhsHvCGh28fvAlGRxsV1gqizwIiXLR4uRryY5vKRW+HM7dAe6kqRlAS8NBz4bgyQmW5MvEwm/Qy8INu08fFsTdHghKC0e7psmPX9PAGYOVWGXRimUUgzJgIfjrSEkprLxHFb1x7qSsAq8PffFgEUktH/MBZmVrFrihwtqKImUUK9Dz8AUiwfyy4U4mJgGvWprvm7AmhBFTHmrduArRuNsUJk6QJg8XJjRFNUaEEVMaa//waSEoyxPAgMAoa9DsxbDNz5oDFRaNcJWLAM+GQMUKmKMTEPsqU89d048VK6Kr0o0YIqSthO9OefxkgemOSWPPkMULsm8NrLwJw/jBnCjq3A0CHA8cMwf/u93L0CPpSwV5Y/ddoY0RQFDgtK1/FdBsdPAKePGiN5wC/AN2sOvC4eat1qKQ+dM2YIyVL+oqh+/Q2mBvWB8pWMGXkQFy/704JyBmftXHuoomT9JmMgHzLSJVT7RsQQaUywAUX2+qtAbD7LkMRE4FwBy2jywDlJOSgo7kT7KKeJjjYG8iEoBLhxIPC5iGqMhHW20uivgat7AfUaGyvlQVYGkJ5qjGiKAlNMTIxSCL+IYM6nr8UXX45G/fr1sHnzZkya+DuOHr00dBkwYAAmT56sPldiD9xfakwMMkvB4wjegYHwCggwxvLg+5+BF582RvLA1x/o1ZtfIzMm5MNqCQlPHTdG8uCXCcANNxkjl5KVno4UEXp+974kYHJ3h2+5cnB34AN8U6ZMwR133GGMXSAoKAj33Hsnunbtgk2bNmHo08Pg5+dnzM2foheU7CNNQpEVn47CmrHfIIn90EoDcv0imjRHr3feRf2+feFmSxCTpwNPDDZG8oCVEp26A/8tkWuVRw2du2z7ptuBP6eIIvLpZuQmy02YCFzX15hgIPcgat8+zH/1Fez+Zw4yUx3okFuM4TVvfOMAXPve+witXVsuZf4BWGEIqkjLUObsbOz4YybGtGmFRe++VXrERMRIT23fgom3DcSUe+5Ewkkbzyp1bGsM5ANz2CefACJqGxNsEB4BfPguUK6iMSEP6DHDKhgjFrIzM7Fi9Kf4tltnbP9jeqkRE+G5bZ/xO75s1RwLRryBjJSiP7ciFVTc8eP4+6knEX3ogDGl9JGVkYHt06dh9vPPqnDqIqpXEwOvbIzkASsldu8AvvxcBHOxGM5z613AkWNA1AljQh4EBwOVL64J3PDjj5j70vNIPpej9rCUkSGZxJIP38f2ab8bU4oOhwXlbKhN7zTr6aeQcKZsVOPunjULx9euNcYMGILcnHd5RsEL/LmIab2s+8VXQJ+BxgyhaUtg/FSgiojkvnuNifnQoLF4uguCSo2Nxeqxss2ygFzHWc88jXN8UNMJlJ07Yet2C8pLQhF3id1ZPnLmk46Ru3Zh95y/jbHST0ZKMjZNGG+M5YCC8vE3RvIgPlpCureBwXcD83M27G4BHpRpLw8DTh0xJubDI4/xA8TGCBB77CjObN9mjJV+UuPjsOW3X40xx/DyEnuXMpmqD3DA3O0WVLt2bVG/Xm30ubaXhOYFGIQNovbuFdU76d5KKLvnzJIySq5q6yZNgJatjZF84LVib/ScT+FyGh/LsOfJ3M7dgR7djBELm3/9tczdg8g9u40h++FH0Htd00PsvQ6u69sH7g58YNvuJd3d3dSXuz083J3yUCwwljUSTp/CoaVLjTGDECnXvPaGMVJIBAQBL750kXfKSE7G2u+/NcbKDln51YLmA0VFe3cXe3cEuwV17NgJREVFY+/e/UjPXdi2g9L73e/82fTbhEsrJzp3AF4SUXna117nMPcOtrzAJQebJ05EWny8MabJD7M5G/sPHERk1Dmx930SENjv1e0W1OEjR3DmbCR27NyF1FT9Xjh72TfvH8QcPmyM5WDI40Dv/saIC7ntHku3JCkDWEmNi5Nwz0Z5Lh98JAVLLhiST+J8P0n2B0QlAwpo167dOHv2LLZv3+FQmGz3tVAbNTbsRMTnMtzYqFmYyMmp1vZcJ8mWeJuNtQWQHH0Oc198/tI2EX8ph34zBrj5DjF+b2PiZcBG3IG3Ae+/J2qgHC6w+++/cHTNamPMPnqK83xMDrGgdJevnEoh2IO7XJOGg25Dvx9+xnXf/4z6AwY6VdRwFktHB8PuHcBuQfFUuOkrpSWvwCBc9cYI3PT7dNTpVwg5u1CzZ2/0H/8rBv45C32+GouINu3gKYbfbuhzGDBtBgbO/AudXn5NphXQxSgXe+bMwqrPRl96cwJlO2M+E4/yziUCdghf2c77HwOffQ6EljMmWojaswd/P/OUlGEde9w+VIoOQXJIgfkkzg+VJJoC+xG4MoBtfNfd6PL2O6jatSuqdeuKrm+/izrX32jMLWTknJzFfkFZb7j8FmVOQfwqhKObXNDGd9+DCk2boueno9HiwYfh4cNbefl4SI7eafgr6D12LCp36IhydeuiRq9euO7Hn3D7vAVo9eSTKN+kKUIbNECzwYNx6+y5MtzQWLtgKKRVX32BI8ttPEHLLi1PPgYsWQVcf5NYaHljhh2EhEnYeD0w40/g4QeBXLWvyVFR+OupJ1XI5yzHsoDlUgTcKHpMlfzgqIzvlmFOZ12jm5hCU3GO98ppXOUiRfF+1Lym10URgbu3N1o8/LAxVriIhTtt43YLinXyxE0Jquii5qDqNXDtN2NRu1+/8yfJPlptn30O7SRR4JdLpXbt0ejOuy7JmDx8feEXHm6MXSAgIgKtH3vCGLOPxDNnMPV/9+Dszp3GlFw0a2J5wvbvOcCb7wOtOslFz6OjZ7N2wNsfyrKzgV9+BjrIeK7rkJWWhj8efwyHli0xpjjHYRHOEikyrxVRpYmgQuXWVxTvVU5+uUcmDleXaVUdqxDLE3YCsFUrnJmSbAwVLm6SSzBZMeUYLgi7lREcHGIMWXZYFITUroNen32B8OYtLjEYdy8v8RYPoPsHH8M7x7E5Q7Wruirx2I0cSzW+X9xBMccdP4ZJd96GU5s3G1Ny4Stln0bi+fhU7sJ5QOQ5IDr+0rR0ITBEBN2ksZSXLi1/KfHeezd2/DEd2Zf5ohZWPtQQoURIcpfh47K5PWLr/LW2hlmvgmNXI29YK7prymSkJ1x4VUBqdAzWjhxpjBUudBgq81YhugkeDpTb7RZUWJiEF7IDege3HO0bhUVwzVro8823KC8hXn7Uu+kmtHtGPNVl4B0UZAzZj4eEagX1ZrbF2Z078Ougm7FVDIY5sathA/pvtwzAzr9y9LC4DGqJLfUWzXaUcC5T7CtMTrmm3P6K8uv42dvPoX//wT8Sxm757jtskVB83mOP4NSGdcbcwoVtT26MwkRU7Cnh6cAjIXZfE08J+bLN2Srk8ygCQUV06ICgmjWNsbxh7VvDO+6AV0CgMcVxzu3e7bBxxx04ALOTuX/skSOY/uD9mPfycMQdO+YSYSVHR2PLpIkY16Mbjq7577I9k5U4OTSWmw6KV9olab8khoFnc3golyM25htWHj6hYaoc5eblKcPl1LSigLZudRocdgS7BcXcODMzS+3IQ3ZS2BUTXv7+du+Dx+SMl7FyaMG/iLfxfFdeqMcEfp1gjDkHH6pc/ulI/NS3N5Z+8D6SIp17VJ3V8XyubPyN14tIByORX+dwIWxnolcqnyNxPFBSYVlAaN166PvtOPT+6ms0e+ABSQ/i2q++Qd/vvkf5xlLWLGRo3+wZRByNxixr2UFQUDCyJNejd2LHwcLn4tuVKYazY/x4LBz6NE7l7sWtcP72Jp48gflDnpTfgr+3lJ2RgT3Tp2P371OMKZdH5N49mD/idYysXR3THxiMg0uXIPboEaTwSebU1PPei96Q4mGNXfyJ4zi9dSsWvTUCI2tVx19PPYFja1Yji49+uBhWDbAyInfKkFQYsIavx8efqFA/Z4bKSKRCs2ZoP+wFp0JtR/BQHcEtQgpz0CvafWTlQsqpMhRr+3zzKMBny813tCHMXo6vWoXVH3+AA3Nni/E/gbRY135lInrvbsx/6sl8PRU905Zx47DyrTeUsFxJhohn44Sf8eO11+C7q7vi53598estN2PiHbeqBxYn3nGbGh9/Qz+M69kdX3dqh4V8SPNclLGFwoG9bnimFJA1sSyVM6CU0Yt+L4c61/VHGDsQ50GVzp1RqbUdD2raQUYe99D6ZAUzs3Abtbz5YbegfCTnyJIdcGd8HNhWOJaUlJTnQV4uKVGR5/vEpcbGIE1ycFcTuW0r5j3yMJJOnTKmXEB5pimTseHLzwu1oy9vImsDj69fi33/zsPOmTNUBcbOP2Zg//x/ceS/VYg+eODS/oEuxpovBouFsJavphQlrKmGpHCZZrUA+lAuTqFdLuEtWxhDtqGniujQyRi7POJstM/Rrn18vFXYly733N5H363YLagQ5aEg3skPvn6+qidubqKlYJziqseOHfR0rvKMMQf3Y95jjyI2x4NpNN5NUk5Z+e7bUtgvPDEVJ86KSuiFfEQ1bGfKnQJkOgXF4D9eLv0qo/H3comUUDa/DIuh/9lNrnmV9ck8QvxAvnDHy0tFXOEVCslDcQc02QrhFeAvqrUlqBjxGol8F5wLSJByDRsnz5NLMDnHks6cQXKk6wrjUbt2YN6jj6gyVbqcz65JE7Hx6zEuqzkrCawXcSyXy79Dfnfmk1jrx3uxSJbd44LLs3v67/ilfVtM7Nbl0tS1CyZ07ijhv40eJw6SKaI9fvzSN0bRQwUEBsDb21tl0uXKhRlz7MPutx5x3u+/T0at2rUwbdp0TJn8+yUu09/fHwsXLkSHDh2MKRfY8fvvmHjXbcZYwajuJ72uRUidOqoQemrtGhxfucKYCzS67Q4EVKmiRHds2TJEbt9qzHEdPuVC4SeF0pgD+1zmAUsSLJZfGthfCq9Mcc1qmtwyCHeJreaGmf8NN9yAlStXGlMssM1pwMCb0L//9SrauvGGAaq4Yy92eygKjnElX7EUHBykfnOTnJyMJUsur6uLFdZw7Z/1F9Z/PhrrRo+6SExk19TJajo9R2GIiaTGRCN6f9l70tgKRcLgq6BUEv12VFQUDh06ZIxdgOIJCQlGRKVKqlZbPQLvAHYLilQIr4gzEl6VDwtDxUrhl1RM0PCmTp2qhKXRFGdWrVqlbDk3oaHlJMwrB/+AAPj6+F5i4wXhkKBYhXjgwH5UqFABNWvWsNklY+PGjVhrs51IoykepEkx4ZtvvlEeKCesF6hevbqy8+PHjomdX+o0CsIhQUVEVEZkZKQU2gJRuXKEUrMtvv7660u8VNkMmjRXHBuG988//2D9+vXG2AVYRV6rdg0lqL379qFKlarGHPtxSFBBgUGi4JqqrSlU3GK1atVsKnjRokXYvfvit80U+N5vjaYQ8M7VxzMhIQFjxoy5xDuRihXDUalSRVXDl5CYIE6jgI/a2cAhQZGrOndBfFwcKkVUQu3atWzWgLA9asSIERdVoVdt3x5+oY5VQWo0l0u93tcaQ5Yy/qxZs/Dff/8ZUy7ACrc6dWtL1BWKJLHbLp27OlwhQRwWVNWq1VSDV8OGjVC9RjUZv1TFPPDZs2fjs88+U8sSv7Aw9BrxjhrWaIqCyi1aocmgQcYY1Acuhg4dqnr05KacFF/oIGjXdATt2l3a9GMPDguKIV69+g1w8OBB1KtXF63btESAjXCOQqJrZbuUtdq55T33oPFNA9SwRlOYhNaug0E/jz//pDlr9B599FFVB5AbVq41b9YUtWvVVsOhYeVV2OcMDguKNG7UVNXhsydundq11WdubPWc4EkMHjwY27dvV+P8htItP/yEzk8949B3fDQaR6jSqg3umfkXwo1Otizzv/LKKypzzw0dRBWJspo1byIhXx2slnCwpXg2Z7G7p0Rutm/fhm3bN0uc6Y0VK1Zg9qy5on7bPZ8bNGiAH374AZ07dz6/n5MbN+LoqpXqnXXpNlywRuMIbp4eCK5cBZWaN0fda/ucz7D5br033ngD335r+6257N3Tp08vdOnaRbU/eXl6oW/f6206CHtwWlAM6f78c4aouzI2bdqM5ctXYNHCJTY7x3LblStXxpdffombbrrJ6YPVaByB4d3999+Pf//9V/Xdyw2feeI7+6+5pjt6XtNTvdTytlvvdKirUW7chw8fPoIDNHpH4PLslbt4yWI0atRICYxiOnPm7PmKiJywuvLvv/9Wr3GuV6+eWtfRfWo09kA7nDt3Lu666y6sXr3apj0yU2/QoD569OiG1m1aqyJMy5ZtnGp7yonTgiKBgUHKRe7dtwe1pSxlNmeJcBJVPylb3o6xLLt8sGGNDyk2kRjX+mSkRnO5UDj8ZO2QIUMwevToPB/PoK1Xq15Nially5bKLgP8g9C501WXHT05HfJZ4Trz/p2rHoxLz0jHhg0bsGjREuzZsxeZGZe62Zy0bt1a1bx069YNERERymvpcFDjCKmpqSoD37FjByZNmoRp06bZrBa3QvuqVq2qhHjd0aZNG9XV6MSJkxh0y22qLepyuWxBEXYzmjX7T/W+CT5qsVFEtWrVGhWTFvSlDp5ExYoVUaNGDZVbNG3aVFVicJw92l1xkprSAe2T4dzp06clw96jEjPwffv2iShO5CskQjHVqVMbXbtdJbbWAhXCw3Hs6DHcMvBWhLqo04FLBEUonJl/TEdouRDV+XDb9u1Ys2YdNm3crMpPl7NtjeZyYRGjUaOGuOqqjmgsRY2qUlbat28vbrppoMvERFwmKMIW5kWLF4iA4lClclVs3LQRe3bvwfr1m3Ds2LFCe9+ERpMX9Ers7NqmbSs0FkG1bNVKZfj0Zn379EP58nl8GNxJXCoowoLh0mVLcPjwQVX7x06yhw8dxpYt21ScGxMTa7MKU6NxJazsYg8edjpgb55atWqhceMmEi6egrubO66//kane0Pkh8sFRSiYQ4cOYvXqVfAP8FM9Knbu3Km6Kx08cBB79u5DVOQ5FSbqUFDjSljmZgNt3bq1Vde4mrVqqtrkTImOTp0+g1YtW8l4s0IREykUQVlhAXLBwn9x9NgRtG7VWrxTtHiuI4g8exaHjxzFPhHWmTORqozFb6Hyy3E8Bi0yjT3QZhnS0RuxxwPfv1+3Xh3UqVNLwrwKqk2Jnbl37NgOby8v5ZXU27sKkUIVFGEIePLkCWzdtkWEdAYhknsEBwXjbOQZVTPD7krR56IRExuL2Jg4xMfHSVksSeLcdClzpavXP9PjcTtWsWnBlX5oj/KPQ0owTPQ+7Lzq7e2lHgYMCgpEcEgIyoUEIzQsVL2agT1yKlepgtTUFGVbfIavadPmKuTz8Cj8/qOFLqicxMfHY8nSRdizZ7fqKl+nTl0pHCaruDb63DmkpKZKGJimCo1M6SIqfs83TUJDVmgoYWVlKXFlZVkE5u/vp6pC+QmSo0ePqbfZaEowIiKWcdzcxfPQ+xgi4rNJPhKmeYmY+CJK9iFl2MZpFFWlSpWUh+IjGnv37kGFChXRs0cvJbCipEgFRbgPeiG+E+3EiePimaKVWPi+dIqC/aiYE6kvfBjHxKcrKSb+WgWlwkP5CxBX37BhfXX8Bw4exjkRpqbkYXFG/Hag/IiQ+DkZJSrDM53/xIzcc2amtAc26tIWaD9cLjAgEBGVq6CahHkst1+JTgJFLqjccJ+8IHzU4/jxoxIKnsXRI0eUy87IzLBcTMmx+AJ35kh092qaXEAKkG6/caMGFwQVpQVVEqHlURwWwVgy0PT0DIlUUpV9WKe5iS3QDqpWqYby5cNQrXoNRFSqrNqZaANXmisuqJzk3D+Hk5OT1IVkjkSBZcrw+a9RqFtgqdUJVA84mlSPDYaKmhJKDj1Yv3PLl/Zb3zXODJRlJ2amVoqDiHJSrASl0ZR0dE9UjcZlAP8H83Y+voRPTSEAAAAASUVORK5CYII=;" vertex="1" parent="1">
          <mxGeometry x="470" y="290" width="94.92" height="180" as="geometry" />
        </mxCell>
        <mxCell id="gAUjlXwvppd74u_5Mjit-4" value="" style="shape=image;verticalLabelPosition=bottom;labelBackgroundColor=default;verticalAlign=top;aspect=fixed;imageAspect=0;image=data:image/png,iVBORw0KGgoAAAANSUhEUgAAANIAAAGQCAYAAADbfj6RAAAAAXNSR0IArs4c6QAAAARnQU1BAACxjwv8YQUAAAAJcEhZcwAAEnQAABJ0Ad5mH3gAAHeXSURBVHhe7Z0HYBRVF4XP7qZ3CARC77333kGKha5ib6hgAVHA3n5UbKgUlSIIAlIFRQURpUrvvYcOSUjvye7+77ydhRBSdpNNSLLvC8NO25nZN/e8e1+b0UVGRpqhUChyjU6ng16bVygUeUAJSaFwAEpICoUDUEJSKBxAoahsMJvNSElJQVJyEpKTkpEsPhMTE2E0GZGYkIi0tFS5j5z4Z7J8KoouPt4+KF++vCyoX716FVHRUdDxTyxbJ/EfXF1c4OnpCYPBBR4eHvAQ8+5ubnBzd4eHu4dlvzuMvN47JaS0tDSRgFdw5sxpXLx0ARHXI6A36OHt7SUTWSaUh7tMQJlwYuI897EkuHYgRZHERQjEx8dHzscnJCBVZKQifxSYYTKZYEwzysw1JTVF2kpKSjKSRCabIPaNi4uD0WiEn58/KleqhMqVqwhRVoSrq6s8XkFToEJi4sTHx+HSpYs4G3JWikiv14vE8EPp0qXh5+svRcJES01NlQmXmpIqEyxVrDMaORnFcYQvMpukV1IUXby9vVGhQjqPFBVtMUhhE3rxqTcY4MJJiMPy6SIzU1dXTi7y/sfFxSIsPBzRwpulCFsJCiqDalWrC1FVgL+/vzxeQVBgQoqNjcX27Vtx9uxplA0ORnBwOZEQJiQzxxGCYRjHXCYsNBwRERGIjolBbEwsYsRnfHyCzJnSjKkwGUVOJb7H74ooT4Z6hRHeP2YSBQ0zq0KaJLdhEOJgxEGSk1NkJsl0swqJ2w3Ca7kJIXmJKMXP109kur7w8/dDyRIlZObrK5Y9Pb3g7m4RGL1cWOg1EeFcRJkywWjfrgNKlgyU58hP8lVINHIK4eixwzh06ABKlSqN6tWrC8HEI/TaNZGThOHihUtCXCEivDuL8OvhiBfbkpKSNIOg57FMRQ3mmDSCgvSavJnSewtvXtyweha9XngqvUEIx116tJIlS6JK1cqoVq0qKlWsiFJCXEFBQQgQ3ijk3DkZ9dSsUQuNGjVGQECJG8dxNPkmJBr/4cMHsW3bfzJ+LSFykLh4IaDQUOzbtw+7d+3FufPnEC3cOb0NhVOccHNzleW5/LpxmWHJdEyyHOFM0POzbERvVVGUl5o2bSympihXLliWwRKE3Z0+fRoNGjRC8+YtpadzNPkiJHqhTZs34Nq1K2jZopUI06Jx/tx57D9wEOv/XS89UHHMNdPDhGWYUdCwfFkUPbgjoVAqCu/UuXMnNG3WBJWEuAIDA7F37x74+vqia5ceMmN3JA4XUlhYKFav/kMWIn18fBEqlnfs2Il1f/8jcoUzIhZOdvobrSgYWDFRuXIldOnSGe3at0M5UTZPSkrEKeGdunTphqpVqjksYnCokEJCzmLV77+iSZMm4sB6nDx5Cn/+8Se2bPkP8cK9KhR3ApanWrVqiXvvuwe1atWEt5c3du7cga5de4jl2g4Rk8OExLagTZs2oH6D+rLCYM+ePVi+fAWOHz9hVxgnL0ib7gQsrCtsg2WTO3GfLGVB+yqhGGZXrlwZ/fvfizZt26BEQAAOHNiPZs1aoFEjZvx5+x3SZvMqpMuXL2HR4gXo0KEjoqOjhdp3Ye7cn3D1ylVtj8zhpbuJqaSYqosFTr5iYqVx3n5W7mFK/GYSn9qy4nY8xXS3uEnl7tBNorGyaipNTCFi4bRYuCzmE7X12VGqVCCGPfQg2goxVShfQZTlN6L3Xf1QtWo1bY/ckWchsf3nlxVLUatmTVmtvXHTJiz6eTGuCBFll2OwqNdQE08pcVPuTHt05hwWd2OVmLLzTZbGQhfZ5gGzSXrd4lbzmBnUTg/xk1uI6U5ldhlhqkcLU7sgpgNi4YJYzsryaPCsaBg4aAB69uwuq88PHz6Mfn3vkc0zuYXHFUmSOxgGLVu+RNaIsIvHrt278dO8BcJDXclSRKzHaibuwGMGoIOYgguZiEhJcX30lFkh+3y5e8Ldw0tOHl4+8Pa2dHUp7lA8wdpnYYEGXEJcUCMx86AwsH5iPqu7Qbtkg/+ypcuxc8cu2VGAId/yX5bKioi8kGsh7d27WzaQseX47JmzWL5sBcLDw7Wtt8MbMFicrZcQkFdhuhMZYIJkdXnMedw8POBZoiz8yteDq29ZeASUh4enN7xEIdYZMBTie8cWokbiv2FiaiyuMyvjjoqKwuLFS3Hw4GHZIbZC+fKyAiIv5EpIDGUOHjqANm3a4MKFC+KiluH48eOZeiKmew3x38Pix1UTZ8vVCQsQ3oysrlF2WxEeyTe4JmrVuAsubqXgGlAZOlchLi8vba/iC9OGU2GnlLC3vuJCu4rPzK6Xdnr+/HnhmZbJZply5crjxMljwltd1/awH7vtmmWBP1f/juDgYIScDcH27dtlb4WsyggsC/UTZ3GloooADD+zShRmEwZRLkpNisOJizvgVSpAhHYesm9YdmXC4gJ7xhW2UDwraG7NhYp6iZtp6dF3O6xVZvNMWFiYrHCgXbOnTW6wW0jsv3Tk8CGUKVNWhnJsbGWlQ2bUFr+mtziDdxEREWH5KCtjMYlyIbvhpISfhSk6BPGXjyPh0kHozamIj4vT9iq+eIipqAiJMFNsKuyvu5gy80zsIED7Zb88FlEoonPnQrSt9mEYP378e9p8jjDX3bxlI+rVq4uo6Gj8+tsq7Ni+M1NvVE5Md4ur98xCRJ4BJdB2xIso26gxwo4dhVFrbwqsURO1e/dFzOXLaPHU07IbfdSF83JbQcAyAGuAsirtcTiHgZ0nTanQCQEhLRmxcbFITCj+jc5lRdo0yMIoc0P5Zi3Q/a13cWbDenH/U2QtaL17+6PjmLFo//Jo1OrdB96lSuP66VNIS0pCsosr3MoEQ+cfAJ2f/21TCmvPhDgymlygWJEo7ukVbTk9dAImk1F2fK1Zs5YI9U6hdq06sjxsK3bX2lGxjCP9hQjYZ27jhk2ZNrjyoD1Eavtlcy3NHnsCQXXrod2LL6PNcyMxZPY8GNzc8Oivv6Plk0/LoRJl6zdAze69tG8UDLz2utlcN/uzxURHIeJ6OCLFxD6FcbEx2tbiTWUxOcIjla5VFw8tXo6yDRuhfIsWcHG31JN2GfcG7p70NS7t3InlTz2B/fPno4Wwhb4Tv5DNEQHVa6LVfUJoDz6U6VSjXQdLk0QGeM3dxOoKlsVboBPYs2cfzoiyEm05JiYakZER2lbbscsjHTy4XxhSqsh9E7Bh40bZjy5j2YA/o4P4r76YstN0aaH+8s2bw9PfH5d27cS5rVtRrWs3eAsX6yoK7rt+mIWASpXg5uklcqx/tW8VDKxOPS+cbHby4A1wpp4Q/mLqKTJHd9sz6tvwEve2/UujpXdpNPR+XN69S9hAC+ybPw+pwjNEnDqFKwf2o9EDD6D5E0+hQstW2DVzOvb+NA8JUZEoUasWHv5pPqp36yZspettU4oQwtVdu2Bkn84M94aRhr+YTglzZWNueugg/IWXq1mzOry8PEV4d156J1u9kl0eiUazYeO/skErJjYWB/YfzNSQOIyqiTh/TpdwcOlibJ38Ddx8fREXForwY8cQLHIo/woVUKZhQyEi5n93BsbWnUXKsEygsKQHC+3seZIbPISR3v/TQgRUqISmjz4GQxZDwmOuXsblvXuw6fPPsOrlF/H3O2/j+qnTiAg5I7ezITwzj2NFb3ARGXEpuLhlXr1QUVx/lUx+A+147959whNFIiioLE6cOIZ4O0N1m4XEmg3mwi4iTuXQYFYfZkYdcaG2VC64enuh+ZNP4siKXxAVEoIub76JX0YMxzfNG2PjpxMRceYUwk+exNXDh7RvFCzlRcq0E78ju8ZZZ4AG0lKkQ1WbLeV2DMKwA6vXQKrwRPHCjpJFKJxw/ToSo6KQGBEhK3GsRF+8gPjwcAyc+QPcA/xxdvMGuZ4mFSsMnd/hcTKbYsLDEHriKJJFmTUzWLZrLQ7EjCEjtOnjx07IiIujb1mpZg82dxHauXM7zl8IEScJwpLFS7Fw4aLbPBIv9FnxX4ANQiIGVzeRiJYxNMxtTKL8QeS8OLY192F56U7Asx4X/60WU97avYsmzES6ilvQWEyZGZ+t8D6y0oDi8QoMFGKIhGdAAJJiYuDh5yfEFS5rQ9PjHRSEJCEcayUUSdMbYChfngfU1tyKSYjMEBOlLWUOz7JSmO3RDFbP8KxTp44YOfJ5+Pj6CKdhRvt2HbWt2WNzaEdDv3rtqowbo6NjsHv33kzDuppiyq6CISOsqZEiEce3iohYcyj5bIY7JCLCxKkj/ntQTI3E72IfQa6z4ycWKfi7+PtYHmJkcb/IFJuJFXkREeE9jAu9JjNNfhpFmSQuNFSWlfiZUUQkXqxPLyLiYhKZ64Xz0J0PyXTKSUSEv4+VScz000Mbv3jxonyYCvvgcTS3PdjkkVhTtXTZYrRp3Rr/rl+PjyZ8clt3IN4EdgGqySsthlDa8SKlmFqh/BTLCWJKFfM0gxwTsRDCe8aJjeXslxEgpiAxz/6GDM/zKqDCynVxsxaIG5oxAAwQXnLMmNHo1LkTjh8/hsGD7repwoH72CQkPumHHfsaN26CP/74A59O/Py2FmDeiCeEzFkz4izIhCuKCsqIuGdOdNuQJKZFQkiXMtw7PtXo+eefQ4+ePXAu5CwGDBgiH0qZEzaHdnxcEp8txt6yfJAjPVRG2OO2qHQDchT8ucywivxk+TlOA8t+DF8zkpZmlB0NkkXIyXI6n/5qKzYKKVkO2Y2NjZGD9zK2HRFvUaAsrqGAonhBoy+RycNpWCt9/fp1pKalwsWFjsP2hnabhBQVHSkUqre0/AqvlKmQ+Cw3bV6hKOwEaL0p0kO7joqMkp7Jzc0d4WFh2pacsdkjcfgATxAXm3nnTFe9KHBp8wpFYcddhG6ZwWeLsz8lxyklJLI6yTZsElJkRIQci8Mqb54oM5SMFEUJDn3JCD0SH7Bp6XjggsuXLmlbcsY2j5SSLA/ME9A7KQoOduTVu9jQVTQTw1DYD2uoGXnRcdjTTcgmIVFAHNDGz8x6e9uFuOF+ZYOlgRR1Slaphupdut2YgurW17Y4hpo9emHYoqVoNHiotiZrOo5+Fe1eGqUtKXILa6hZK83HjWVWO50VNgmJr1dhNw+6Pqo1t/AYNbt2xwub/sMDs+Zoa4suTR97DE+uXYdHf/sdD6/4VRjzGJFPiCBXTHrWCmleolyTZkIQy+Du4yuXScZ9SOtnR6Llk8PlfEDFyrK/WdT589j38/zb9q/crgMeXroCLu6Wdo4qHTuihkjbG3D/DOUAS6fPW9fxnmTcz5mho+D4JKY320ozq1jLDJuGUfBh+CVKlkBsbBy2bN4in8SSkWBXF1Q3pWVZUuINazL0Adz7xSS4eXlh97y5uLB7l7a1aFKtS1dUatsOf7/7NrZ8NQmn1q2VYVj3d95F00cfR9X2HZEYEYku419H/QED4FehIpKiouBfsRI6jxuPxg8MQ6XWbRB65AiqdOggx+IE1a+P0nXqIC0xCWXE/J4f58CUmoZu77yHZg89Ks+XEBaG7u++j9r9+sG/fAXEXr4CrxLi/ly7KoecVO3QSRz/dTQacj9K1a4jtl8S3uplObanTr+7xfFSEXHmNOr2u0fuV2/AQNnz/uqB/bLbjjNw3c0dRzJ54QArGTp17ihHzIaEnEHrVm1kmJcdMpPT5rMlMSlRKJMhHl/0lbu+b5Vatkbf/30kOylyrEirJ5/CqG275PTowiVFNtRjIgZWrY7gRo3lcIH+075Dm5Evwj+4HOrcc4805KpCcPQQwU2awqd0EPzKl0f17j1RokpVaeD9p34rhDYYXqVKwadMGbkfh5NUatcOJatXx+DZPwpv9ZzYFoS6990nhFYXFdu0kecv16yZEFFJ1OjZC9W7dUfpmrUx9KcFaPrIo/K8NXr0QEpCghzfU6JyZdS99z7cL7bzWvt8+jkaDBosQtK6aPH000hT5V/5ulVGXeJ2SW9kNNpm7zYJibV11gPnVkgcyOcq1E4M7u7CiKrcmCq0aAGfwNw/oO9OohO5VY1evaThBjdugshzIVJcidFR+OfDD3Bg8ULsm/+T3HdWty44sHQRIk6dxsFFPyPs+DGkxMfDp1ww/npzvNznwMIFmNG1kxx+b4XDTEiCiAT+fvst7BfHPPrrSrnuuw7tcGLtajlPSglv5lu2LNa++QY+q1YJCx8YKrxbInZ8Ow0Xdu5AxMmTcBeZGQXN3tcMXC5s34YljzyCVDuqe4st0sYtoZ092CQkKxQSPVNu2L9sCY6vWSMvNCU2FjN698Kn9erI6bOG9RB9xfaqxsIEezL/8txwTG7RBNu+m4pVr7yM7dOmCY/TAwOmz0TFFq21PQXi3jATeXjFSrR+fgTS+KJpEUpZbpr1xt1+A5c9+zT2ilC4zt33YPCcuShdq462hY7u1v0ZNlPcfM4Fe9EnRUWi10efoPsHHyKwek3EaFW6HJH6y/CnES4E2/KZZ/H4n6vhF1xebnNmbtr47fchO2wSUvoCV/p5e2But2L0S6Lg/LMcSt7jjbcQHxEup9Q8PuXyTsIKgOaPP4GeH/wPDQcPQdfX35YjOvfPmycL8SWrVUNqvCWnZ3mkVs+7ZPh27eBBRF+6CBchLEJBcShJ5Y4d5IM//ERoZ6X7W+/g6sEDwostkucrWVUcU4iQdHn9TVmZYYUCShYZVYdXxqDz+DfQa8InQni1xf4Jcki/tzg3cfP2lmWs7d9/h6v79snjepcuJbc5MzRv2jjzJ3u8kk1CutHYmktvZIXhzq9jX8GKl1/Eb2Nf1dYWYUSYS7E0fnCYNOi69/SXz6Ho9+VXaDF8OC7t3o3Dv67AyXV/yRCu/ehXUEqEuPt/+glVOnVCmxEjEXPlikzX1KQEbJsyBeWaNkNXIRyrd+BNrdyuPe7+6hs0EeFXyKZN8ngn/1otvWGn18aiXOOmcl9ycccO7JwxXZSh2qLXhxPk8XbNmikzr27vvidHqPJa+Oqdpg8/igHfz0DZJk3Ed2bg6qGD2lGcHfsN3aZhFBs3/Stf1MQOqyNGvIgTJ05qW27SzNMDvVKT7IsVizisoXNJV0liTEuVxs3RoKylTIi4fmPAogcfGSVEx9GhfA+qHCkqn1Yjsimxb1qyCPHEp1fJUsKjRItjpcHVzR1pqSkyRPORD3nXiWOG3xj4yEeaEWZQ0rOZzEhLsVQYuHn7yDIpr4ED69x9/fh16a1c3T1kFODi4QGvEoFCWHGivBQtv+csnPDxw9Ko2zul8ln2s2fPQPny5XFFZHItWrSRHbazg57LJrvnK/w5LsPX10cagcKCSQgnJSH+xkQRkfjwMMuI0HQNejRUKRzhYW6MFE0VwhNCoYgIDT4+PFTWnrFmM0WEw/IY4jt8QExcGEeZ3mzHoyg5cTtDQ6uICMXB67COMOZzEpJjhOGIfa2hNL8TI8qmziai7KAoaOd841+pUqVkiGcLNgkpmg+pEIVTvh82syHmCkVxgaF0tLBzdoXjcHOxaBM2CenYseMIFbE1HziecWSsQlGcYPMO7ZydDraL8qatlWs2CYkH5wGNWpigUBRn+AQhyoftSbbiTHUDCkW+YVOt3bffTkHDRg3lQyE/nfgFzp07p225SR0fbzQ3m6wV5QpFoeaypxf+Cb/9fUh8kvAbb45HI2Hv69f/i5defCXHB6CwgsJhQho0cCD+98EHOXbwUygKAytWrsTY8ZZuWem540J6/PHHMWPGDDkAUKEo7MyZMwdPPPGEtnST3ApJlZEUCgdgo5BsqwJUKIoHtHf7bF55JIXCAdglJFsbpxSKogzN3F5TVx5JoXAASkgKhQNQQlIoHIASkkLhAJSQFAoHkAshFVzNnXz7RUyM7H1emOD1RGljtHIiPj4+70+ndQCscbU8IP72Hs28vri4zF+OoLCNfPdIfEXmhx9+iDFjxuD999/HL7/8YvPzw9esWYOuXbsiRHscVX7Al6dl9YZ2KxyDderUKfkIWxrksmXL0KNHD2zfvl3b4ybczi5U/OTQ/MGDB+P777/Xtt45eB8efvhhrF5teXTX2bNnb4hn3rx56N27t0wLhf1V38RmIfHguWlHYs49a9YsaXzs33T//ffj3Xffldusb7fgDWXubj0+hcZ1HKG4f/9+JGlP/+Qn1/OT+3Li97iOx8l4fdb90x/buj8/6VlmzpyJp59++sb3KRpu52QVzooVK9CnTx9cunRJehiK6ttvv0Xnzp1vOT9/D18Nyj5c/N18aueAAQPQqVMneW4ej9/nxH3TX781c0m/jsdM743pOfibuJ3HsG7jpzUdrQMv06/jd3x9fdG/f380a9ZMCrxp06ZYu3atPG/z5s3x6KOPymcTpD8uz8Pjcdl6Tdbj8zqtx+c2LjszBVZGGjFihDTACRMmYPLkybh27Rr++ecfeUN5I1u1aoVt27bJm0OjrV27Nr744osbN2jVqlVo164d6tati+7du+PgwYPYu3cv2rRpg7Zt26J9+/aIjOQrki3QW9CbtWjRQh573bp12Lp1q5zv2LGjNPAdO3Zg0qRJ8ryDBg1CWFgY3n77bXmshg0bYuTIkfJN1x999BEuXLiAu+++Wwqb35s7dy7+++8/tGzZEq1bt5a/YdGiRXjuueewa9cuee7169djypQp0gvT2OgR6tevj0aNGslj/PXXX/L669Wrh27duuHAgQP4999/5TXzmPy9p0+f1n4R5LF47RRwnTp1ZIZEcf7vf/9D48aNUatWLTzyyCPyd/z0009o0qSJPAYzCo74pPgp9DfffFOGzK+++qr8LgXFT14/03fjxo1SYLyG5cuX4+eff5b3idfJe3Py5Em5nr+Z19+3b19cvXpVu0rnJFsh8Sbt3rUTSTaGYjnBIRb33HOPzOH27dsnjWLnzp34/fffcejQIWlECxYswJ49e6RImEtac2gadXBwME6cOCHX0YiOHDkije+9996TYSBf606Y23/99dc4c+YMtmzZInNjGv6ff/4pnwwzdepULF68WBoKRUNj47agoCApJAru9ddfx/Tp0+Wbrim+ypUrS+E3aNBAekqKlmKlUY0dOxabNm2S3pbH43EpFBoyz0cPMH/+fHmNv/76q7xmegYaNA2XaUFv8+yzz2LDhg0ylOVv+vvvv1GtWjX5mwiNnyEZBfjUU09J4+c+/K08N9Ns5cqV8hwUBz0R05MCZJrQ2HlP6ZnofbieYTev7/Lly1LA/G1MC3phZnZdunSR19KzZ09s3rxZnv+dd96RGRtfE8lMkWlZtmxZ7Sqdk2yFRDd+4eIFYfiOe+AJvRKPW7FiRXz88ccyhx6vjQvhTWbOz200YBoRh2XQgGhoXM9wiTk6wyzm4sxt6QVYFmFOTLgvv0PvNmzYMCmkqlWrSjHedddd0qPRO9DQ0kNj6tWrl8xhlyxZItdZQ5nMGDp0qPQAr732msyp03uPjLDcVKZMGflkGm9vb2nI9HYUm7+/vxQxxcnr5W95/vnnMXDgwNvKbzwG04DCZsbEY/D3Mh25jWnEtBk1apT0qvTW1vTNCYrhsccek5524sSJ6NChgxxWQAHS8/Aa+UQplrdY5qXIKMpnnnnmRto7KzmGdhcvWW5UXjl27Bi++eYbaSgMe/jcMBZ8GaJQCFYYPtAgmdvTm1Bc9DQ0Nua49FYM02gkjOfHjRsnQ6fdu3dL70b4KCUahaurK7788kv88MMPMpQ7fvy4DC25P0McejoKlZ6Lno4ekSHjp59+KsVqhcfjueg1mQtbYe5Nz8VxWLwuhnQUCHNyZhjp961Zs6YUBXN1ehHO0/jpQfg9ejZmHCxb0QPQWzANeD3psXpZho30MvQiPCe9CNOT23lcZiIsk/JYs2fP1r5tgenCdOU1Hj168xnjhF6Ov4VekpkDj81rZ4UEr52iqlGjhvyNDIs/+OADGQrSUzkz2QpJr9fJUMXLy1tbYz8cFMVclzeMIdyTTz4pQybmysxxaYwMDx588EFUqFBBllU4vfjii3Ibc1Tmggw1mCOyIM94/a233pKCY0jDfXks5qCEL4migbMmih7jvvvukyKi4XA/bmOOz2u49957pccaPXq0DLcYbrI8xxyWgqfR0UMwp+f36DFpqDQmHm/IkCEyzLSen7kzj8vQi2JhOYLe44EHHpCDH+mFGT5SmMxY6KGGDx8uyzgUD9OJx6JH4LFZBksPMxSGY9yPtYH83rRp06QhM1RkWtDjUmisWWT5hmnFzID3gWnI71AkFNjChQtlujN8pYcrXbq09Nb0QAzDCUNHCo+elyEej0fx9+vXDz/++KPMHFk+Kz7YX3GS7QjZpKRE+Y6Yv9etFYnfRIQnIfj8s0ni8/bq4qxGyLI8wxCKn7xRNEwaOmGOym38jhyuKyZuZzhFL8ibzxvIXJHfYQGYy9yH26zfJ1zm+vRwX36Hx+UxiHV/LvO81hopHp+i57n5Peu5raMjuQ+x7sP9+XsyOz+9AeE5uC/Pw23pr4fhGT+tv8n6fes+JONvYvMBPRg9J9dbj0F4ffwt1t/F9ONxeJ3W9OO18nvcnj6NCeetx7OmgZeXl9zGe8djMb3TH5/7Eeu6okTWI2QDMP71sTKz2bBhff6MkBXpaTdWo+FNsd5QKzREa3khvdFwnuutxmL9DvfjeuvNt37fum9GeHO5jefmvun3t954HpvLViOyniO9oXLiMThxfyYsryGr81v35XYew7ot/fXwmCT9+Yh1n4zHJCyv0HtY09N6DMJ1/I71d/G7Pj4+N66D+3If6/b0acwp/fG4jctWuJ6/OePxrddpXVdsEHZur63bJSTFnYUVK6x9tGYkisJDjkLKhRNS5BP0EqzNVBQ+lEdSKBxAzkLKTcFIoXAylEdSKBxAzmUkOiTllBROh31Gn62QKKLLly/JNgOFQpE1OQjJhB07diJBa4xU5SWFM5AbK89WSAaDi+w64umZfcuuQuHsZCsktrr36NELHh6e2hqFQpEZOVY2KBSKnClWQjKnxcB0eQ6MZz+GOeEkYIyD8dIMGC9Mhjk1Eqb4YzCGTITx8myxLR4wJcMU9itMUdu0I2SBMQFIjRDHEFOaZTJlMhnTTWmZTKnGm1NKJlNyhinJdHNKzGRKuDFFyineOpkjEWeOEBM/LfOxcorUPiMQI6dIbYpANNJPkUhB1oM5Y1KjcDb+JC4lnIfRnCaXz8SfQFjSNaSJ5cuJF8T2E4hKEb/DlIRz8WcQknAKScacHxZTVLHp/UjTpk2W70cKOXsWX3zxlV29vwsSc9wRIZKZYiYZ5pQw6P07wRTxOxUGXYmuQgxR0Bm8kHbha7hU/wSm6C0wh/8GQ+VxMFTJYvBbahhMp15BWuJR8EkGJpH1cJijUWeZTNpnZuu4v3WddfuNbWJK4yePqa27uZ/u5rLOLLbrkKbtl/57xgzXwonr07Tvm8R3+T3O8zuWdWI+3T5pomidph0nRe6nQ7L4rK9rgi/108Xa23l/7yu4ghCciTuJTxvOwtRTE4TwkoSgovF06XGYeukDBHiVhFlnRG+vB7EiYi4Mrjo0L9EOr9f6VDvKnSW73t/jxrP3dyNs3LjBsS8am/atEFJDCumMENLXhVZIEiEa45kPhfe4IsQUCX2JDtC5BApBrYZL/Z9gTgxB6o4GMNT9SSSAmxSazr1i1kKKPwTj/q7Cy4TfMEbrZF3O+Gmdl0YtjFQaLo01w/b0+1vX3fykoQsj5zy/n247BZQKTQhiHy7f2C7W8zNVEyA/rdss1yLW6S0CS9WuLUV8ckAEhcQpQXwvXnwvwZC5aZw6HYKgciUx/NC9GFruKXwV8g5+bLIGT++7By8FfoQGHs1x2nMv3jv5IqYE/Y56letg9sVJ2B2zGTObrtKOcmfJXkivyWEU9ghJJGExwpSCtHOfwxixFoZKr4lf6CaFZRbhBXR6Gd6lHX8R+krjYSjVB/rSfUVwe/vwi1sweAsv5qstZE1GkxP2KHJkyzwXOGtdzDXpDyAMnWcV99By7hsXIGbENsuulpVyXvsuP+RXs8UsPFLWA/WCq5TCV+ffRgldKdT0rieMSA+DzgXuei8ElPSBISgNcy9Mxds1vkGzWo2xO24TtkSuxRu1vtCOUPyw3SM1aIiz9Ehffo3zhdQjmcL/QNqhwdCVEpN7Beh868N0/guYjcnQBz8C05UFwkYShJfqAV3J7jCUGYy0k2Ogcy0jPNI47Si3Y046J6YQaZZyshov5zlpy9J8b8xrEy033Xz6bQyzSPp1t3w/w/63HVubyM3z6ORx02+znEd4KB6Ac9p2kvEaLLvoUV1XDwEowYXbmCI8/oqQRfi06UyU8QjGAzu64sUab+KL029hQp3v8eGJ0ehX6n70Kz8EYclXMeLgQIyr+imal2yHer5NoReZ2p0mW480TvNIm+iRRudYa21zaDd12jdo1LBRoReSOf6YKPdYKg50wpPoS98LY9hvwlqEkAJ7CaGJ8pKGjjmpfyux/3bhrDyF6G4+o0GRPZ8efhNX4y/L+b7Bg2HWm/Dn5WVoENAcdfwaYOm5uXKbq94NVX1r4ET0Ebns4mLAR02+hUtOUUABcEeEVFQ8kkJhK7YLSb2MWaEoMJSQFAoHoISkUDgAJSSF4jZyrDa4DZuFZM7FwRWKoojF0u2z92yFlJaWho0b1t94CKIaLatwFuw18xyFFBoWCqORHUkUiuJPbv1EjqFdWGioGmquUORAjkKqXac2vDxvPr5WoVDcTo5C4itVXFxVbwWFIjtyFBK7PygUzoX9JaVshXS7hlSVnUKRGTl6pPRP4MqtjPh+Hb67R005T0yrnFDpafuUG2y4BbeRo5BuIRcn4I/hC6n4oio15TwxrbITE1/2ldn31HT7xLTMKT1vg7vmu5ByAavOc5szOCPWjCerm8/0tMswnBimEzOegmi+yVch8UcoEdlPVkJheioR2Q9tMDfplpaahiNHDmlL2ZOvQlI3PfdklnYqUypY2L+UL+W2hXwP7RSKogpD7FOnT2lL2aOEpFBkgZubO2rXyvppSumxU0gqVFM4AxY7Nxj08s3wtmC7kMSxi6qMTGYTElLjtSUgPiUescmx4veY5TYuK7KHaRSdFC2nFGOKTDfOJ6VZhtgkpyUj1Vg8OjffYuc2duyxWUjy4HdASXEIwyXdASToIqXh20tEYgTeXfcuRq8aLZdjkmPwxNLHMGH9BFyOuYz/zv2HuXt+lNuKG6lIxAX9XkTrrsAkn6mae0b8OgJfbv4S3+/4HoeuHsTGsxvx1to3MXHDJ1JYH2/4CBeib3+6VFHF3nqywllG4q8wmRBlOocvPBphikcbfOhRHhM96mGzy3dIQQJ3suybAxejL6Ju6boo4xMkl6/EXEFJr5JoX7kdjoUdxdpTazCwwaBiVMNoSTuTMRkLXJ/ANPf2+MSjOt7zDMZy1zGIxTWxh321f0ybw5Gn8VLbFzGmwxg0K98c2y9sxeAGQxASfQEhkSHwdPVEpYDK2jecj8IlJBqz0QidMQ06kxEGswuCTA2Fd7VcZrTuHH53fQVfe7TFBpfJSEbOIVmjso0wsP7AG0Ip4RmAM5FncejaYRy+dghHw4/jh12z8NP++TJcKbJY0y7NknY6IZdAc2W4wBLjp4q02unyLT71rIsVQlDXdWfleltINaWiXskamLlrJsauGSu8+BaU96uAreLTRYQ+07ZNxYWoC/hs40ScvH5S+1bxwNYu24VHSMIQpICEMZt1wgwMLvA1lMfzKWswITEWbySdQ8fU8XA1+yBCdxKrXcdjlttA4ZuitAMAvx1bhfKfVcajSx/V1txOkE8ZvNftPfi7+2HmnjloUa45nmr5NM5ePy3KUfR0RRCRZhnTTmfwwN1pE/FB4jUxRWBAyvcoaa4hArwk7HD5HpNFZnRZf1A7wK08sOhBmY7/nF4nl90Mbvhx0GyM7TwOz7d8Dv/bPBGDGgyGv8iUagbWRIwoK1UvWQ0DhGfffXmP/E6xwfos6BwoHEISoQgNgd3NzXoDIAzhZtdznfzzNZdG37R3MCZ5PzqnjYc7fHHBsAm/uY6FUb5LAehTqzeOvngQ3933nVzOinaV28PH3Rcf9/gf/D38kSIKymki1+V5ihxSRHxfBQWUMe0sqecKD7QyPoJRSTswMGUGSppqCm8egyWuT4tM6fZyzQ8DZsl07FS1s1xmhcIZkdHEJMXgXNQ5lHQPgKvBFQ82HobzInQe23k8kkUomZCSCBd98Rq7ZqOObBGStexg/XQw9EQiFJGzFJE++0vyNwfjrtS3RA5reXfPfpf5WOdiecsBb6Kfhx+8XG8d0asXhhXoFagtWQiLu4YeNXqiWblmGPLzAyK+rwQvtyI2ElgL5+QsRZTDw+kpqJbGh/BEyi8ibPbEVeGR5ro9JLyUJSOywnRgOlpFkZSahIkbJqLt9A6YsWsGPu45QW47EXYc/Wr1QY3AGiIzShFh32toGtxEfsfZsNMj5YOYrCKShmCb/Flmamy8D11T3xbzLtjlMgvXdMe1rbfjZnDHqA6vaEsWxnR8De4u7mhZoRW2PrsFT7ccLnPvIoUsC9mXdqSUuRqeTvkDXuZAhOr3YbdhvrYlcwJECDd94Awceekgfn5gESr6V5TrW1VsjT61+0lRvdP9Pfz9xN8ixKsutxVlLOVp+2w9RyHxmPK42rxDYVgiDmqmF8rFqz7aGp9CKVMNxOquYL9hibbWSRDpxrSTAspF2lU2tUQj44PCXIzY47JQW6vILdneAYcLJyPWE+TyfTm+5iA0NT4m5szY6/IzTPLddk6CyITkRw6hcFbQq7dMs1TKnNdvztajK3Imd3fBQcgcNY+0THtIfkbpziBUd0LOOwXWpMvDS7uCzfWFR7eUaQ4afpOfityR4124fv060vJ1YBRDk9yXTbwRCHcR65OL+r3y0zlgP4/cpxthmbCmqYucD9MVr/afgiZHIR08eBDxCfnXF80R0aOnJiSnCu1I3nQkpehu9pbzRt2tNXcK+8hRSEFBQXB1ddOW8oO8SylJFyk/9bj1lYocURoXFyeKYrk/Bz0yx/8TPgP97NmzmR6P6y5ftrwOMiu4vTA9tZYeKVlnySQNyP6tdE6LjaaTrZDc3NzQtm07eLi7a2uII3zITfKYqSJWFyaEZBnFWEGL9wkF8MADD6Bnz554/vnnkZBgX6+F5cuXy+/89ttvuHjxolx36tQpPPPMM1KgGaFAPv7442xFy+3Xrl3TlvKKkAHPlYdMghzT/yU/S5mct5+cI8hWSHq9HtWqVYerEJQFx4mIHSd3ui3EFK8+uKjLfbeSXYYF8tPHXBFlzLXlPJk3b578/PPPP7Fnzx788ssvaN++PU6cOIGOHTvi2LFjePbZZ+W7b69evYrXXntNvlP0ueeek98ZPXo0Zs6cKb1IdHS0XP/+++/LoceHDh3Co48+ihEjRkixvfDCCxgzZozcj9sefvhhPPLII4iIiJDX8OOPP+LBBx/E4cOHERsbi5deeglDhw7Ff//9J7fnhsuGw5jqdTe2ufwg0zI3XNEfRqT+iPTkjY2DtLUKS95kn63nGNrdgJmfNusITOLvhGEtLhr+E8YwS1trH7G6azhgsLSBtEl7SoYqVuiRGjRogICAANSsWRMxMTE4cOAA4uPj5Wd4eDhCQkKwe/duKapz585JQdBjlCtXDmXLlsWAAQOkN+L+W7duleIgFNeFCxfwxx9/4MqVK3L55ZdfhsFgwOeff459+/Zh/fr1UsBk9erVUmhlypTBzp07sWTJEhw/fhwLFlgygdxAITHttrhMkUNM7IXlyR0GS7qXN7VAkLmmnFfkDtuF5GAMcEEd4z1yfrfLHJzQ/2tXzsp9dxh+xFX9Afiay6Ghsb+2xUKHDh3w+++/44svvpBiadasmRTVTz/9JN+8vnfvXmnYjRo1kuGYt7e3FJCvr6+cXF1dpQehOEqVKiW988aNG+XymjVr0LRpU1SqVAl8pDO90t9//y3nGzZsiK5du+Lrr7+W+xB/f3/5XYq7fPnyqFevHt577z089dRTcntuqGJqA29zaYTrj+Mfl0/l2CN7uKjfj32GJSLrMaBFGtvibocZzGeffYZp06ZJr50RZhbTp1u6allDWuvn0qVLsWXLFjmf/qEt6UPf7MLgooYuMjIyx18z7dvJqF+vvnwQxDdfT8H58xe0LTdhiDRjxgxppFb4fqXsCtepSMJStxeEV1kAT3MpDEr5HvVNfbStWUMRbXGZib9c3xLHiEOf1E/QIW2kyBUM2h6WigZ6khUrVshyzrp162RFAY2e10RvxRpJLy8v1KpVS3oVei6Gfvw8cuSI/C0UFAV2+vTpG8+bo4BoZJ6enmjevLnclxUSFEy1atWwY8cOeY62bdvKfei9Tp48iRIlSqBu3brSG4WGhkpBUVgZoSBZPqV408NjMk0tmLHbsEik35NyqV3aC+id+oHsT5cTHCg5130wYnQXUdHUAU8lL5OdgDPCMiZDUpYNOQ0ePFheE9OAn8xQBg4ciMmTJ8tlpgt/63333Sc9OdONMPN68skn5TpmKLQVZlxTp05Fp06dZLmTGVR+wfR0F+X89M+xnzNnjgzlM8LMdsyro0XG20Rea5fO3dCmTTtta+bwuIbx48e/py1nyc5dOxBUOggRkRHYvn2HKAvEaFtu0qRJE9x777233HzmRNk9QopeqaaxK04bNiNCfwLHDX8jwFwB/iifqUFQQHG6cGx2mYZ1rh+I4CQJ9Y2DcXfqx0JEtxodryM4OBidO3eWBhsYGIgaNWrIm121alV5I/lZoUIFaeysnaRw6KX4ye9yvnTp0vDw8JDL3LdixYrw8/OTguG8dV9u475crly5sjw2RUgoMC5zP25n2Fi9enV5nMyQN0YYVvobT25NTx3KmRvAqDPhvH6bnBJ1cQgW69zgJbbeHmwkIxan9Zvws/tjUkSBpnp4LvnPTEVEfvjhB7zyyivSQzMM5W9giBwVFSVrQ1keZNpSSBTZ999/j969e2P27NkyPSm4xYsXy+005GHDhskQmCE0045lyrvvvlumXcbf6kh4bKZ7+nMw/F65cqW2dBPe63bt2op7VVaG+1Wq0EYsfQuzgse9Y6GdFQ9xE+9PmYkaxl5I1kVgkdvj+MGtP9a4fIRDhj9wWXdQGMkeHDSswm+ur2OmW1/87foe0pCAusb7MCD1y1vKRhmhoJjr0ciLI11SR6Nr2htyfpvLVHzv3gvL3EZhv2EFzui34prumKyZ+9dlEua4D7rhiUqa6mBI6jQhoqwf7kEPSgGxTNemTRsphm3btuGff/65JSxjpkQPzwyJoa3Va9LAmCHs379flkmZsdA4uV/Lli3l8Rl6W5sXijJ3XEiEvZGfSFmG1iI88zAH4JJ+F9a7/g/z3QZjskdrfOveAQvchmKry2SE6g/DxxyMfimT8HDKPFFOuHV4xJ2CnsLeKnZHQCH0SB2PISk/Cm9eGdG6C9hjmIWf3YZhhnt3fOXRDD+69xdh8JsI0W+Gq9lDlCfvx6jk/1DZ1Eo7SuZMmDBBhrwMix977DHp3Rn6MGStX7++bFqgN2EtJT9ZGUOvdf/998t9WC5lbSgrWyhC1oay1pKhdmJioqz4GT58uPQCRZ1sy0jMdS5cOI9fVixFk8ZNtDLSVIeVkTLCmqRL+gM4qRflGf0WIZrjIvc8J8MUP2Ek5UwNUU3E9LWNdwnxVc/WEzH0YJU3wzPmkiyjMNxgWMKckAXhbt26yZq7S5cuyapxVkczDGNlAW82c0qGINzOKnM+munXX39F7dq10bhxY1nYpqFxf5aLNm/ejLfffhtnzpyR5+vXr58sC+3atUuEC+1k2YtlLVZisBq9b9++sgKC52UOba2cYE6ecxnpdiKFpzmlX48Thr8QqjuJcP1RkaYpovxZGmXM9VHV2Ba1TL1EuaipCKttb2RnWvFaKI6iCNPTvjLSKJEJNLWrjJStkNiSf/DgfuHO/5O1W/ktpKyw9CqzL4b+6KOPZBhC4TDRRo4cKcOKDz/8ULb/PP3003JibM8Kgzp16siaPO5PMbAQ3b17d2zYsEFup8ehKJmTsrJg4cKFMr5nuZCeiIlJUfC8bCNq0aKFzIj4fdYgsh2K4uP32DDLshrLbPfcc4+sWv/rr7/kjSO5FVJm5CbtihsFIaQcQzveZBYw7yS5MQR6Ahoic32Km6/wpKGzKpsZBMMPeiaGIhMnTpRCYa0cvRQrAVhhwOppeqSHHnpIpgG/z2OxVopGTYGMGjVKHo8ehR6HN4yCo5i4/zvvvCO9I72SFQqT2+mVWKMlMjMZ5uQHRUVEzMR4zwoFuaiVz1FIrJ51c3eTx05Xviz0MLdhtTS9JEMzioM9E1hQZix/1113yfYl1khZBXf06FGZU1FUDOPoFfhJcTDkY1cjthextofrWXXO7zLG79KlC2bNmiXPyVo5CpXTl19+iU2bNklhEgrRekzmfrwuhotcV9hgxsJMgJkGw1xruYaelsucZzODdZ7ekt+x7sd0ZCbFDIXruR8nZjzW4/L73JftTqxi5zouW70v5/kdYi2Hch2PZ+1LyfM5ktyYeY6h3aFD+7FVhHYNG4rQTvzQyd8UfGiXW3jDmfiZtVHwJmRcz305pf8NGeF2kjHsItzG9enPy3mmg7UqPDMyXosjQ7u8YG0wZsbAsiCNmDbwv//9T1ZxM3NgaMwMihkSw1VmEGyLYy0d1zNMppdnRsF2J7ZN8bey4oHRAb36okWLZEjN4zIjY3owDapUqSJDY4bFgwYNktXtzJxY5uU+rAxhWxSviZlRZveZ2BvavTJmlIgaHBza0QDSX0BRgtedVeJmtp6Gm52ICPfJTETEuj79eTmfnYhIVtd4p6HhszxID8DQlpUnLEtu375dCuXTTz+Vv40h2dixY7Fq1SrpfVib16pVK1mxwkZZdo+i52U5myEte31QbKygYaM425X4HcJGdAqEVeasUme51trVipkTMxOG0yz/sjaR3bR4jXcywybZCqmI6ucGzL2ZWylyB70H2+BYo8nqbYqBXsTaGM3GVUKDZ1ci9oLgfszVWf7k/qwmZ3coejN6NoZkDJNZi8l9W7duLbsZUUD0GhTUG2+8IbfTS7FCx5q5UbQsajCUtvYI4fWxt0j+Zfa2BXrZhnbJyUmi3HAEmzdvRAPhTotaaDd//nxZkGeOV5SgURSG0I7hE89n9Zi8Hmv4yk9up3EzfOU87z3X8/q5jvtZQ1sew+qp+Tu43rrM7dZ56/48VvrjWrfxuzwnP7menzxPdl6fx7YvtHtZhHbNtNCuqwjt2mtbM4fHzTG0IzeVlpti2J2B7TisKWOfOIYmr7/+uhQ7u7EwROF2xt3c/sEHH8jclZUNipvQeGmANFhONNj0n9zGee5nFT7Xc9m6X/pjcJ7Q6Lk/P7lP+nnr/tZjWOcJDZb7Wj+5P7dnJ6KCwiYhFUU4FojC4AA9VjMzFucQCRaK2cDIFnY2hHI/xvIsDzBmVyjSY6vrKJZCYghAATFOZ80Scy7G5uy4ynienUdZ68SwgYVaCol9yRS3wsyG5RvWljkTwnzkZA92Ccneg98p6PrffPNN2c+Lo1MZvrFAyrYiCoi1Pey6zzYl9hObMmWKrKZlLwPFTVgJwFoxDn9gdyiGxBzsyNHH7MjKHtRs/+E2VgqwlzfLSMUKG22+2IZ2rDFip0mONWLNEeNs9oVjYyyrZFkVS+/EUI9DQDisgb0fFDehB6ennjt3LiZNmiR7gRD23GDFE0NmfjJt2SXqq6++ku1NzkixFVJ6WFXKIeBsvKO4FLbBmi0OkWAIzAyJbUesmqZw2IODvTwIh0IwfGZIXew8ko04hZAIb3T66k9FzgwZMkRmQuy8ywZUdtVhTSfbktiLgR6c7UB8iAwFxEGAhbGrU56wsTxjh5CKSAFJ4TDYY55tcByLxEZYVjWz0ZXDSNj7YNy4cXIISZ8+fWSlBPctHuGxxdalh9WesZ4TdnokJSZnhAJiGennn3+WnVCLw0A8W2DDsK1lPqcJ7RQKe2Eoy5DWFmwXknBGDBeVT1IUezQjd3dzl5UstmCzkJSAFM6Gi6srWre2raFehXYKRRYYDHoEBZXRlrJHCUmhcAA2CEkFdQpFTuQopFtlpESlcAZo5/bZes4eKQ/aUT0JHItKz8JLtkLKtHeEHcJitxxOCvvIKt2sg+UU9sG+gfZkQrnxHTneFWOa8YaibOx2dANevHVEo8I2KJTsRnxym0pP26GImAHZi722nqOQjh47mqdnWvOms4uJmmyfshMKhZbZd9SU+VRQGXkOQjLLQV3JyXl74zV/iDVcUVP2ky2o9LR9KiiyPZPB4CKfIOrrl/n7cxQKhYVshcR4nE+ZpItUKBRZk6PvK4j4UqEoXNhfb1dwQaRCUYxRQlIoMmBv1TexS0i5OYFC4Qwoj6RQOAAlJIXCASghKRQOwEYhWQtHqpCkcAZo5/bZuvJICoUDcFohWV9ixWeXqSnvk7M+qtiKXUIqLtXfvOl8Zhlf9cI3vqkp7xPTk5/FgXxvRyoO0BNRQPxUOBard3JGnE5IDOcKm4hSkYIIXTgu6s7huP4Ituo3Yo1hFZYbFmCeYToWGn7Ar4YlWGdYjT36nTijO4GrukuIRTRM4q8wwfR1RlRlwx1CBETYrd+KqS6f4nG3objf7W4McO+Fu927or97bzwq1j3v9jRedRuFUW4v4Bm3xzDMbSDuce+Oe8U0SOwzzL0/XnF7Fktd5uKC7izMqlb1jqGEVIAkIB4ndEfwmes7aO1RG32FID5wfQ9/G/7CAf0BnNddQIzwM9khgieE6a7jlO40dui3C281HyNdn0Nbj8Z40L0PVhp+xjXdFRjFn6LgKLxCYviVcSqixAtxLDPMwxPuQ9BPeJzPXT7HJd1VbetNKprLobOpI4YZh+HZtOcxKnUMXk99G2NTX8cLaS/jqbRncK/xHjQ2N4QPvLRvWUgVAvtXhITPuz2Dge534S3X0Tiuc653v95JCqeQWJXKQmtyMpCUJKwk1bKuiIkpUfigjYa/cZ8QzwgRgq3Xr0eMLhYc4eUp/kqbS6OnqTsmpX6NPUlHsSvpFBYnr8GklJn4IPULvJ72IUalvY4xaW/j7dSP8ZHYb0bKIvyVtB2HEs9jRfLvQmAjUNlcBf5mf3Ez9dITndKdwg8uM9HVozXedx2Dy8LTmQtZWaq4YbOQCqyATsFQOHFxQGQkEBUlsvR4i7CKCCyrbNNvwHC3YXhQlGsO6o9oW4Dy5mDhbUZgdsp8/J38H+Ymr8Qw4WnKmytre9iGp/BIbU1dhcA+x8akXfgl5Q8htM/QwdQeLuKPGMV1fOvynfBQvTHZ5TMhYpGWipzJhanb5ZHyXUs8AWt9rlwBtm0Drl0DwsMtoqK4ioBHSkGyMN7PhfHejb9E2YdlGnoKH/jitbTXsClpH94Xxt/V2BtlzeXltrziIURV39QUT4hwcInwaD8nL0NTc2O4ij+K+qzuLCa4vo8n3IbgKi7LdYqsYerYa2qFJ7Szioje53/vAG+8ZhFRrCh8F5GGvqP6A8JYhwqj/eBGYb+cuawo47yBf5O24dXU9+EtBJWfUJgdTT2xPGktpqfMFvMdYBB/ZLN+C+716IrlhvlyWeE4CpeQEhOB+T8Bf64ERr4kykiifMRnRvCBiQZhDIX0+RHM4U/qjuBhtwH427BW+CCjNOiuxs5Yn7Qbo9PeQCWz5dX6BYWX8IF9jQOxIPk3vJY69ka4d06Ul0a4DZc1h2koHj0RCgOFQ0gsF6WkAGv/Aj4cC9w9CCgZKGIWD8DfX1iFl0VMhRA2iC42zMXdHt1wUSdCUkGw8EIfpU7EzJRF8EcJue5O4QZ3jEp7S4R7v6C5qZm2FvjK5Su85/qaCESTtTWKvGCnkGT0aJl1FPRErEhgxcLnHwJVGwA9eltEVKKkmIQhensXWo/0h2EZxri9iCjEyGVfsxfmpSwR5ZWRwif4yXV3Gp3462jqjsXJf6KHqYtcx7LbDJfpeNH9YdmzQpEe+238znsklovCwoBRIy3V3S+IkM7D0yKiQOGV/IQxurkVOhGZRPhGT/Sc21OyDYfG2sPYAxuSd6Ohqbm2V+GCFR7TkxfJ9igrv+n/xETXd2V4qsg9d1ZIFBHbiWbNAP5dBQwcZgnjKJ7SpYGAAL6bvlB6okP6vXjHdbwUEWklwqapqXPsrsYuaFjZ8WHqF3gpTWRYAoam01ym4EeXqXJZkTvunJCs5aLNm4AFs4ChTwP16ovYyBcoVcoS0nkKz1QIQ7oD+t14wu1+ROqipCfqZeyFBSm/I8AsvGgRwAAXvJr6Hh4xPiaXWcM4XmQKawwrxZLyTLlpZbFPSI5KY14pq7RPnQRGPgHUFeWiLl0tIV2gEFFJYZAsF7GCoZCJKFoXibdFId1asVDOXAYfp34FH3PhKA/Zijs88F7Kp2hraimX2fPhQ9e3EY84uez02Gnrd8YjMaRj5cKH71pCub4DLCFcSeGF6I3olQphuYgF9K9dPsF2/Xa5XMFcQXiileKzilwuarDMNCNlsSjTNZTLJ3Wn8Lz7w7JvoMI+Cl5IDOlYLpo5HdguwroXxlrE4+dv8Uas7maNXQG+ksNW/jAsxXSXb0VmZRb5uTveTf0QdTQjLKqUFh71jTSRoWn8pV+LpYaf5G9U2E7BWyu90ZrVwLdfAAMesJSF6JVYQ8d5iojlokIGhyZMcvniRuXC/cb70dvYX84Xdboa++CVtFdE2Ukv5fODy3Q50FBhO3YKyQG51KVLwCciB2zZAWjdzlJeonh8fCyVC4WwXER+NszGcf0xOd/M1ATvpnwuGzuLA6wwGZX6FlqaWsnl4/oT+E5kGs6L/XZe8B7pzEkg9BowfMTN3goUTiEUj5WzupOY7PKVrN3ygideTh0Hb1HCcDR8eMiPP/6ITp06oXr16mjXrh2WLFkiomETpk2bhtq1a2Po0KGIjo4W+Y8ZX3/9NZ544gnEsVNvHmHlw9Npz2teyYypLpNxQndY2+qM2CemghdShcqWyoSVv9xsI0oUZSZ2VmXZiaFfIYLimSpy51idxVhbi1y7s6mnnHc0fBfVsWPHUKNGDbzwwgs4e/Ys3nrrLSmw6dOn46GHHsLhw4eluLjf559/jmbNmsGbNZwOoIexHxqZGsh5DsFY4DJHtjMpcsYuITkgsIPIaoFnR4uS+xLg8EFL7VxSIhBx3TL2qJCJ6bLuPDYZNsh5VjCMT31fjgXKD/j27Y8//hhffvml9DyNGjWSIqH3iYyMRIcOHRAcHIwzZ85g/vz5okhZAv369UM4e8k7AP6u91MnyuEXZJN+g8hAouW8InsK3iOxIuHJp0Rp/XHgp5mWMhIniogGwU92FWLtXiFgizCmC7qLcr63KJQ31tpd8pPHH38cffv2xa5du/DOO+/IlwpTQDNmzMCJEycQGBiIBQsWoE+fPlJw3Pevv/7Svp03Wpk6ooXWxYllwoO6vXLemaA52kvBC4mwlu71ty1h3qcTLJ1W2cshMgK4LjwTY36uy80vciAM6xa6zJaf9EYD0x6UBfO8wrCsW7duMix77bXXtLU3YdmI27xEOn344YeyjPTiiy9KT9S2bVusWbMGLVq0wLJlyxAQEICYmBjMmjVLhoB5RSdMorvIMPg7WUO5wEVkdo6JRYo1d0ZILBcFlADe+Qi4dBZY+6clxON4pOvCK1FM1uHld1BMh/R7sEO/W86XMQejkbmpnM8rNP577rkHgwcPlqKxwhCOz4UbO3YsZs+ejSFDhuDo0aNSeCwfrVu3DsOGDcO2bdtkJQOfbsoKiDp16sgKB0c96bSjqbPIODzk/B+G1bLqX5E9dgrJgUbNEK91a+CrGcCaX4Hz5ywCE7mrDPHY84HCukMhHmuufjUsvVHYbmtqI4eGO4KyZcti9OjReOONNzBgwABtLRAaGoq7774bzz//PEaOHIkffvgBZcqUkUIhLC/NmTMH/fv3l2FdpUqVsH//fjmVKlVK5EUiM3IAbGQubQ6U84lIwk79ZjmvyJo745GssPdC7z7A4IeALz4Arl61CCdGFHDDw4Bo8XmHyktxuhhR2N6kLQGDHBTWZYevry/uuusuWXlw8eJFPPLII1i4cCE82M4muHbtGsqXLy9r68jMmTNRq1YtGSbSi7GywhF4wBNDjfdrSxyivsnJau/sdxh3Vkj0QGyEHfsmUDIYWLHIUiXO8lKEVl6yPrOhgEO8a7iCUN01OR9kLol22oC4/IRlolGjRsnq7ZUrV2Ly5Mlo06aNttXiyaZMmYKgoCC5XLduXem1ONWvX1+ucxR9jANuZBun9KeEX0rQlhSZcWeFRCgm9rWb+7PwQsJwF4tP5qwM6ygmhngJ4iYWcJX4Rd0FXNe6yXQydYWLViXsLNQ1NRLlQotgQ0UZKUEnyqyKLLnzQiIM8USIghGvAr8LIe3dYylDJQoBMbxjxUMBe6Wj+oNIgaXw3tQkynJOBscs1THXlfOhwj8nKI+ULfYJKT/tmGK6/wHgmVeAJXMt4Z2bCPPoiTjPzwIU0gntoY5u4q+WyWJQzkYFUyX5GSXKi6GZPGK52JILMyscHolYy0vvfQjUqA18MuHmAD+GetxegEI6ozspP/3MviiF0nLe2Qgyi3KrgDWYfOWMImsKj5AIxcKOrO9PBJ54mqVrS/mJPcMppgIco3ROFyI/vfiEOLPjO6gWBfxxc+h8mFbxosgcOy2zADwCxdKggQjxhls8kvVxXA6q2rWFZCThii5MzrvJPg3CU+YDbIC19Znq2e1n6zGyI7Nj+MD7Rs1djFP1ubM/PQuXR7JCMdEzsSqcE+e5jh6rAEjfUdPV7CrE5IpnnnkGV65cwa+//orVq1fLbjvW4Qt83eP169dvGKN1W0JCgpyPioq60euA+3KZ+06aNAmvv/46jh8/LpfZMdW6X2xsrOzlQKy9v/mZmJiIsLAwuT8nzrM70cGDB+U5+Z34+Hi5jcMtuMw+e//88w+SkpLkNu7H7bxmHpM9J9inz7rOel53s7swEIuJpKkHSWZL4RQSoWgoHtbeFaCISPo2ExqSHgbs2bNHGuLly5dx9epV3HfffWjatCmWL18ueyKwTefTTz+Vxsh9WrduLXsfbN++HY0bN5btPCdPnpQNrjT8nTt3yh7cFAgNmaLi+ueeew7//vuv/H7Hjh2lUXPaunUr/vvvP+GsG8hjsW/dBx98II99+vRpKaSHH35Ydil66qmnZFsUe4vzfGysZUbATq8tW7aUHV3//PNPOd+qVSucOnVKCo0Nvd27d8ebb74pMwBLA3TBpXtRpvAK6Q5iusW13+zPQG9CL8Pe2FWqVJH95CpUqCBzcXYopTgoJE7s7sOBd8zxH3vsMSnC3377TeQHOumB6H1KitB16tSp+Oyzz6Rhs7sQvZW78MIU5gMPPKCdmZWWRmncFAaPe+jQIdld6Pvvv5cNtdxGb8VrZB889pJgrweKiwJ9+eWX5fVyG8XL6+F1nT9/Xgqf18mGXuvv4nUmiT9rjwZ3c/6Et8UFu4SU90i8aMAqbyt8TJUwYVStWlXm7DRe9nEzCE/JLjv0EjTCcePGwdPTUxqgFQ7Qo8eiV+Kb1P38/KTRMpzjvuwGRCFw3BGHSXCZRs/e3BUrVpSC4ffSQ4HwOBRztWrVZE8HipLHCwkJkeOZuExB8TrZ68Hf3x+///67HILB7kblypXD3LlzZR89QuET9tWrV6+e7FVB4XIwI2vsiC/85acic3Qi0XPUx7Rvv0Ht2nVF2HBE3PiZuHjBMj4nPRxDw9DBUf298gsaGA0/O+IQg+qeZeV8TXMtLE9eDfcoT2zatEnm/jT2v//+Wx6nV69esuy0e/dumZOzkyk9w/r169GzZ09Z1qGnYo9vDh9ftWoV5s2bh8WLF0shnjt3Dl27dpWeYsOGDbLzKb0cv8Mwjl6F3mbfvn1SGPR0HI/EshGvhespal4Twzseh0Kjt+M2hp/cf/PmzbKnOD0Qz0dBU1jslsTj8Dr4HYaZ7JbEa/jY5R185ar160v5EfcYh8j57KDA6VELO8wQ2YM+I7xPI0Y+K0Prbdu24qUXR4vMJ3tvzMxTCSkTmAvX8QiWDZGVzZWxLPkPVHTQa1koMIaCDONodIWZ0a7DscDlJzm/OnkDmtowqNFZhWTHnXSWwM5SKqqqPfSRbyKP157X4Ai6dOmCQYMGFXoRkQt6S1taSXMJlDI7Z6O0rdh5N51HTFXN1eQnX54ciQg570ywkuGY7qicDxJ/+fWciuJC4c8W7xA1TPXkJ1/EdUJ7np0zcUS3D2G663KeXYW8zI55UlFxRQkpC+qbG4nEsSTPPv1O+elMrHHhmyks1DbVVh4pB5SQsqCSKCOV1F7Tslm/EanakApngF2kfjEs15Y4zL59utY0RWbYJiStaCSbG5ykmFTGXBaB5lJy/rzuIvZqb6BwBk7qj+KS9sATV7igtbGTnHcacmHjyiNlQUkhogbmm8O3Vxh+FunrHLnIDv1W2auB9Dfei1KwjJR1FqS/sPNWKyFlAVsG7jUO1JaA9YYNTjOU4C/D77LWzgUGPJL2rLZWkR1KSNnQxdgbweYycv6KCHWO6A/I+eLMEf1+bBRlQlLPVA91zUX7/U8FhZ1CcpICkgYfS/Vo2pNyns8s+MWwUM4XV1jJMM71RflkWdLZ1A0+Zl8571zI4M4yayPKI+XA3aZBCNJa9ZcalhbrV51sMPyF3XrLs745BovP8uMQEkXOKCHlQGVTNXQwWWqt0kRO/a7bWNltqLjBMtEPhu9veKMn055CHRXW2Yx9QnKuyE7CF3CNTBslc2iyTb8NWwz/yvniAmsjF7vMwb/a76psroRXUt9WbUd2YJOQrPpxQh1JGpiaYUTaSGlWCUjEFy4fIQbF5xkG+/U78bbreG0Jolz4lFOPP7K36puo0M4mdCLUeQG1zLXk0l79Przt9rII9SwvZi7KsILhM5cJImOw9HCvY66Bp9JGCMNQpmEPKrVsJMhcFi+kjdaWgF8MK7HEME9bKpqkiL9JQkTrDf/I5QrmCvghZQk8oTqo2oudQnLW4M7SQDs07TE8ZBwml9kr/H3XN3Bed0YuFzVYLprn8h0muX4hK1FYHhqd9hqqm2prezgz9tu58kh28nrqBLQwtZDzkbpoPOB+T5FsqF1t+EWU9T6V83ohoqfTnsHgtIflssJ+lJDspLS5DD5PmXKjFu+07izecH1ZzhcVzulO4Um3R3FdZxmw2MfYFx+mfikboBW5QwkpF9Q1N8LPyStQVpSbyHb9DoSi6LweMlmXLPvREb54+b3UiTJ0VeQelXq5hC8e+zj1M7gLk+xv7I/SsIiqKFDTVA+/Ja/Fp+L6lySvRiVtWL0i99glpNzUrxdXWDjvaxyE44lXMSVlrlwuKvBam5ha4bG0kfBSNXS3kZtxd8oj5REOwTao/mhOjxKSQnEb+V79nQufV8jgU0kV+Yezpq/TeSQ+FZPPuE7/jG6FY6CIlJCcCN5sisnV1fXGzbdl4uOYM06Z7edsE9PBmp7OmkE5bRmJjwy2GoCtEw0l45TZfs42MR0oKGf28jYLSVV9K5wJe83dLo+kxKRwCnJh504b2ikUjsQOISl3pHAm7LN3Oz2SEpPCGbDfzlVop1A4ACUkhcIBKCEpFA7AZiGx6ltVfyucgdyYufJICoUDUEJSKByAHUKiw1OxncIZsN/OlUdSKByAEpJC4QCcWkgmk0lNDprMTl6l65RC4k1PTk5WkwOnpKQkGI2Wdys5I3YJqThkOhRRSkqKzEUVjoXpWhzEJO3cTlt3Oo9kDUUU+YOzeiWnE5Kzx/L5jbOmr51CUkaocBbss3WnrGxQKByNEpJC4QCUkBQKB2CfkETYqEpJiuJObupL7BKSEpFjMSUnIzU8DIknjyN2+1ZE/rEKoXNn4+p3U3D5q89xceL/cH3lcphZXW9MgvHqzzCe/RjGC5NhvLYEpqj/YE48DXNKKA+mHVXhCOy1dRXaFTDmtDQkHDyA8OVLcHX6NFz9fiquzvgO4UsXIerfvxF/cD8ST59C8qWLQmThiPlvM1LEvCnuIMzRW4VorsKccArmqM0wXVskRDVNTFPF9C1MYb/CnHSRZ7GcTFFgKCEVAOaUFKSGXkPUP3/j/IT3cG3uD4jdugXJ588hLSpK7JC14etdXGHw9oZOz3fWZvJIYHMaxEGEgM7CFLEOxnOfi+lLmKK3w5x6XWxXjc/2Y39GZKeQVE5nF0IgiSeOS+FcnvYNIv9cJTxLnLYxE3Q66D094Vo6CB5Vq8G7STOUun8YXEoGQuddD/rSA6DzrCLumof2hcwwC1Gdh+nqQuGlpogQcJEQVKS2TZFfKI+UHwgBGaOjcf3XX3Bt1vdIPH4Mpvh4baMFHd9k4esHt3Ll4NexM8o8ORyV3puAyh98jApj30DwiJcQ9NCj8G7U2PIFvRv0JTvDUGk0XGpOhKHa29CXeQA6nyaAW2kIt8WjWvaViEwvNUKEg9uEqBZo6xT5hRKSg2EXmejNG3Hl28mIEZ+yoiAdLn7+8GvfUYjkMQQ/9wLKvfgKAu8dAK+69WDw8tL2yhmdaynoA9rCUP4JuFQaA0OF56EvO0wISwhPxzDwJuakECluRf6hhORAUq9flzVuEcITpV4P19YKu+Z7hPz9EXhPf1QY/xYC+w+CV4OGcA0Kkp4pzxg8ofOoCL1/KyGsJ2Go8roQVCOLlxKTvkQ3sZMZqVEhSLy4FcZEUXZSOBQlJAdArxO7YzuuzvgWSWdOa2stuJUth8ABg1F+1Kvw69RFOItbvUV+oHMLhKHc4yIMfBmGii9CH9gLaXFXEPnfJ4jZNRWRmycg8dy/4rqdd/yQo1FCyiOszo7860+EL1mItPReyM0N/l17oNyoMfBtLUIwH19tSwGhM4hrKAOde7CcN6Ulw5yaKDcZ40MRs2824o+xjSpNrlPkDbuEJMNsFWrfwBgXh/ClixGz/h9tjQXPmrVQ9pkRKNmnnwzrCgOuvuXhWYUhnobZhPiTvyF61zQV6mUgN8VJOz2SUpEV9koIXzQfcbt3wGwdzKbXw7d5C1kD51GlivAEhedVkDoXd/g1fgx+zUeIea36XIgp+fIOxOyZrjzTLdhv5yq0ywXG2BiEzp+LhGNHtTU0VBcE3jcApe5/yDEVCPmEZ4W28G81Ci6+5bQ1QErYYVluMsZd1dYo7EUJyU7MaakI/2UpEo8e1taIRHR3R7mRL8OvXcdC5YUyRVyfe1ADlOj0Llz8Kmor2eR0EjH750gvpbAfJSR7EMFz1Lq1SDySTkTe3ij98ONwq3DTKIsCeldv+Ld8Ea4la2pr6JkOIWrXtzBplRIK21FCsoO4ndulkKxlIp2rG4KHj4BXnbpyuajB8K5Eu3FwDaimrQGSL21FwsnfZaahsB0lJBtJvXYNkUJEVgOTZaIBg+BWrrxcLqqw4sG3yZPQe5bQ1gAJZ/9CSsQJbUlhCzYLyZmrvtnt5/qKpUiLuFlN7NOiJXybt9SWijauAVVQsv2bQlSectmcmoCEE7/JeackF3Zul0dySh0JEcVu2YTEUye1FYBH9RoIvG+QSD3HOvQrV65g2rRpWLFihVxOS0vDb7/9hnfffReff/459u/fL5/Jx+3vv/8+Vq9efWO/7777DpcuXZLLucHgUxY+9YZAZ3AXIasX3Mo217Y4H7mxczsswTndEccLxQghWeEwhxK9++WpipsPUVy5ciUOH75ZaXHkyBH06tULY8eOxaJFi+S63bt347HHHpOfc+bMQZ8+ffDff//h2WefxZ9//olHH30U58+fx7x58+R21zx2P2KDbWD3iQjs9gk8K3dCqtO2Ldlv66qMlANx+/bc0gHVt1UbeFSuoi3lDj7a99NPP8XGjRvlcmJiIj7++GOUKVMGpUuXlusI96O3efPNN9GpUyfExcUhJCREPmf7wQcflN5p69at8rtc9rKj93hm6PQuMHiVwmVzKj4/MR8Tj87Bf2H7ta2K7FBCygZjXCyi/7lZweAWXA4l7uor22Jyy6xZs/DSSy9JT0LP8/zzz+PatWuYNGkSpk+fjhIlbhb6W7RogS5dumDQoEFYvnw5fvjhBzRq1EhElHqsXbsWqampWL9+vfwOPVW7du3w7bffyjJdXjgWE4LY1HikmFKx9tp2XEm8mZEoMkcJKSuEMUb/uw4mkfsThnLshJrX3tv0PvHx8TK841sc6GXoWUqVKgUfHx9tLwuHDh2SU/PmzREYGCjLT2XLlpVCpIgY9m3btg1DhgyRn/Xr18ePP/6I8PC8Gb6/qzd02iBBo9mInRGHYVINtdmihJQFLBslpGt45XBvz9q1taXc88ILL0ivVLVqVVnGYfmmWrWb7TjpmT17thTY4sWLZdmJYuH03nvvSQ8VHR2NWrVqITg4WO7XrVs3KVIKNC/U8q0MN/mMCAunYy8iLk010maHElIWJF84h9R01d1+7TqI8gOHc+cdVgqMGDFChmLZ0aZNG5w7dw5PPvkkvv/+ewQFBUkB6kRoyRq8NWvWYOTIkWjVqhWihPDpjSiqjJ7NXgLcfNGiZD1tCYhMjcHeyGNIcCYx2Rkd2yWkPIbeRYq4Pbv4Dhg5b/Dzg2/L1nLeEbiIMPGhhx5C48ba8xg0fH19MX78eCkcwgoEeqxmzZrh8ccfxx9//IEGDRrIbaxYmDx5Mtq3b4+aNWvK6u/BgwfLspa/v7/cJy90DmoOD4O7tgT8G7oL88/9iavOMORC2LnV1G01eTs9knMoieOMEtP17PZp2lwO1MtvPD09MXToUPTs2VMu03OxSvy1117D8OHDUa9ePemNSJMmTWTZyKCNd+J3Ro0aJctJ1n3yAo+hE/fb28UTrQIboHFALYQmR2LFpX9FuckZykv22boSUibE79t7sz+dEJBn3ZthjrNwPPosEo0puLdcZ9xdriMGVOiK1kJQlxPDcEVMxRv77VyVkTJAASUcPaQtiTCsREm4lQnWlpyHZFOq/HQ33PTEbtrTieKNlppMxU2UkDKQFhkhO6hacRMFfD7p1BFcv35dVndnxebNm+U+hYHafpXhrnfDb5c2YEvYPvx7bSe2XT8IP1dvVPIqq+2lsKKElAE2wpqSb+a47lWq5akBlrCHAssvrKVr3bq17FPHtp7Lly/LbeypwHVffPEFTp06hcjISLnMtiLCBtawsLAb+7N6m9tjY2PldsJ59rXjZ0JCghQkj5Nb/Fx90KtsW8SmJWDN1a2ysiFOzPcs0wae6SohFBaUkDLAB9fzeQxWPKpU1eZyD/vU0duwBm7cuHGyIL906VLZEfXnn3/GlClT8Pbbb+PChQu4evWqrER49dVXZdcfwgbbVatW4Y033sCSJUswevRoWQHxwAMPyLYksnfvXtk+NWbMGLkPj8H+fHmheck6Qji31laaxJ/idpSQMmCMTvdQe2HwjhhvxF4Mbm5u0luw3xwbVZctW4Z169bh2LFj2LFjh6zerl27No4fPy7F9Mwzz8iOqBQRPdbcuXOxZ88e2dOBImT70cGDB6UHI7/++qusHj969CgiIiJQvnx52fMhL+h1ejQtWftGLwcSmlT8nyOemyo1G4UkDs1/uTlDESNVhFBW5MPrHfAgEwqE7T8zZ85EQECAthYyzGPbUYcOHfDNN9/IRtWmTZuievXq0ltRTOxXRyFRiNyPbURszKW3YjsU25AIwzj2zWODrLu7u+zp4IhqcDdRTgpw89OWgIgUiwdU3IpO3IAc5TFl6teoVbMW9u7bi3lz54tY/LK25SbMUWfMmCEbGwsz7E1tLXtkxuXJXyL5/Hk571mzNsoOf17OOzOzz/yKs/GWsU7BnoF4vsZQOZ8ZFD6FXNiht3/iiSe0pZswo3viyUdEptURO3fuxEsvjpbte9nBDMsmj+SInK3IIMIZKy5+N3NiZ8ZHGzlLYp3owSjS7G00fVVGyojwWFYM6cKwgoC1c9apMOFpuPk+pgTVhpQpSkgZMKUL+/Qe2bt0R8KavVdeeUWOfN2yZYu2tnDgor/52GUOp3COLkL2oYSUkTv0hgbWtHFwHodBsBqcA/RYyfDVV1/JGr7PPvtM1tZxMOAjjzwia+cKClMGD+lEgb7NKCFlxHCzssSYcOtb9goCVmmfOXNGVo2zsMt5Vo8fOHBA9gKfMGGCrCxhL29WqxcE6duO3PQuslq8OJObyNrmFOGxC1noni+wpzfhY4i9at+ZBz96e3vLMUZ8yEnnzp1lZU+PHj3kAMCSJUti4sSJskGWNWQFQUXPMjfEU9Wngvws7thr63bcCSkly2wxxq9jJ5R95nmUfXYkPKpV19bmP2z/GThwoBQQn8vAsUV33323bDviAL86derI/Ticgg9OOXHiRIHVptb3r44hFXvgrrLtcF/5ztra4o59tl68fXQu0Lu5w7NWbbhXrKTVfxYMNWrUkN2HKB4OGaf3oWD4ZKH+/fvLxlsybNgw2aWoX79+crkgYGUDxdS+dGP4uOTtSUXFFSWkIohTtesVEZSQFAoHoISkUDgAJSSFwgEoISkUGcjXdiRJ8a/9VihyhZ0eSSlJ4QzYb+cqtFMoHIASkkLhAJSQFAoHoISkUDgAu4SkqhoUisyxT0hKSQon4BY7t9Hm7RASj6iUpHAG7Ld1VUZSKByA0wmpoEaVOivOmr5OKaTC/hDLogrHSTlr2jpl9sE34fERwHzbHYWlprxPFBCfsOqsgw6dNs6hiCgm3nw15X1i5uTMI3dtFpKq+lYossY+jyTEpPSkKO7k/3gkhaLYQxXZryQ7haT8kUKRGcojFUaSU4DTZ4Gdu4EtWy3Tzj1AyHm+kFbbSVGYUEIqTFy+Arz7IdC+NdC3JzBkAPDgYMs0pD/QuzvQtSvw3gTgys03ryvuPEpIdxqTCdizD3jhJaBpY2DyZ8CZ00BYKBATBcTFWibOhwrxHD0IfDMRaNMSGDceOHjYcgzFHUUJ6U7Ct6f/T4hi6EBg4Y9Aqh0v8YoVwpoxzeK1Zs5WYrrD2CUkWdWg6hscQ0QkMP5N4YE+F/PhIl1zmbChV8VxRgOvvyXEFaetVOQVe2+HfR5JicgxxMQAL70MzJ0JGLN+MbRdzJluEWbanXlRWrEiF3ZuZ2inlJRnmNV9LwS0ZpWYd2A4lpoiwkMR4n0z5Zb34Cpyi322rspIBc0/G4GvPhOeKJ+M/dvJMB85pi0oCgolpIKEId377wKJ+fhKzeuh0H0yUQhVhXgFiRJSQbJ1O3CqAF6i/NfvwJZt2oKiIFBCKkj++ANIStQWssDPHxj/vhDDBmDgw9pKQaduwIatwMeTgMDS2sosMImwcd48VSVegCghFRQ06jWrtYUs0LsAY98EgoRQXn8N+FsIz8runcDI54Ho6zD/MNeyb3Yc2Q+EX9cWFPmNXUJSdXZ54PwFIPSStpAFnp5Ag4bAhx8I4ewQZaoIbYMgPhY4tA+Y8yN0LZoBJXLwSmHhSki5JDd2boeQlIzyxFYhjJxIFmHflK+FgLIRwPVQ4DXhrdKLLDOiI8UUpS0o7MN+W7cztFNiyjW2eIfSZYG+9wJffysENTPzadJUoF0noGot7UtZwHaltGRtQZHf6CIjI3NUx9Rp36B69WrYtWsXFi5YgsuXL2tbbvL4449jxowZNj9FxizKDImRkTAWg2EB7n5+cPP21payYPJ3wLtjtYUs8AsAunTlAyW0FdmwZYsIFa9oC1mw8jegY2dt4XbSkpORJO6BuYg/R0An0surZElRbLT9CUZz5szBE088oS3dJCDAHw8/MgydO3fCnj178OILo0XELULubOCzKgpWSOKGUTybPv8MO2fNRAL7mBUDmJDlGjdDr48+RrVu3aDPTAhzFgCvPKctZIFefK9jT2DjX8xptJUZMLgCQx4BlszNvlGX+61cJbxXW22FBYom7OhRrH3zdZxYu0aKqThAETUcNBR3ffwJ/MqXh06ffbDlaCEVWK0dPdD+nxdiaqvm2PDZJ8VGRITGeWnfbsztfzeWPP4o4q5lMlaoYxttJhs8vYDRLwNlKmsrMqFcReDLiYB/KW1FFgSUEPsID5cOU1oaNnzyMaZ3bo8jq34tNiIi/G37Fy3ApPp1xG/8CMZUB/VhtJECE1KoyAVXCSOJPBeirSl+MEw98PMCrH3nLZgy9iyoWgUoIcpA2ZEQD5w8Bnz2qQjzSmorM/Dw48ChI0DEVW1FFpQWQisVqC1Y+O+bb8S1vYnEqOJbCZGamIC/338Xx1cJb1yA2CekXIbS9EZ/vjYGCdeLjxfKjgOLFuLaoUPakgZDjT69tYUsYDg3YQJw/Cgw7Xug293aBkGz1sDCXwAfEWY8eL+2MhvqNbxFSLEiHN85UxzTCaC9LXvmSUSG5C7Tzk2R0SYhubm6Wh6o6J67J2leO3gQJ/8Wcb+TkBIfj90/zNKW0tFPCMPNQ1vIgiiR2Ux4VxQ6hwH/pmuQ3bsDeHQo8PY44HoO3og8+tgtlRbXT59C+KmT2lLxJyk6Ckd+Wa4t2YNO2DmfwusiHyAqFm3CJiG1aNEMNWtUR6+e3eHtLeJ4Owk9fDh3Mi/CHBY38bYySMvmQK262kI2MK3SRIyfvsKB6xj3s4dETnS5C2h/ayXDwSVLnO4eMPOwFzqMHt26oHq1yrirV0/odbYFbTbtdfP5zoZceSQWBJ2NmCuXcGFbho6jDLU+FKFbfuIvylZvv3WLN6KH3PvTj9qS83BbOdVGKCadEJBB2ru2MgdsEtLFi5cRfj0CJ06eRop6HJTNHFy86PZMpHMH4KXXABdXbYWDefo5oGF9bUEgvNCumTORHBurrVBkh1lEAadOn8H1iEicPHlKLNvmxW0SUsi5cwgNDcWRw0eRzGeuKWzi8IrliA/PpILllZeBdl21BQfy6NPAq6OFSG+25fH8e3+aqy3ZBktx/iInDshm4nYvMYl/xQqTCJ2PHj2GcJFuh4W9m0wOFBKhMM3iLxeRncPItKHTkbBhzfV2T8GWc70ofNpLXOg1/PbSi0hLyvB0ID8/YO5soO9AYfSiQJtX2BP8ocdE2Pg+4O6urbRwaNlSXD14QFuyjV7iEM955zwNEYrzzAd7MIjfUO/Bh9Bv9lz0nj4LNe6+R9yagjI8nTyXxRHZXqa0SUjWn3CnROQRUAKdJ3yMexctQZXuPbW1jqV67364Z/7PGLRyFXpOmYYyjZvAzccHrca8hgHLVmDALyvQ+rXxcPUSFmQHR1Yux84Z0y05UXr8fIHvpgDj3s5bwnr7A5MmAxwV6yuOmQ5W8qx5c7woK9hXRi0prMJPXJJvNhO3lxD7sc2f1U8OyA5u0PipZ9Du7XdQvn17VOrSBZ0++gRVe+bQdJAP2NN1ymaPZMGi1oLEu0xZdP54ImoPHoKgRo3Rc+o0NHjkURhYNekAXDw90fG9D9Dtm28Q3KIFStSogaq97kLf2T/i/r/Wocmzz6FUvXoIrFMXjZ95BgOWr0BA1Wrat3OGbRqbvvwcl/bs0dakQwgVY0SYt+Zf4K5+Ima6tQE1W0qWBnrfa+lP9/AwkVC31qbGXrmC5cOfRjKHt+eSEFFW3yQi+X2pQIqwqfNi+ZiYvyQ+WXdI42kiHPgj4tStHVTkY0bF9E/fb87FwwP1H31EW8pfaN+32LiN5m6TkAziR4nDQy9PYqf28gCNus/MH1C5W7cbuTb7ULV6bRya8cmkDhB1pc5dUUuINOORXIWRe5a6vRuOf9WqaDI8hz5zGYi+eAEL7h+E8BMntDUZ4PiiH34AfvsdeFOEZw1bWsK1zGjSBvj4c8u+c8R3mjW5LR1Y7b7iuWdxkYMB88Bp4cj+TQZ2CTGxww09VRkRXfuLT56RU6CYryjWVXBQ1G02GTP1oGmJOYwsdhB6vQ4Gg/6GN7LVcdikCj8Of9aOxxMVBCVq1ET3Sd+gZO3atxkKc6imzz2PDu9+IMOvvFBBhA/2eDcmbJW77rrtmnIi6tw5LH70IYQeOaKtyQA7RtavJzzUaGDDOiA8AogQ3iTj9M9fwLPDgbp1RDx1+3VHX7yIBYMG4Ngfv8GcxwegMHSrLARSVkzUyQVxuOPCxq+IT2vQY00FR1kFy5OH5s1DatzNh10mXr+OPVNEGFwA6NlxmL9GCElWgcvlnLFJSCVKlJAJRW/A9qT8pmTNWugza7ZFRNlQZ+hQNBspPFMecPO5tVxhC67e3jn2Ls6MS3t2Y17/e3BkxS8y5HM0FOn8wQNkr25HUFM4RVY8tBR6TRLKofepIuyqtPh0lHAy49SvK7BaZBYHZs3E3mlTsVqEqNf279W25i/W9wozo2DPBr7S0xZssgYXcXDW2PEEPFF+U1EUMH2Cg7WlrGEc3eCxx+DmnXuvFHHypF2FShJ5/HjucntxnoizZ7D4kYfwzwfvI+bSJbvPnRkJ4eHYM2c2pnfugEu7dzlMpFHiMOfEzzwjvNBRMTHUY7kpTKzP+1VngfD0XqWD4CnHF7nC4Oom5z3EVBC4urpIG+d9cbWjrc+2bFX8OJPRJIXkIk6U39hTM0YxuWWorbKH07//hoTQUG0pZ4yi/HEgs350dpCalIh/JnyA2X3vwqbPPkOCCF1yQ2pCguzRPefuvlgx4lkkRkVqWxwD24nohUqlm7jMWrv8IqhhI/SZMQvdv5ksM8lGzzyDu76bjrumfoeA6jW0vfIPFyEe9uChkPSirGQrNu3pK8IfkzgwPZObyCEKmtT4eOHmZ+GfV0bj2r592tr05P7ORp8LwZrhzyA+szFEGeAwiSMLF+LUql+1NXkj9Airp8fhs+pVsEKEMiGbNiLq/Hk5+JFlBatnYVeXVFHYToqKkmWgK/v3Y+1bb+KTiuXw+5iXhRfamS/jb1jkTxauJ+Pk+DNZcPHwRKcJH6NknTqyLGqF7XhlmjdHqzGv5iqktgdXt5seKTAwhzFf6bDpqvz9/eWni4gXPT0z771sFDfbEWFKZoT8vRY7vvhUGvCaZ59BcrQodDuQ8KOHsW7US9mKiZ5oz5TJ2D7xY4f3HUyJj8POH2ZgVs9umNGlI+b06yPLOgsfGIJFDz8oP38aeB9+vKcvZnTthGltW2L9xI+QFBOtHSF/YKN+GoWTbuKyUUxWrLPpVuWaWgMGZVsurtS1G4IaNdGW8kZqJhkPxUtHwZ7fRnGPg4KCtC05Y5OQ3N09pFBY8Mpq2G1cXJzcJz9g6GU13qTICKTkw9NxroqyxZ9PPomETMRkEol+eN5c7JvxfaZVs46Cnifqwnlc3LkdJ9aslj3IDyz6WVZOnBKZyfltWxEZclZeT0EQIKyjsojkq6SbuFxKFJPpLzhZRUWB5RW242UHe7aUbZ79PrYSKbx+RugE6Sho50nJSfCyp4ihfWZLQEAJ2QfJWxzYy8vrFrdrJSws7I51aHWUJ4w4eQxrXxyJWBE+WWGItfOrScIjfpbn6uSiQqj4mQwq2f2HVeAZJx+xnhbgLv67Lnb8T9z2vQ7IX67u2Z2tt2eZMMzO7k5ZceHCBW0uPTr4ivI2a+uMRhOCSufw7MB0iGTJGXd3d+ltgsoEwcfHO1MhsZNfooMazWLFj0yfoKwxzBSxOu7KFVFYD9NW5J1r+/biz6eeRLw4bkpsLA7O/kGUz2ZIb+EsbBMOb0sycFh8HslmOstbJExhndj3lAOS5/D8eZjbuiUWdOpw+9SxA+a1a4PLO/L+THOGdRfTZZZWWJnm4+tjGdAnjCsgwPaaQpueIsQTL122CDVq1MCiRYuxcMEiJIjcIT1U8o4dO1BHFBQzsm/uXCx56jFtKWdcPL1QrXdv+FWqLAuXFzdvwpWdNx+wWO+BYfAODpat3efX/4vrxxz/YHpPUdD0KFECUadt70pfnNCaJXOEnstSJVL4aPn0cPT/9vbh9ddE+H7XXXdh//792hoLHh4eGDioP/r06S2LKoMGDrWpHYmOxSaPZG2EZaUDH1fkx97LGeCJ161bpy3ljbTEBJwQ5YNdX0/Czklf3CIicuTnBXL93u+m5YuISOL1cESesr+NqbhAB0OHk9NUWEWUHVdEtJHZI+VYbPH390OpQPZ51NkkIis2C6l0qSCp5MDAkihbtsxt4R0Nbt68eQ4L7xSK/GLLli24nknbXcmSJVAiIACeQlCZOYvssElIFE1ZEUqdFmEO69arVaua6YMgt2/fjr17C6Yrh0KRG5KTkzF79mxZeZYeOouKFSsiqEwZXBHeKiiojLbFNmwSEqlQoaL0SFRqufLBIsS79eGDVmbNmiUvVqG489waljNqWrFiBfZl0qjv7e2NylUqoowQEkeEly2bcxe19NgspAD/ACGmSnKeZaXy5cvdFt6R33//HefPn9eWLLjZ6SYVCkfg5nVrH8yoqChMmjTptvZO2nG5csEIDi4r+9exDalMfnkk0q5te8THxYmTlpPPAs+sMMZnO7zxxhu31OpV7tABnnyErkJRgFTtdPMFAvRGy5Ytw4EDt7dD0Y5r1Kgmiy0RkRFo06qdXRUNxC4hVapUGQmJiWjSpAmqVK0sVZwRXvDy5cvx/fff36jx8i5VCp3HjpfzCkVBUKFZS9Tu109bAs6ePYvXX38908qwUqUDRVhXRTiH6kgUDqBp02baFtuxS0jszFetanWcPHlSnrRFy+YytswIC3J0oZs3b74hpuZPPImaPe+S8wpFflK6dh3cv/DnG8PV2fjKt6Ww00BG2PjaoEEDWYEmQ7zyFWQHBHuxS0ikUeMmOHLkMEqXLo3q4uQM8TIrK7ELxsMPP4xjx47JZS/hle6fvxCtnnnuxg9UKBxNxZat8dDyFShZtapcZmeCcePG4b///pPL6aHdVqpUUQipLmrWrIn9+/ajYYNG2lb7sKlnQ0b279+Hk6eOSW+zaeNmrFr1Z6adAEnjxo3le5NatGghL5xDAy7u2IEL27cj8txZpCaodidF3jCI8oxfhQooJzL5Gr163RhqwUZXltd//DHzp8yyBrp3757o0LG9bIz18wtAj+7i+5k4huzg/rkSEkM3dhmiirdt3YqNmzZj/b8bkZTx+W0CnqSC+JHffvst+vTpc6OXhEKRn7Cp5pFHHsE///yT6agEtoO2adMaXbt2QvsOHXDixAkMHfKAHOlgL7Rxw/jx49/Tlm2GX/T29sHff69F3Xp1hWcyIT4uHqGhYbc1dJGYmBjhtSzvq2HZysfHx27VKxS2wNrilStX4v7775dv3LOW0dPDsn7dunXQuXMHNBeRUkjIWbRq2cbutiMruRYS4ZOFWOd+7lwIKleuAhGzITo6BhEREZlePBtpN27ciLVr10qXys6tBfH8B4VzwAycnaZHjBiBKVOmyGaYzKDRV6lSBV26dEKTpk0RFxeLUoFBaNGyZa6jJR4zV6GdFQrm999/le+TYfvSbpEDrFu3HqdOnkJaDqNIW7dujeHDh6N9+/YIDg6WXkqFfQpboe2xKMFxcAcPHsSCBQtkr4WMoxLSw4yblQvdundBi+bNUaZsWYSHhWPAgMGZdnmzlTwLicTHx2PFymVynFJamhG7d+/Gli3bcPTI0UyH86aHF19W/BjmEGybql+/vvRUlSpVkl5LeSyFFQqHImHPbZZnWBtMW2NTDCsVshMQYSZdq3ZNdOzYTthaU9nFjV6r/32DsuzuZisOERLhyNhlyxfLfkqxMbE4fPgQtm7bgX379suyU2ahnkJRULBGrn79emjXrrXMrPkshjNnz0oR8ZmNecVhQiKsUPh73V9ISU6Shbbdu3fh2PHj2LVzr2wQyynUUygcDSMaiqZly2aycsFSJoqTttirZx+UdNCz8hwqJMIC37p/1uLSpYuoVauWdL8hISHYv+8AjohQLyoqWglKke9QQByxXbtObTRv3lhWhtWv30Bk6Ofh4e6FPn36ws3N/t4LWeFwIRGWizhuacfObfLHMP48cuQIzp45K9afEfHtSYSHX5f7qZBP4UjY0bREiQDUrFkDNcRUtUpl1G/QQFZKsF2pebOWqFevvvZMBseRL0KywkqIv9auFj/gKpoKlxoWFopz584jTBTwQkLOydcKXrsWdsPVUlTWSaHICRovKxDofVjjGxgYiJq1qss+c0FBpVGhfAUElyuPgwcPyAy9X997xGf+DOfJVyERhnoXL17AgQP7ERERjgBRsOOPChW5w8VLl2QnwojrkYiMikRUZLQsZ1GAfL1mSmoK0lLTZKs0j2Nt6FVCK/5Iw5Tt9XzFikFOrOGlx2GHUi8vT/j5+8nnh3BoOMs6pUoFolz58nKID23ourAtPkauQYNGMrTLS/V2TuS7kNIjzoP1G/7BmTOnZa5RtWo14Y3icfXqFdmIS/ebkpIsG26Tk5JlTWCiXCdElZIKY5oRRr47h6IymqSgfP18Ua1qZTGvk16OQlQUYYR4+BoVPnPbQG+jiYehmIeHuxSRu7ubLN9wnusoFjahUEwsj584cVyIqQK6de0ha5ELggIVEqHxR0dHyZ7hl69cEl4oEqlpqSJhXIWbNsjEYc7BZ4wzS+L+9EgM/Sgkk1VIJj7pzgx/Pz8RD1eXxz556owcAakoelicj8UL8Z1Eek4Uk+aJONFYhQUJezBJe2DGS1tgJss3SPj4+KK8EBAfiUBRFWTjfoELKSMUCj3O1atXcenSBa0cFSKH+jKx+GYA5kyuQmiWXMhNJioTmAnOgmXtWjXlsU6eOi2EqYRUFGGmaHl7+M2MU4b3IkJJZTQiMlCuY2br4eGJihUqyDJRpUpVZFMLn0dnEdqd4Y4LKT3pyz7MadhSTQ/EhGXuw14T7Bxr2cvyP92+j/ZuJMbFd+qRyQoHkE4HwiylcfJh9gzfmHnSw/BZ3FZPcyeFk5FCJSSFoqhCIaleogqFA1BCUijyDPB/wjPcHI2yhtkAAAAASUVORK5CYII=;" vertex="1" parent="1">
          <mxGeometry x="490" y="530" width="90" height="171.43" as="geometry" />
        </mxCell>
      </root>
    </mxGraphModel>
  </diagram>
</mxfile>
